<svg width="62" height="62" viewBox="0 0 62 62" fill="none" xmlns="http://www.w3.org/2000/svg">
<circle cx="31" cy="31" r="31" fill="#67BEC1"/>
<g clip-path="url(#clip0_2154_11791)">
<path fill-rule="evenodd" clip-rule="evenodd" d="M42.6669 19.6449C44.2988 18.9578 46.0482 20.3377 45.7601 22.0847L42.3567 42.7198C42.0285 44.7094 39.8433 45.851 38.018 44.8595C36.4905 44.0299 34.2243 42.7529 32.1819 41.4184C31.1621 40.7519 28.0392 38.615 28.4231 37.0939C28.7513 35.7932 34.0011 30.9064 37.0011 28.0001C38.1795 26.8585 37.6428 26.199 36.2511 27.2501C32.7987 29.8576 27.2559 33.8219 25.423 34.9376C23.8058 35.9219 22.9614 36.0899 21.9543 35.9219C20.1151 35.6155 18.4099 35.1409 17.0178 34.5638C15.1362 33.7838 15.2279 31.1981 17.0165 30.4451L42.6669 19.6449Z" fill="white"/>
</g>
<defs>
<clipPath id="clip0_2154_11791">
<rect width="36" height="36" fill="white" transform="translate(13 13)"/>
</clipPath>
</defs>
</svg>
