<svg width="62" height="62" viewBox="0 0 62 62" fill="none" xmlns="http://www.w3.org/2000/svg">
<circle cx="31" cy="31" r="31" fill="#67BEC1"/>
<path d="M34.4477 30.7197C33.8852 30.5082 33.8852 29.7004 33.8503 29.1379C33.7097 27.1343 34.4128 24.0754 33.5691 22.7749C32.9717 22.0009 30.0883 22.0718 28.3311 22.1775C27.8383 22.2484 27.2409 22.353 26.8191 22.5645C26.3972 22.776 25.9753 23.127 25.9753 23.4432C25.9753 23.8999 27.0306 23.8302 27.4164 24.4275C27.8383 25.0609 27.8383 26.4312 27.8383 27.5562C27.8383 28.8567 27.6268 30.5802 27.1003 30.6499C26.2914 30.6848 25.8347 29.8759 25.4128 29.2785C24.5691 28.1187 23.7253 26.6764 23.0919 25.2702C22.7758 24.5322 22.5992 23.7233 22.1424 23.4072C21.4393 22.9144 20.1737 22.8795 18.9429 22.9144C17.8179 22.9493 16.2002 22.8087 15.8841 23.4769C15.6377 24.2149 16.1653 24.918 16.4466 25.5165C17.8877 28.6452 19.4346 31.3879 21.3336 33.9889C23.0919 36.4144 24.7434 38.3483 27.9778 39.3675C28.8924 39.6488 32.8997 40.4577 33.7086 39.3675C33.9898 38.9457 33.9201 37.9962 34.0607 37.293C34.2013 36.5899 34.3768 35.8868 35.0451 35.8519C35.6076 35.817 35.9237 36.3087 36.2758 36.6608C36.6628 37.0478 36.9789 37.3639 37.2602 37.716C37.9284 38.3843 38.6316 39.2978 39.4753 39.6499C40.6352 40.1427 42.4284 40.002 44.1159 39.9312C45.4873 39.8963 46.4717 39.615 46.5774 38.8062C46.6483 38.1728 45.9441 37.2593 45.5222 36.7317C44.4669 35.4312 43.9753 35.0442 42.7794 33.8483C42.2518 33.3207 41.5836 32.7582 41.5836 32.1259C41.5487 31.7389 41.8648 31.3879 42.1461 31.0009C43.3768 29.1728 44.6076 27.8723 45.7326 25.9733C46.0487 25.4108 46.7878 24.1103 46.5066 23.4769C46.1904 22.7738 44.4321 22.9842 43.3419 22.9842C41.9357 22.9842 40.1076 22.8784 39.7554 23.1597C39.0872 23.6164 38.8059 24.3555 38.4898 25.0587C37.7867 26.6764 36.8372 28.3279 35.8528 29.5587C35.5007 29.9805 34.8336 30.8592 34.4466 30.7185L34.4477 30.7197Z" fill="white"/>
</svg>
