<svg width="97" height="18" viewBox="0 0 97 18" fill="none" xmlns="http://www.w3.org/2000/svg">
<path d="M9.2 0L11.2655 6.21885H17.9497L12.5421 10.0623L14.6076 16.2812L9.2 12.4377L3.79238 16.2812L5.8579 10.0623L0.45028 6.21885H7.13447L9.2 0Z" fill="#14110D"/>
<path d="M28.7996 0L30.8651 6.21885H37.5493L32.1417 10.0623L34.2072 16.2812L28.7996 12.4377L23.392 16.2812L25.4575 10.0623L20.0499 6.21885H26.7341L28.7996 0Z" fill="#14110D"/>
<path d="M48.1992 0L50.2198 6.21885H56.7587L51.4687 10.0623L53.4893 16.2812L48.1992 12.4377L42.9092 16.2812L44.9298 10.0623L39.6397 6.21885H46.1786L48.1992 0Z" fill="#14110D"/>
<path d="M67.6004 0L69.6659 6.21885H76.3501L70.9425 10.0623L73.008 16.2812L67.6004 12.4377L62.1928 16.2812L64.2583 10.0623L58.8507 6.21885H65.5349L67.6004 0Z" fill="#14110D"/>
<path d="M87.2 0L89.2655 6.21885H95.9497L90.5421 10.0623L92.6076 16.2812L87.2 12.4377L81.7924 16.2812L83.8579 10.0623L78.4503 6.21885H85.1345L87.2 0Z" fill="#14110D"/>
<mask id="mask0_1_3267" style="mask-type:alpha" maskUnits="userSpaceOnUse" x="78" y="0" width="18" height="17">
<path d="M88.9932 6.30957L89.0586 6.50488H95.0527L90.376 9.8291L90.2031 9.95117L90.2705 10.1523L92.0596 15.54L87.3662 12.2041L87.2002 12.0859L87.0342 12.2041L82.3398 15.54L84.1299 10.1523L84.1963 9.95117L84.0234 9.8291L79.3467 6.50488H85.3408L85.4062 6.30957L87.1992 0.908203L88.9932 6.30957Z" fill="#14110D" stroke="black" stroke-width="0.573034"/>
</mask>
<g mask="url(#mask0_1_3267)">
<path d="M95.0527 6.50488L90.376 9.8291L90.2031 9.95117L90.2705 10.1523L92.0498 15.5107L90.0762 14.0479L89.5723 6.50488H95.0527Z" fill="#FFD300" stroke="black" stroke-width="0.573034"/>
</g>
</svg>
