<svg width="24" height="20" viewBox="0 0 24 20" fill="none" xmlns="http://www.w3.org/2000/svg">
<path d="M22.4096 0.498016H1.59535C0.715132 0.498016 0 1.2132 0 2.09336V17.9066C0 18.7868 0.715132 19.502 1.59535 19.502H22.4047C23.2848 19.502 24 18.7868 24 17.9066V2.09336C24.005 1.2132 23.2898 0.498016 22.4096 0.498016ZM22.3046 1.49825L12.6926 11.2753C12.3125 11.6453 11.7074 11.6503 11.3223 11.2852L1.70037 1.49825H22.3046ZM1.00019 17.8166V2.21339L8.96684 10.3151L1.00019 17.8166ZM1.73037 18.5017L9.67203 11.0302L10.6172 11.9954C10.9873 12.3555 11.4824 12.5605 11.9975 12.5605C12.5176 12.5605 13.0227 12.3555 13.3928 11.9904L14.103 11.2652L22.2546 18.5017H1.73037ZM23.0048 17.8366L14.8081 10.5451L23.0048 2.21339V17.8366Z" fill="#C0C0C0"/>
</svg>
