<svg width="31" height="31" viewBox="0 0 31 31" fill="none" xmlns="http://www.w3.org/2000/svg">
<rect width="31" height="31" rx="15.5" fill="#F8F8FA"/>
<g clip-path="url(#clip0_1_2955)">
<path d="M21.2598 10.24H9.73763C9.25037 10.24 8.85449 10.6359 8.85449 11.1231V19.8769C8.85449 20.3641 9.25037 20.76 9.73763 20.76H21.2571C21.7443 20.76 22.1402 20.3642 22.1402 19.8769V11.1231C22.143 10.6359 21.7471 10.24 21.2598 10.24ZM21.2017 10.7937L15.8808 16.206C15.6704 16.4108 15.3354 16.4136 15.1222 16.2115L9.79577 10.7937H21.2017ZM9.40817 19.8271V11.1896L13.8183 15.6744L9.40817 19.8271ZM9.81238 20.2063L14.2087 16.0703L14.7319 16.6046C14.9367 16.8039 15.2108 16.9174 15.496 16.9174C15.7839 16.9174 16.0635 16.8039 16.2684 16.6018L16.6615 16.2004L21.174 20.2063H9.81238ZM21.5893 19.8381L17.0518 15.8018L21.5893 11.1896V19.8381Z" fill="black"/>
</g>
<defs>
<clipPath id="clip0_1_2955">
<rect width="13.2857" height="13.2857" fill="white" transform="translate(8.85742 8.85714)"/>
</clipPath>
</defs>
</svg>
