<svg width="28" height="24" viewBox="0 0 28 24" fill="none" xmlns="http://www.w3.org/2000/svg">
<path d="M26.1446 0.914062H1.86124C0.834321 0.914062 0 1.74844 0 2.7753V21.2241C0 22.251 0.834321 23.0854 1.86124 23.0854H26.1388C27.1656 23.0854 28 22.251 28 21.2241V2.7753C28.0058 1.74844 27.1715 0.914062 26.1446 0.914062ZM26.022 2.08101L14.8081 13.4875C14.3646 13.9193 13.6587 13.9251 13.2094 13.4992L1.98376 2.08101H26.022ZM1.16689 21.1191V2.91533L10.4613 12.3673L1.16689 21.1191ZM2.01877 21.9184L11.284 13.2016L12.3868 14.3277C12.8185 14.7478 13.3961 14.987 13.9971 14.987C14.6039 14.987 15.1932 14.7478 15.6249 14.3218L16.4535 13.4758L25.9637 21.9184H2.01877ZM26.8389 21.1425L17.2761 12.6357L26.8389 2.91533V21.1425Z" fill="white"/>
</svg>
