<svg width="26" height="27" viewBox="0 0 26 27" fill="none" xmlns="http://www.w3.org/2000/svg">
<path d="M14.7824 5.80555C14.7728 5.80467 14.7623 5.80467 14.7518 5.80467C14.3895 5.80467 14.0955 6.09867 14.0955 6.46092C14.0955 6.81005 14.3685 7.09617 14.7133 7.1163H14.715C17.8064 7.31842 20.2371 9.87517 20.2371 12.9989C20.2371 13.1617 20.2301 13.3227 20.2179 13.4819L20.2196 13.4609C20.2196 13.8232 20.5136 14.1172 20.8759 14.1172C21.2381 14.1172 21.5321 13.8232 21.5321 13.4609C21.54 13.3358 21.5444 13.1897 21.5444 13.0418C21.5444 9.2093 18.572 6.07067 14.8069 5.80642L14.7841 5.80555H14.7824ZM14.7176 2.4053C15.1105 2.42455 24.3409 3.0073 24.3409 13.4609C24.3409 13.8232 24.6349 14.1172 24.9971 14.1172C25.3594 14.1172 25.6534 13.8232 25.6534 13.4609C25.6665 13.2527 25.6744 13.0103 25.6744 12.7653C25.6744 6.58867 20.8873 1.52942 14.82 1.09717L14.7824 1.09542C14.7745 1.09542 14.7658 1.09455 14.757 1.09455C14.4044 1.09455 14.1165 1.3693 14.0946 1.7158V1.71755C14.0938 1.72717 14.0938 1.73855 14.0938 1.74992C14.0938 2.1008 14.3694 2.3878 14.7159 2.4053H14.7176ZM25.8074 20.2562C25.712 19.6655 25.5151 19.1353 25.2351 18.661L25.2465 18.682C25.1468 18.5193 24.9831 18.4047 24.7906 18.3732L24.7871 18.3723L16.9393 17.1263C16.9086 17.121 16.8728 17.1184 16.8369 17.1184C16.6558 17.1184 16.4913 17.191 16.3723 17.3092C15.7808 17.9042 15.3275 18.6357 15.0633 19.4538L15.0528 19.4923C11.5388 18.0573 8.80439 15.3229 7.40352 11.9017L7.37027 11.8098C8.22602 11.535 8.95752 11.0809 9.55164 10.4894C9.67064 10.3704 9.74414 10.2059 9.74414 10.0248C9.74414 9.98892 9.74152 9.95392 9.73539 9.9198L9.73627 9.9233L8.48939 2.07542C8.45789 1.87942 8.34327 1.71492 8.18314 1.61692L8.18052 1.61517C7.73864 1.3518 7.22327 1.15842 6.67202 1.06742L6.64664 1.06392C6.37102 1.00267 6.05427 0.966797 5.72964 0.966797C5.70777 0.966797 5.68589 0.966797 5.66402 0.967672H5.66752H5.66227C2.60239 0.988672 0.127018 3.4658 0.108643 6.5248V6.52655C0.121768 17.6924 9.16927 26.7408 20.3343 26.7539H20.336C23.3985 26.7338 25.8756 24.2567 25.8958 21.1968V21.195C25.8958 21.1775 25.8958 21.1565 25.8958 21.1355C25.8958 20.824 25.8643 20.5204 25.803 20.2273L25.8083 20.2562H25.8074ZM20.3351 25.4414C9.89377 25.4292 1.43339 16.9679 1.42114 6.52742C1.43777 4.18855 3.33039 2.29592 5.66839 2.28017H5.67014C5.68414 2.28017 5.70164 2.28017 5.71827 2.28017C5.95627 2.28017 6.18814 2.30642 6.41214 2.35542L6.39114 2.35105C6.71139 2.40355 6.99927 2.49192 7.26877 2.61355L7.24689 2.6048L8.38614 9.78155C7.83664 10.2435 7.15764 10.5699 6.41127 10.7003L6.38589 10.7038C6.07527 10.7598 5.84339 11.0275 5.84339 11.3504C5.84339 11.4274 5.85652 11.5009 5.88102 11.5692L5.87927 11.5648C7.42977 16.0028 10.8624 19.4345 15.1945 20.9527L15.3004 20.985C15.3643 21.0078 15.4378 21.0209 15.5148 21.0209C15.8368 21.0209 16.1045 20.789 16.1596 20.4828L16.1605 20.4784C16.2944 19.7067 16.6208 19.0277 17.0889 18.4703L17.0836 18.4764L24.2595 19.6165C24.3759 19.8738 24.4669 20.173 24.5185 20.4863L24.5211 20.5073C24.5614 20.6989 24.585 20.9194 24.585 21.1452C24.585 21.1609 24.585 21.1758 24.585 21.1915V21.1889C24.571 23.5295 22.6784 25.4239 20.3395 25.4405H20.3378L20.3351 25.4414Z" fill="white"/>
</svg>
