<svg width="40" height="40" viewBox="0 0 40 40" fill="none" xmlns="http://www.w3.org/2000/svg">
<circle cx="20" cy="20" r="20" fill="#F8F8FA"/>
<g clip-path="url(#clip0_1_1365)">
<path fill-rule="evenodd" clip-rule="evenodd" d="M28.2487 11.9711C29.4025 11.4852 30.6395 12.4609 30.4357 13.6962L28.0293 28.2866C27.7973 29.6934 26.2522 30.5006 24.9615 29.7996C23.8815 29.213 22.2791 28.3101 20.835 27.3664C20.1139 26.8952 17.9058 25.3843 18.1773 24.3087C18.4093 23.3891 22.1213 19.9337 24.2425 17.8788C25.0758 17.0716 24.6963 16.6053 23.7122 17.3485C21.2711 19.1921 17.352 21.9952 16.056 22.7841C14.9125 23.4801 14.3155 23.5989 13.6033 23.4801C12.3029 23.2634 11.0972 22.9278 10.1129 22.5198C8.78252 21.9683 8.84732 20.14 10.112 19.6076L28.2487 11.9711Z" fill="#67BEC1"/>
</g>
<defs>
<clipPath id="clip0_1_1365">
<rect width="25.4545" height="25.4545" fill="white" transform="translate(7.27271 7.27246)"/>
</clipPath>
</defs>
</svg>
