<svg width="308" height="73" viewBox="0 0 308 73" fill="none" xmlns="http://www.w3.org/2000/svg">
<path fill-rule="evenodd" clip-rule="evenodd" d="M41.1976 36.5831C41.1976 39.0202 39.1993 41.0002 36.7398 41.0002C34.2802 41.0002 32.2819 39.0202 32.2819 36.5831C32.2819 34.1461 34.2802 32.166 36.7398 32.166C39.1993 32.166 41.1976 34.1461 41.1976 36.5831ZM30.4372 68.5829C30.4372 71.02 28.4389 73.0001 25.9793 73.0001C23.5198 73.0001 21.5215 71.02 21.5215 68.5829C21.5215 66.1459 23.5198 64.1658 25.9793 64.1658C30.2556 64.1658 32.2958 63.432 32.2958 58.281C32.2958 53.13 30.6049 51.6622 25.9793 51.6622C20.7808 51.6622 19.6628 54.0162 19.6628 58.281C19.6628 60.718 17.6645 62.6981 15.205 62.6981C12.7454 62.6981 10.7471 60.718 10.7471 58.281C10.7471 55.8439 12.7454 53.8639 15.205 53.8639C19.8305 53.8639 21.5215 52.1469 21.5215 47.2451C21.5215 44.8081 23.5198 42.828 25.9793 42.828C28.4389 42.828 30.4372 44.8081 30.4372 47.2451C30.4372 51.5099 31.5412 53.8639 36.7537 53.8639C41.3793 53.8639 43.0563 52.1469 43.0563 47.2451C43.0563 44.8081 45.0546 42.828 47.5141 42.828C49.9737 42.828 51.972 44.8081 51.972 47.2451C51.972 52.1469 53.663 53.8639 58.2746 53.8639C60.7341 53.8639 62.7324 55.8439 62.7324 58.281C62.7324 60.718 60.7341 62.6981 58.2746 62.6981C55.815 62.6981 53.8167 60.718 53.8167 58.281C53.8167 54.0162 52.7127 51.6622 47.5141 51.6622C42.3156 51.6622 41.1976 54.0162 41.1976 58.281C41.1976 63.432 43.2379 64.1658 47.5141 64.1658C49.9737 64.1658 51.972 66.1459 51.972 68.5829C51.972 71.02 49.9737 73.0001 47.5141 73.0001C45.0546 73.0001 43.0563 71.02 43.0563 68.5829C43.0563 63.9581 41.6308 62.6981 36.7537 62.6981C31.8766 62.6981 30.4372 63.9581 30.4372 68.5829Z" fill="white"/>
<path fill-rule="evenodd" clip-rule="evenodd" d="M32.2955 36.4031C32.2955 33.9661 34.2939 31.986 36.7534 31.986C39.2129 31.986 41.2113 33.9661 41.2113 36.4031C41.2113 38.8401 39.2129 40.8202 36.7534 40.8202C34.2939 40.8202 32.2955 38.8401 32.2955 36.4031ZM43.056 4.41711C43.056 1.98008 45.0543 0 47.5138 0C49.9734 0 51.9717 1.98008 51.9717 4.41711C51.9717 6.85414 49.9734 8.83422 47.5138 8.83422C43.2376 8.83422 41.1973 9.5681 41.1973 14.7191C41.1973 19.8701 42.8883 21.3378 47.5138 21.3378C52.7124 21.3378 53.8303 18.9839 53.8303 14.7191C53.8303 12.2821 55.8287 10.302 58.2882 10.302C60.7477 10.302 62.7461 12.2821 62.7461 14.7191C62.7461 17.1561 60.7477 19.1362 58.2882 19.1362C53.6626 19.1362 51.9717 20.8532 51.9717 25.7549C51.9717 28.192 49.9734 30.1721 47.5138 30.1721C45.0543 30.1721 43.056 28.192 43.056 25.7549C43.056 21.4901 41.952 19.1362 36.7395 19.1362C32.1139 19.1362 30.4369 20.8532 30.4369 25.7549C30.4369 28.192 28.4386 30.1721 25.979 30.1721C23.5195 30.1721 21.5212 28.192 21.5212 25.7549C21.5212 20.8532 19.8302 19.1362 15.2186 19.1362C12.7591 19.1362 10.7607 17.1561 10.7607 14.7191C10.7607 12.2821 12.7591 10.302 15.2186 10.302C17.6782 10.302 19.6765 12.2821 19.6765 14.7191C19.6765 18.9839 20.7805 21.3378 25.979 21.3378C31.1776 21.3378 32.2955 18.9839 32.2955 14.7191C32.2955 9.5681 30.2553 8.83422 25.979 8.83422C23.5195 8.83422 21.5212 6.85414 21.5212 4.41711C21.5212 1.98008 23.5195 0 25.979 0C28.4386 0 30.4369 1.98008 30.4369 4.41711C30.4369 9.04192 31.8623 10.302 36.7395 10.302C41.6166 10.302 43.056 9.04192 43.056 4.41711Z" fill="white"/>
<path fill-rule="evenodd" clip-rule="evenodd" d="M36.8231 32.332C39.2826 32.332 41.281 34.3121 41.281 36.7491C41.281 39.1861 39.2826 41.1662 36.8231 41.1662C34.3636 41.1662 32.3652 39.1861 32.3652 36.7491C32.3652 34.3121 34.3636 32.332 36.8231 32.332ZM69.1183 42.994C71.5779 42.994 73.5762 44.974 73.5762 47.4111C73.5762 49.8481 71.5779 51.8282 69.1183 51.8282C66.6588 51.8282 64.6604 49.8481 64.6604 47.4111C64.6604 43.174 63.9198 41.1523 58.7213 41.1523C53.5227 41.1523 52.0414 42.8278 52.0414 47.4111C52.0414 52.5621 54.4171 53.6698 58.7213 53.6698C61.1808 53.6698 63.1791 55.6499 63.1791 58.0869C63.1791 60.5239 61.1808 62.504 58.7213 62.504C56.2617 62.504 54.2634 60.5239 54.2634 58.0869C54.2634 53.5036 52.5305 51.8282 47.5835 51.8282C45.124 51.8282 43.1256 49.8481 43.1256 47.4111C43.1256 44.974 45.124 42.994 47.5835 42.994C51.8877 42.994 54.2634 41.9001 54.2634 36.7352C54.2634 32.152 52.5305 30.4904 47.5835 30.4904C45.124 30.4904 43.1256 28.5103 43.1256 26.0732C43.1256 23.6362 45.124 21.6561 47.5835 21.6561C52.5305 21.6561 54.2634 19.9807 54.2634 15.4113C54.2634 12.9742 56.2617 10.9941 58.7213 10.9941C61.1808 10.9941 63.1791 12.9742 63.1791 15.4113C63.1791 17.8483 61.1808 19.8284 58.7213 19.8284C54.4171 19.8284 52.0414 20.9223 52.0414 26.0732C52.0414 31.2242 54.4171 32.332 58.7213 32.332C63.9198 32.332 64.6604 30.3103 64.6604 26.0732C64.6604 23.6362 66.6588 21.6561 69.1183 21.6561C71.5779 21.6561 73.5762 23.6362 73.5762 26.0732C73.5762 28.5103 71.5779 30.4904 69.1183 30.4904C64.4508 30.4904 63.1791 31.9027 63.1791 36.7352C63.1791 41.5677 64.4508 42.994 69.1183 42.994Z" fill="white"/>
<path fill-rule="evenodd" clip-rule="evenodd" d="M36.7391 41.1515C34.2796 41.1515 32.2812 39.1715 32.2812 36.7344C32.2812 34.2974 34.2796 32.3173 36.7391 32.3173C39.1987 32.3173 41.197 34.2974 41.197 36.7344C41.197 39.1715 39.1987 41.1515 36.7391 41.1515ZM4.45789 30.4895C1.99836 30.4895 0 28.5095 0 26.0724C0 23.6354 1.99836 21.6553 4.45789 21.6553C6.91741 21.6553 8.91577 23.6354 8.91577 26.0724C8.91577 30.3095 9.65642 32.3312 14.855 32.3312C20.0535 32.3312 21.5348 30.6557 21.5348 26.0724C21.5348 20.9215 19.1591 19.8137 14.855 19.8137C12.3954 19.8137 10.3971 17.8336 10.3971 15.3966C10.3971 12.9596 12.3954 10.9795 14.855 10.9795C17.3145 10.9795 19.3128 12.9596 19.3128 15.3966C19.3128 19.9799 21.0457 21.6553 25.9927 21.6553C28.4522 21.6553 30.4506 23.6354 30.4506 26.0724C30.4506 28.5095 28.4522 30.4895 25.9927 30.4895C21.6885 30.4895 19.3128 31.5834 19.3128 36.7483C19.3128 41.3315 21.0457 42.9932 25.9927 42.9932C28.4522 42.9932 30.4506 44.9732 30.4506 47.4103C30.4506 49.8473 28.4522 51.8274 25.9927 51.8274C21.0457 51.8274 19.3128 53.5028 19.3128 58.0723C19.3128 60.5093 17.3145 62.4894 14.855 62.4894C12.3954 62.4894 10.3971 60.5093 10.3971 58.0723C10.3971 55.6352 12.3954 53.6551 14.855 53.6551C19.1591 53.6551 21.5348 52.5613 21.5348 47.4103C21.5348 42.2593 19.1591 41.1515 14.855 41.1515C9.65642 41.1515 8.91577 43.1732 8.91577 47.4103C8.91577 49.8473 6.91741 51.8274 4.45789 51.8274C1.99836 51.8274 0 49.8473 0 47.4103C0 44.9732 1.99836 42.9932 4.45789 42.9932C9.12539 42.9932 10.3971 41.5808 10.3971 36.7483C10.3971 31.9158 9.12539 30.4895 4.45789 30.4895Z" fill="white"/>
<path fill-rule="evenodd" clip-rule="evenodd" d="M36.7382 41.1526C34.2786 41.1526 32.2803 39.1725 32.2803 36.7355C32.2803 34.2984 34.2786 32.3184 36.7382 32.3184C39.1977 32.3184 41.196 34.2984 41.196 36.7355C41.196 39.1725 39.1977 41.1526 36.7382 41.1526Z" fill="white"/>
<path d="M92.0508 54.4727H93.9793L96.3829 61.6453L98.8144 54.4727H100.743L102.49 64.7608H100.575L99.4573 58.2667L97.2493 64.7608H95.5025L93.3224 58.2667L92.1765 64.7608H90.248L92.0508 54.4727Z" fill="white"/>
<path d="M107.828 54.4728H113.502V56.3837H109.799V58.2391H113.502V60.1223H109.799V62.8224H113.502V64.7471H107.828V54.459V54.4728Z" fill="white"/>
<path d="M122.474 54.4727H124.472L127.812 62.9192H128.972V66.2978H127.057V64.7608H119.916V66.2978H118.002V62.9192H119.148L122.474 54.4727ZM123.494 57.2005L121.216 62.9192H125.758L123.494 57.2005Z" fill="white"/>
<path d="M141.562 54.4727V64.7608H139.592V58.322L135.721 64.7608H134.002V54.4727H135.972V61.1191L139.899 54.4727H141.562Z" fill="white"/>
<path d="M147.683 64.7608V54.4727H149.681V63.0022H153.161V54.4727H155.159V63.0022H157.269V66.2978H155.425V64.7608H147.683Z" fill="white"/>
<path d="M169.86 54.4727V64.7608H167.89V58.322L164.019 64.7608H162.3V54.4727H164.27V61.1191L168.197 54.4727H169.86Z" fill="white"/>
<path d="M175.981 54.4727H177.98V58.3497H181.445V54.4727H183.444V64.7608H181.445V60.2467H177.98V64.7608H175.981V54.4727Z" fill="white"/>
<path d="M199.123 56.2727L197.74 57.5743C196.803 56.5912 195.741 56.0927 194.568 56.0927C193.575 56.0927 192.737 56.425 192.066 57.1035C191.381 57.782 191.046 58.5989 191.046 59.582C191.046 60.2744 191.2 60.8836 191.493 61.4098C191.787 61.936 192.22 62.3652 192.765 62.6699C193.31 62.9745 193.925 63.1268 194.595 63.1268C195.168 63.1268 195.699 63.016 196.175 62.8083C196.65 62.6006 197.167 62.2129 197.74 61.6452L199.081 63.0299C198.313 63.7776 197.586 64.2899 196.901 64.5669C196.216 64.8438 195.434 64.9961 194.568 64.9961C192.946 64.9961 191.633 64.4838 190.599 63.473C189.565 62.4622 189.062 61.1606 189.062 59.5682C189.062 58.5435 189.299 57.6297 189.76 56.8265C190.235 56.0234 190.906 55.3865 191.773 54.9018C192.639 54.4172 193.589 54.168 194.595 54.168C195.448 54.168 196.272 54.348 197.069 54.708C197.866 55.068 198.55 55.5803 199.123 56.2311V56.2727Z" fill="white"/>
<path d="M204.629 54.4727H206.627V58.0174L209.45 54.4727H211.826L208.206 59.0698L212.189 64.7608H209.841L206.641 60.1914V64.7608H204.643V54.4727H204.629Z" fill="white"/>
<path d="M224.893 54.4727V64.7608H222.923V58.322L219.052 64.7608H217.333V54.4727H219.303V61.1191L223.23 54.4727H224.893Z" fill="white"/>
<path d="M238.589 54.4725V64.7606H236.618V58.3219L232.747 64.7606H231.028V54.4725H232.999V61.1189L236.926 54.4725H238.589ZM231.979 51.7031H233.544C233.669 51.897 233.837 52.0354 234.061 52.1324C234.284 52.2293 234.55 52.2708 234.857 52.2708C235.165 52.2708 235.472 52.2155 235.724 52.1047C235.891 52.0354 236.045 51.897 236.171 51.7031H237.736C237.652 52.2985 237.359 52.7693 236.884 53.1293C236.395 53.4894 235.724 53.6694 234.857 53.6694C234.27 53.6694 233.781 53.5863 233.39 53.434C232.999 53.2678 232.677 53.0463 232.44 52.7416C232.202 52.437 232.048 52.1047 231.993 51.7031H231.979Z" fill="white"/>
<path d="M252.521 64.7608V54.4727H254.519V63.0022H257.999V54.4727H259.997V63.0022H262.107V66.2978H260.262V64.7608H252.521Z" fill="white"/>
<path d="M267.138 54.4728H272.811V56.3837H269.108V58.2391H272.811V60.1223H269.108V62.8224H272.811V64.7471H267.138V54.459V54.4728Z" fill="white"/>
<path d="M278.4 54.4727H280.399V58.3497H283.864V54.4727H285.863V64.7608H283.864V60.2467H280.399V64.7608H278.4V54.4727Z" fill="white"/>
<path d="M290.978 54.4727H296.721V56.3974H294.835V64.7608H292.836V56.3974H290.992V54.4727H290.978Z" fill="white"/>
<path d="M301.823 54.4727H303.919C305.051 54.4727 305.876 54.5696 306.379 54.7773C306.882 54.985 307.273 55.3173 307.567 55.7881C307.86 56.2589 308 56.8128 308 57.4497C308 58.1697 307.804 58.7651 307.427 59.2359C307.05 59.7067 306.533 60.039 305.89 60.2329C305.513 60.3437 304.814 60.3991 303.808 60.3991V64.7608H301.837V54.4727H301.823ZM303.794 58.4882H304.423C304.912 58.4882 305.261 58.4467 305.457 58.3774C305.652 58.3082 305.806 58.1974 305.918 58.0313C306.03 57.8651 306.085 57.6713 306.085 57.4497C306.085 57.0482 305.932 56.7574 305.624 56.5774C305.401 56.4389 304.982 56.3697 304.367 56.3697H303.808V58.4882H303.794Z" fill="white"/>
<path d="M91.6025 45.5145V13.127H96.7452C99.7218 13.127 101.902 13.3208 103.285 13.6947C105.242 14.207 106.807 15.1624 107.953 16.5609C109.113 17.9595 109.686 19.5934 109.686 21.4904C109.686 22.7227 109.42 23.8443 108.903 24.8413C108.372 25.8521 107.52 26.7937 106.332 27.666C108.316 28.5938 109.769 29.743 110.692 31.1277C111.614 32.5124 112.075 34.1602 112.075 36.0433C112.075 37.9265 111.6 39.5188 110.65 41.0143C109.7 42.5097 108.484 43.6313 106.975 44.379C105.465 45.1268 103.411 45.4868 100.77 45.4868H91.6025V45.5145ZM97.8212 18.998V25.8244H99.1767C100.7 25.8244 101.818 25.5059 102.559 24.8828C103.299 24.2459 103.663 23.3874 103.663 22.3073C103.663 21.2965 103.313 20.4934 102.614 19.898C101.916 19.3026 100.854 19.0118 99.4283 19.0118H97.8212V18.998ZM97.8212 31.3354V39.6435H99.3864C101.972 39.6435 103.718 39.325 104.613 38.6742C105.507 38.0234 105.968 37.0818 105.968 35.8495C105.968 34.4509 105.437 33.357 104.389 32.5401C103.341 31.7231 101.58 31.3354 99.1348 31.3354H97.8352H97.8212Z" fill="white"/>
<path d="M120.125 13.127H137.971V19.1641H126.302V25.0213H137.971V30.9477H126.302V39.4635H137.971V45.5145H120.125V13.127Z" fill="white"/>
<path d="M160.888 39.9619V13.127H167.149V39.9619H176.037V13.127H182.353V45.5145H145.838V13.127H152.154V39.9619H160.888Z" fill="white"/>
<path d="M191.843 13.127H198.159V25.3536H209.073V13.127H215.362V45.5145H209.073V31.3077H198.159V45.5145H191.843V13.127Z" fill="white"/>
<path d="M244.163 13.127V45.5145H237.944V32.4847H236.393L229.825 45.5145H223.02L230.412 31.4739C226.122 30.2554 223.984 27.4168 223.984 22.972C223.984 21.3796 224.207 20.0088 224.655 18.8318C225.102 17.6548 225.745 16.6579 226.583 15.8409C227.422 15.024 228.386 14.4285 229.49 14.0408C230.594 13.6531 231.474 13.4316 232.117 13.3623C232.774 13.307 234.577 13.2239 237.553 13.127H244.149H244.163ZM237.944 26.4752V19.1641H236.239C234.688 19.1641 233.57 19.2611 232.9 19.4411C232.215 19.6211 231.67 20.0226 231.237 20.6319C230.803 21.2411 230.594 21.9889 230.594 22.8889C230.594 24.2182 231.027 25.1598 231.879 25.6859C232.732 26.2121 234.115 26.4752 236.002 26.4752H237.958H237.944Z" fill="white"/>
<path d="M253.764 13.127H260.052V24.2874L268.926 13.127H276.403L264.985 27.583L277.507 45.5145H270.128L260.052 31.1277V45.5145H253.764V13.127Z" fill="white"/>
<path d="M307.832 13.127V45.5145H301.613V25.229L289.427 45.5145H284.019V13.127H290.238V34.0632L302.591 13.127H307.832Z" fill="white"/>
</svg>
