<svg width="40" height="40" viewBox="0 0 40 40" fill="none" xmlns="http://www.w3.org/2000/svg">
<circle cx="20" cy="20" r="20" fill="#F8F8FA"/>
<path d="M22.4363 19.8011C22.0385 19.6516 22.0385 19.0805 22.0139 18.6827C21.9144 17.266 22.4116 15.1032 21.815 14.1836C21.3926 13.6364 19.3539 13.6865 18.1114 13.7613C17.763 13.8114 17.3406 13.8854 17.0423 14.0349C16.744 14.1844 16.4457 14.4326 16.4457 14.6561C16.4457 14.9791 17.1918 14.9298 17.4647 15.3522C17.763 15.8 17.763 16.7689 17.763 17.5643C17.763 18.4839 17.6134 19.7025 17.2411 19.7518C16.6692 19.7765 16.3463 19.2046 16.048 18.7822C15.4514 17.9621 14.8548 16.9423 14.4069 15.948C14.1834 15.4261 14.0585 14.8542 13.7356 14.6307C13.2384 14.2823 12.3435 14.2576 11.4733 14.2823C10.6779 14.3069 9.53399 14.2075 9.31046 14.68C9.13626 15.2018 9.50933 15.699 9.70819 16.1222C10.7272 18.3343 11.8209 20.2736 13.1636 22.1127C14.4069 23.8277 15.5747 25.1951 17.8616 25.9158C18.5083 26.1147 21.3417 26.6866 21.9136 25.9158C22.1125 25.6175 22.0632 24.9461 22.1626 24.449C22.2621 23.9518 22.3861 23.4547 22.8586 23.43C23.2564 23.4054 23.4799 23.753 23.7289 24.0019C24.0025 24.2756 24.226 24.4991 24.4249 24.7481C24.8974 25.2206 25.3946 25.8665 25.9911 26.1155C26.8113 26.4639 28.0792 26.3644 29.2724 26.3143C30.2421 26.2897 30.9381 26.0908 31.0129 25.5189C31.063 25.071 30.565 24.4251 30.2667 24.0521C29.5206 23.1325 29.173 22.8589 28.3274 22.0133C27.9543 21.6402 27.4818 21.2425 27.4818 20.7955C27.4572 20.5218 27.6807 20.2736 27.8796 20C28.7498 18.7074 29.62 17.7879 30.4155 16.4451C30.639 16.0474 31.1616 15.1279 30.9627 14.68C30.7392 14.1829 29.4959 14.3316 28.7251 14.3316C27.7308 14.3316 26.4382 14.2568 26.1892 14.4557C25.7167 14.7786 25.5179 15.3013 25.2943 15.7984C24.7972 16.9423 24.1258 18.11 23.4298 18.9802C23.1808 19.2785 22.7091 19.8998 22.4355 19.8004L22.4363 19.8011Z" fill="#67BEC1"/>
</svg>
