<svg width="184" height="184" viewBox="0 0 184 184" fill="none" xmlns="http://www.w3.org/2000/svg">
<path fill-rule="evenodd" clip-rule="evenodd" d="M102.886 92.2095C102.886 98.3521 97.8951 103.343 91.7525 103.343C85.6098 103.343 80.6189 98.3521 80.6189 92.2095C80.6189 86.0668 85.6098 81.0759 91.7525 81.0759C97.8951 81.0759 102.886 86.0668 102.886 92.2095ZM76.012 172.867C76.012 179.009 71.0211 184 64.8784 184C58.7358 184 53.7449 179.009 53.7449 172.867C53.7449 166.724 58.7358 161.733 64.8784 161.733C75.5582 161.733 80.6538 159.883 80.6538 146.9C80.6538 133.917 76.4308 130.217 64.8784 130.217C51.8951 130.217 49.103 136.15 49.103 146.9C49.103 153.043 44.1121 158.033 37.9695 158.033C31.8268 158.033 26.8359 153.043 26.8359 146.9C26.8359 140.757 31.8268 135.766 37.9695 135.766C49.5218 135.766 53.7449 131.439 53.7449 119.084C53.7449 112.941 58.7358 107.95 64.8784 107.95C71.0211 107.95 76.012 112.941 76.012 119.084C76.012 129.833 78.7691 135.766 91.7874 135.766C103.34 135.766 107.528 131.439 107.528 119.084C107.528 112.941 112.519 107.95 118.661 107.95C124.804 107.95 129.795 112.941 129.795 119.084C129.795 131.439 134.018 135.766 145.535 135.766C151.678 135.766 156.669 140.757 156.669 146.9C156.669 153.043 151.678 158.033 145.535 158.033C139.393 158.033 134.402 153.043 134.402 146.9C134.402 136.15 131.645 130.217 118.661 130.217C105.678 130.217 102.886 136.15 102.886 146.9C102.886 159.883 107.982 161.733 118.661 161.733C124.804 161.733 129.795 166.724 129.795 172.867C129.795 179.009 124.804 184 118.661 184C112.519 184 107.528 179.009 107.528 172.867C107.528 161.209 103.968 158.033 91.7874 158.033C79.6068 158.033 76.012 161.209 76.012 172.867Z" fill="white"/>
<path fill-rule="evenodd" clip-rule="evenodd" d="M80.6541 91.7557C80.6541 85.613 85.645 80.6221 91.7876 80.6221C97.9303 80.6221 102.921 85.613 102.921 91.7557C102.921 97.8983 97.9303 102.889 91.7876 102.889C85.645 102.889 80.6541 97.8983 80.6541 91.7557ZM107.528 11.1335C107.528 4.99089 112.519 0 118.662 0C124.804 0 129.795 4.99089 129.795 11.1335C129.795 17.2762 124.804 22.2671 118.662 22.2671C107.982 22.2671 102.886 24.1168 102.886 37.1001C102.886 50.0834 107.109 53.783 118.662 53.783C131.645 53.783 134.437 47.8498 134.437 37.1001C134.437 30.9575 139.428 25.9666 145.571 25.9666C151.713 25.9666 156.704 30.9575 156.704 37.1001C156.704 43.2428 151.713 48.2337 145.571 48.2337C134.018 48.2337 129.795 52.5614 129.795 64.9165C129.795 71.0592 124.804 76.0501 118.662 76.0501C112.519 76.0501 107.528 71.0592 107.528 64.9165C107.528 54.1669 104.771 48.2337 91.7527 48.2337C80.2004 48.2337 76.0122 52.5614 76.0122 64.9165C76.0122 71.0592 71.0213 76.0501 64.8787 76.0501C58.736 76.0501 53.7451 71.0592 53.7451 64.9165C53.7451 52.5614 49.5221 48.2337 38.0046 48.2337C31.862 48.2337 26.8711 43.2428 26.8711 37.1001C26.8711 30.9575 31.862 25.9666 38.0046 25.9666C44.1473 25.9666 49.1382 30.9575 49.1382 37.1001C49.1382 47.8498 51.8954 53.783 64.8787 53.783C77.862 53.783 80.6541 47.8498 80.6541 37.1001C80.6541 24.1168 75.5585 22.2671 64.8787 22.2671C58.736 22.2671 53.7451 17.2762 53.7451 11.1335C53.7451 4.99089 58.736 0 64.8787 0C71.0213 0 76.0122 4.99089 76.0122 11.1335C76.0122 22.7906 79.5721 25.9666 91.7527 25.9666C103.933 25.9666 107.528 22.7906 107.528 11.1335Z" fill="white"/>
<path fill-rule="evenodd" clip-rule="evenodd" d="M91.9656 81.4944C98.1082 81.4944 103.099 86.4853 103.099 92.628C103.099 98.7706 98.1082 103.761 91.9656 103.761C85.8229 103.761 80.832 98.7706 80.832 92.628C80.832 86.4853 85.8229 81.4944 91.9656 81.4944ZM172.623 108.368C178.765 108.368 183.756 113.359 183.756 119.502C183.756 125.645 178.765 130.636 172.623 130.636C166.48 130.636 161.489 125.645 161.489 119.502C161.489 108.822 159.639 103.727 146.656 103.727C133.673 103.727 129.973 107.95 129.973 119.502C129.973 132.485 135.906 135.277 146.656 135.277C152.799 135.277 157.79 140.268 157.79 146.411C157.79 152.554 152.799 157.544 146.656 157.544C140.513 157.544 135.522 152.554 135.522 146.411C135.522 134.859 131.195 130.636 118.84 130.636C112.697 130.636 107.706 125.645 107.706 119.502C107.706 113.359 112.697 108.368 118.84 108.368C129.589 108.368 135.522 105.611 135.522 92.593C135.522 81.0407 131.195 76.8525 118.84 76.8525C112.697 76.8525 107.706 71.8616 107.706 65.719C107.706 59.5764 112.697 54.5855 118.84 54.5855C131.195 54.5855 135.522 50.3624 135.522 38.845C135.522 32.7023 140.513 27.7114 146.656 27.7114C152.799 27.7114 157.79 32.7023 157.79 38.845C157.79 44.9876 152.799 49.9785 146.656 49.9785C135.906 49.9785 129.973 52.7357 129.973 65.719C129.973 78.7023 135.906 81.4944 146.656 81.4944C159.639 81.4944 161.489 76.3988 161.489 65.719C161.489 59.5764 166.48 54.5855 172.623 54.5855C178.765 54.5855 183.756 59.5764 183.756 65.719C183.756 71.8616 178.765 76.8525 172.623 76.8525C160.966 76.8525 157.79 80.4125 157.79 92.593C157.79 104.774 160.966 108.368 172.623 108.368Z" fill="white"/>
<path fill-rule="evenodd" clip-rule="evenodd" d="M91.7557 103.728C85.613 103.728 80.6221 98.7367 80.6221 92.594C80.6221 86.4514 85.613 81.4605 91.7557 81.4605C97.8983 81.4605 102.889 86.4514 102.889 92.594C102.889 98.7367 97.8983 103.728 91.7557 103.728ZM11.1335 76.8535C4.99089 76.8535 0 71.8626 0 65.72C0 59.5773 4.99089 54.5864 11.1335 54.5864C17.2762 54.5864 22.2671 59.5773 22.2671 65.72C22.2671 76.3998 24.1168 81.4954 37.1001 81.4954C50.0834 81.4954 53.783 77.2723 53.783 65.72C53.783 52.7367 47.8498 49.9446 37.1001 49.9446C30.9575 49.9446 25.9666 44.9537 25.9666 38.811C25.9666 32.6684 30.9575 27.6775 37.1001 27.6775C43.2428 27.6775 48.2337 32.6684 48.2337 38.811C48.2337 50.3634 52.5614 54.5864 64.9165 54.5864C71.0592 54.5864 76.0501 59.5773 76.0501 65.72C76.0501 71.8626 71.0592 76.8535 64.9165 76.8535C54.1669 76.8535 48.2337 79.6107 48.2337 92.6289C48.2337 104.181 52.5614 108.369 64.9165 108.369C71.0592 108.369 76.0501 113.36 76.0501 119.503C76.0501 125.646 71.0592 130.636 64.9165 130.636C52.5614 130.636 48.2337 134.86 48.2337 146.377C48.2337 152.52 43.2428 157.511 37.1001 157.511C30.9575 157.511 25.9666 152.52 25.9666 146.377C25.9666 140.234 30.9575 135.243 37.1001 135.243C47.8498 135.243 53.783 132.486 53.783 119.503C53.783 106.52 47.8498 103.728 37.1001 103.728C24.1168 103.728 22.2671 108.823 22.2671 119.503C22.2671 125.646 17.2762 130.636 11.1335 130.636C4.99089 130.636 0 125.646 0 119.503C0 113.36 4.99089 108.369 11.1335 108.369C22.7906 108.369 25.9666 104.809 25.9666 92.6289C25.9666 80.4483 22.7906 76.8535 11.1335 76.8535Z" fill="white"/>
<path fill-rule="evenodd" clip-rule="evenodd" d="M91.7546 103.726C85.612 103.726 80.6211 98.7354 80.6211 92.5928C80.6211 86.4501 85.612 81.4592 91.7546 81.4592C97.8973 81.4592 102.888 86.4501 102.888 92.5928C102.888 98.7354 97.8973 103.726 91.7546 103.726Z" fill="white"/>
</svg>
