<svg width="210" height="40" viewBox="0 0 210 40" fill="none" xmlns="http://www.w3.org/2000/svg">
<path d="M20.013 0L24.5062 13.528H39.0465L27.2831 21.8888L31.7763 35.4168L20.013 27.056L8.24965 35.4168L12.7428 21.8888L0.979506 13.528H15.5198L20.013 0Z" fill="#FFD300"/>
<path d="M62.6495 0L67.1427 13.528H81.6829L69.9196 21.8888L74.4128 35.4168L62.6495 27.056L50.8861 35.4168L55.3793 21.8888L43.616 13.528H58.1563L62.6495 0Z" fill="#FFD300"/>
<path d="M104.851 0L109.246 13.528H123.47L111.963 21.8888L116.358 35.4168L104.851 27.056L93.343 35.4168L97.7385 21.8888L86.2309 13.528H100.455L104.851 0Z" fill="#FFD300"/>
<path d="M147.052 0L151.545 13.528H166.086L154.322 21.8888L158.815 35.4168L147.052 27.056L135.289 35.4168L139.782 21.8888L128.019 13.528H142.559L147.052 0Z" fill="#FFD300"/>
<path d="M189.688 0L194.181 13.528H208.722L196.958 21.8888L201.452 35.4168L189.688 27.056L177.925 35.4168L182.418 21.8888L170.655 13.528H185.195L189.688 0Z" fill="#FFD300"/>
</svg>
