<svg width="12" height="20" viewBox="0 0 12 20" fill="none" xmlns="http://www.w3.org/2000/svg">
<path d="M11.0049 20C10.9137 20 10.8063 19.9772 10.6826 19.9316C10.5589 19.8861 10.4515 19.8177 10.3604 19.7266L0.360352 10.5469C0.269206 10.4557 0.200846 10.3483 0.155273 10.2246C0.109701 10.1009 0.0869141 9.99349 0.0869141 9.90234C0.0869141 9.8112 0.109701 9.70703 0.155273 9.58984C0.200846 9.47266 0.269206 9.36849 0.360352 9.27734L10.1846 0.273438C10.3669 0.0911465 10.5785 0.0162754 10.8193 0.0488281C11.0602 0.0813808 11.2718 0.188803 11.4541 0.371094C11.6364 0.553385 11.7113 0.764975 11.6787 1.00586C11.6462 1.24674 11.5387 1.45833 11.3564 1.64062L2.27441 10L11.5322 18.5547C11.7145 18.724 11.8122 18.9323 11.8252 19.1797C11.8382 19.4271 11.7731 19.6419 11.6299 19.8242C11.5387 19.8633 11.4443 19.9023 11.3467 19.9414C11.249 19.9805 11.1351 20 11.0049 20Z" fill="#46B3B7"/>
</svg>
