<svg width="60" height="60" viewBox="0 0 60 60" fill="none" xmlns="http://www.w3.org/2000/svg">
<rect width="60" height="60" rx="16" fill="#67BEC1" fill-opacity="0.2"/>
<path d="M35.0049 40C34.9137 40 34.8063 39.9772 34.6826 39.9316C34.5589 39.8861 34.4515 39.8177 34.3604 39.7266L24.3604 30.5469C24.2692 30.4557 24.2008 30.3483 24.1553 30.2246C24.1097 30.1009 24.0869 29.9935 24.0869 29.9023C24.0869 29.8112 24.1097 29.707 24.1553 29.5898C24.2008 29.4727 24.2692 29.3685 24.3604 29.2773L34.1846 20.2734C34.3669 20.0911 34.5785 20.0163 34.8193 20.0488C35.0602 20.0814 35.2718 20.1888 35.4541 20.3711C35.6364 20.5534 35.7113 20.765 35.6787 21.0059C35.6462 21.2467 35.5387 21.4583 35.3564 21.6406L26.2744 30L35.5322 38.5547C35.7145 38.724 35.8122 38.9323 35.8252 39.1797C35.8382 39.4271 35.7731 39.6419 35.6299 39.8242C35.5387 39.8633 35.4443 39.9023 35.3467 39.9414C35.249 39.9805 35.1351 40 35.0049 40Z" fill="#67BEC1"/>
</svg>
