<svg width="221" height="53" viewBox="0 0 221 53" fill="none" xmlns="http://www.w3.org/2000/svg">
<path fill-rule="evenodd" clip-rule="evenodd" d="M29.4799 26.42C29.4799 28.18 28.0499 29.61 26.2899 29.61C24.5299 29.61 23.0999 28.18 23.0999 26.42C23.0999 24.66 24.5299 23.23 26.2899 23.23C28.0499 23.23 29.4799 24.66 29.4799 26.42ZM21.7799 49.53C21.7799 51.29 20.3499 52.72 18.5899 52.72C16.8299 52.72 15.3999 51.29 15.3999 49.53C15.3999 47.77 16.8299 46.34 18.5899 46.34C21.6499 46.34 23.1099 45.81 23.1099 42.09C23.1099 38.37 21.8999 37.31 18.5899 37.31C14.8699 37.31 14.0699 39.01 14.0699 42.09C14.0699 43.85 12.6399 45.28 10.8799 45.28C9.11994 45.28 7.68994 43.85 7.68994 42.09C7.68994 40.33 9.11994 38.9 10.8799 38.9C14.1899 38.9 15.3999 37.66 15.3999 34.12C15.3999 32.36 16.8299 30.93 18.5899 30.93C20.3499 30.93 21.7799 32.36 21.7799 34.12C21.7799 37.2 22.5699 38.9 26.2999 38.9C29.6099 38.9 30.8099 37.66 30.8099 34.12C30.8099 32.36 32.2399 30.93 33.9999 30.93C35.7599 30.93 37.1899 32.36 37.1899 34.12C37.1899 37.66 38.3999 38.9 41.6999 38.9C43.4599 38.9 44.8899 40.33 44.8899 42.09C44.8899 43.85 43.4599 45.28 41.6999 45.28C39.9399 45.28 38.5099 43.85 38.5099 42.09C38.5099 39.01 37.7199 37.31 33.9999 37.31C30.2799 37.31 29.4799 39.01 29.4799 42.09C29.4799 45.81 30.9399 46.34 33.9999 46.34C35.7599 46.34 37.1899 47.77 37.1899 49.53C37.1899 51.29 35.7599 52.72 33.9999 52.72C32.2399 52.72 30.8099 51.29 30.8099 49.53C30.8099 46.19 29.7899 45.28 26.2999 45.28C22.8099 45.28 21.7799 46.19 21.7799 49.53Z" fill="#67BEC1"/>
<path fill-rule="evenodd" clip-rule="evenodd" d="M23.11 26.29C23.11 24.53 24.5399 23.1 26.2999 23.1C28.0599 23.1 29.49 24.53 29.49 26.29C29.49 28.05 28.0599 29.48 26.2999 29.48C24.5399 29.48 23.11 28.05 23.11 26.29ZM30.81 3.19C30.81 1.43 32.24 0 34 0C35.76 0 37.1899 1.43 37.1899 3.19C37.1899 4.95 35.76 6.38 34 6.38C30.94 6.38 29.4799 6.91 29.4799 10.63C29.4799 14.35 30.69 15.41 34 15.41C37.7199 15.41 38.52 13.71 38.52 10.63C38.52 8.87 39.95 7.44 41.7099 7.44C43.4699 7.44 44.9 8.87 44.9 10.63C44.9 12.39 43.4699 13.82 41.7099 13.82C38.4 13.82 37.1899 15.06 37.1899 18.6C37.1899 20.36 35.76 21.79 34 21.79C32.24 21.79 30.81 20.36 30.81 18.6C30.81 15.52 30.02 13.82 26.29 13.82C22.98 13.82 21.78 15.06 21.78 18.6C21.78 20.36 20.35 21.79 18.59 21.79C16.83 21.79 15.4 20.36 15.4 18.6C15.4 15.06 14.19 13.82 10.89 13.82C9.12995 13.82 7.69995 12.39 7.69995 10.63C7.69995 8.87 9.12995 7.44 10.89 7.44C12.65 7.44 14.08 8.87 14.08 10.63C14.08 13.71 14.87 15.41 18.59 15.41C22.31 15.41 23.11 13.71 23.11 10.63C23.11 6.91 21.65 6.38 18.59 6.38C16.83 6.38 15.4 4.95 15.4 3.19C15.4 1.43 16.83 0 18.59 0C20.35 0 21.78 1.43 21.78 3.19C21.78 6.53 22.8 7.44 26.29 7.44C29.78 7.44 30.81 6.53 30.81 3.19Z" fill="#67BEC1"/>
<path fill-rule="evenodd" clip-rule="evenodd" d="M26.3499 23.35C28.1099 23.35 29.5399 24.78 29.5399 26.54C29.5399 28.3 28.1099 29.73 26.3499 29.73C24.5899 29.73 23.1599 28.3 23.1599 26.54C23.1599 24.78 24.5899 23.35 26.3499 23.35ZM49.4599 31.05C51.2199 31.05 52.6499 32.48 52.6499 34.24C52.6499 36 51.2199 37.43 49.4599 37.43C47.6999 37.43 46.2699 36 46.2699 34.24C46.2699 31.18 45.7399 29.72 42.0199 29.72C38.2999 29.72 37.2399 30.93 37.2399 34.24C37.2399 37.96 38.9399 38.76 42.0199 38.76C43.7799 38.76 45.2099 40.19 45.2099 41.95C45.2099 43.71 43.7799 45.14 42.0199 45.14C40.2599 45.14 38.8299 43.71 38.8299 41.95C38.8299 38.64 37.5899 37.43 34.0499 37.43C32.2899 37.43 30.8599 36 30.8599 34.24C30.8599 32.48 32.2899 31.05 34.0499 31.05C37.1299 31.05 38.8299 30.26 38.8299 26.53C38.8299 23.22 37.5899 22.02 34.0499 22.02C32.2899 22.02 30.8599 20.59 30.8599 18.83C30.8599 17.07 32.2899 15.64 34.0499 15.64C37.5899 15.64 38.8299 14.43 38.8299 11.13C38.8299 9.37 40.2599 7.94 42.0199 7.94C43.7799 7.94 45.2099 9.37 45.2099 11.13C45.2099 12.89 43.7799 14.32 42.0199 14.32C38.9399 14.32 37.2399 15.11 37.2399 18.83C37.2399 22.55 38.9399 23.35 42.0199 23.35C45.7399 23.35 46.2699 21.89 46.2699 18.83C46.2699 17.07 47.6999 15.64 49.4599 15.64C51.2199 15.64 52.6499 17.07 52.6499 18.83C52.6499 20.59 51.2199 22.02 49.4599 22.02C46.1199 22.02 45.2099 23.04 45.2099 26.53C45.2099 30.02 46.1199 31.05 49.4599 31.05Z" fill="#67BEC1"/>
<path fill-rule="evenodd" clip-rule="evenodd" d="M26.29 29.72C24.53 29.72 23.1 28.29 23.1 26.53C23.1 24.77 24.53 23.34 26.29 23.34C28.05 23.34 29.48 24.77 29.48 26.53C29.48 28.29 28.05 29.72 26.29 29.72ZM3.19 22.02C1.43 22.02 0 20.59 0 18.83C0 17.07 1.43 15.64 3.19 15.64C4.95 15.64 6.38 17.07 6.38 18.83C6.38 21.89 6.91 23.35 10.63 23.35C14.35 23.35 15.41 22.14 15.41 18.83C15.41 15.11 13.71 14.31 10.63 14.31C8.87 14.31 7.44 12.88 7.44 11.12C7.44 9.36 8.87 7.93 10.63 7.93C12.39 7.93 13.82 9.36 13.82 11.12C13.82 14.43 15.06 15.64 18.6 15.64C20.36 15.64 21.79 17.07 21.79 18.83C21.79 20.59 20.36 22.02 18.6 22.02C15.52 22.02 13.82 22.81 13.82 26.54C13.82 29.85 15.06 31.05 18.6 31.05C20.36 31.05 21.79 32.48 21.79 34.24C21.79 36 20.36 37.43 18.6 37.43C15.06 37.43 13.82 38.64 13.82 41.94C13.82 43.7 12.39 45.13 10.63 45.13C8.87 45.13 7.44 43.7 7.44 41.94C7.44 40.18 8.87 38.75 10.63 38.75C13.71 38.75 15.41 37.96 15.41 34.24C15.41 30.52 13.71 29.72 10.63 29.72C6.91 29.72 6.38 31.18 6.38 34.24C6.38 36 4.95 37.43 3.19 37.43C1.43 37.43 0 36 0 34.24C0 32.48 1.43 31.05 3.19 31.05C6.53 31.05 7.44 30.03 7.44 26.54C7.44 23.05 6.53 22.02 3.19 22.02Z" fill="#67BEC1"/>
<path fill-rule="evenodd" clip-rule="evenodd" d="M26.2901 29.72C24.5301 29.72 23.1001 28.29 23.1001 26.53C23.1001 24.77 24.5301 23.34 26.2901 23.34C28.0501 23.34 29.4801 24.77 29.4801 26.53C29.4801 28.29 28.0501 29.72 26.2901 29.72Z" fill="#67BEC1"/>
<path d="M65.8701 39.34H67.2501L68.9701 44.52L70.7101 39.34H72.0901L73.3401 46.77H71.9701L71.1701 42.08L69.5901 46.77H68.3401L66.7801 42.08L65.9601 46.77H64.5801L65.8701 39.34Z" fill="#ADACAC"/>
<path d="M77.1602 39.34H81.2202V40.72H78.5702V42.06H81.2202V43.42H78.5702V45.37H81.2202V46.76H77.1602V39.33V39.34Z" fill="#ADACAC"/>
<path d="M87.6402 39.34H89.0702L91.4602 45.44H92.2902V47.88H90.9202V46.77H85.8102V47.88H84.4402V45.44H85.2602L87.6402 39.34ZM88.3702 41.31L86.7402 45.44H89.9902L88.3702 41.31Z" fill="#ADACAC"/>
<path d="M101.3 39.34V46.77H99.8901V42.12L97.1201 46.77H95.8901V39.34H97.3001V44.14L100.11 39.34H101.3Z" fill="#ADACAC"/>
<path d="M105.68 46.77V39.34H107.11V45.5H109.6V39.34H111.03V45.5H112.54V47.88H111.22V46.77H105.68Z" fill="#ADACAC"/>
<path d="M121.55 39.34V46.77H120.14V42.12L117.37 46.77H116.14V39.34H117.55V44.14L120.36 39.34H121.55Z" fill="#ADACAC"/>
<path d="M125.93 39.34H127.36V42.14H129.84V39.34H131.27V46.77H129.84V43.51H127.36V46.77H125.93V39.34Z" fill="#ADACAC"/>
<path d="M142.49 40.64L141.5 41.58C140.83 40.87 140.07 40.51 139.23 40.51C138.52 40.51 137.92 40.75 137.44 41.24C136.95 41.73 136.71 42.32 136.71 43.03C136.71 43.53 136.82 43.97 137.03 44.35C137.24 44.73 137.55 45.04 137.94 45.26C138.33 45.48 138.77 45.59 139.25 45.59C139.66 45.59 140.04 45.51 140.38 45.36C140.72 45.21 141.09 44.93 141.5 44.52L142.46 45.52C141.91 46.06 141.39 46.43 140.9 46.63C140.41 46.83 139.85 46.94 139.23 46.94C138.07 46.94 137.13 46.57 136.39 45.84C135.65 45.11 135.29 44.17 135.29 43.02C135.29 42.28 135.46 41.62 135.79 41.04C136.13 40.46 136.61 40 137.23 39.65C137.85 39.3 138.53 39.12 139.25 39.12C139.86 39.12 140.45 39.25 141.02 39.51C141.59 39.77 142.08 40.14 142.49 40.61V40.64Z" fill="#ADACAC"/>
<path d="M146.43 39.34H147.86V41.9L149.88 39.34H151.58L148.99 42.66L151.84 46.77H150.16L147.87 43.47V46.77H146.44V39.34H146.43Z" fill="#ADACAC"/>
<path d="M160.93 39.34V46.77H159.52V42.12L156.75 46.77H155.52V39.34H156.93V44.14L159.74 39.34H160.93Z" fill="#ADACAC"/>
<path d="M170.73 39.34V46.77H169.32V42.12L166.55 46.77H165.32V39.34H166.73V44.14L169.54 39.34H170.73ZM166 37.34H167.12C167.21 37.48 167.33 37.58 167.49 37.65C167.65 37.72 167.84 37.75 168.06 37.75C168.28 37.75 168.5 37.71 168.68 37.63C168.8 37.58 168.91 37.48 169 37.34H170.12C170.06 37.77 169.85 38.11 169.51 38.37C169.16 38.63 168.68 38.76 168.06 38.76C167.64 38.76 167.29 38.7 167.01 38.59C166.73 38.47 166.5 38.31 166.33 38.09C166.16 37.87 166.05 37.63 166.01 37.34H166Z" fill="#ADACAC"/>
<path d="M180.7 46.77V39.34H182.13V45.5H184.62V39.34H186.05V45.5H187.56V47.88H186.24V46.77H180.7Z" fill="#ADACAC"/>
<path d="M191.16 39.34H195.22V40.72H192.57V42.06H195.22V43.42H192.57V45.37H195.22V46.76H191.16V39.33V39.34Z" fill="#ADACAC"/>
<path d="M199.22 39.34H200.65V42.14H203.13V39.34H204.56V46.77H203.13V43.51H200.65V46.77H199.22V39.34Z" fill="#ADACAC"/>
<path d="M208.22 39.34H212.33V40.73H210.98V46.77H209.55V40.73H208.23V39.34H208.22Z" fill="#ADACAC"/>
<path d="M215.98 39.34H217.48C218.29 39.34 218.88 39.41 219.24 39.56C219.6 39.71 219.88 39.95 220.09 40.29C220.3 40.63 220.4 41.03 220.4 41.49C220.4 42.01 220.26 42.44 219.99 42.78C219.72 43.12 219.35 43.36 218.89 43.5C218.62 43.58 218.12 43.62 217.4 43.62V46.77H215.99V39.34H215.98ZM217.39 42.24H217.84C218.19 42.24 218.44 42.21 218.58 42.16C218.72 42.11 218.83 42.03 218.91 41.91C218.99 41.79 219.03 41.65 219.03 41.49C219.03 41.2 218.92 40.99 218.7 40.86C218.54 40.76 218.24 40.71 217.8 40.71H217.4V42.24H217.39Z" fill="#ADACAC"/>
<path d="M65.55 32.87V9.48H69.23C71.36 9.48 72.92 9.62 73.91 9.89C75.31 10.26 76.43 10.95 77.25 11.96C78.08 12.97 78.49 14.15 78.49 15.52C78.49 16.41 78.3 17.22 77.93 17.94C77.55 18.67 76.94 19.35 76.09 19.98C77.51 20.65 78.55 21.48 79.21 22.48C79.87 23.48 80.2 24.67 80.2 26.03C80.2 27.39 79.86 28.54 79.18 29.62C78.5 30.7 77.63 31.51 76.55 32.05C75.47 32.59 74 32.85 72.11 32.85H65.55V32.87ZM70 13.72V18.65H70.97C72.06 18.65 72.86 18.42 73.39 17.97C73.92 17.51 74.18 16.89 74.18 16.11C74.18 15.38 73.93 14.8 73.43 14.37C72.93 13.94 72.17 13.73 71.15 13.73H70V13.72ZM70 22.63V28.63H71.12C72.97 28.63 74.22 28.4 74.86 27.93C75.5 27.46 75.83 26.78 75.83 25.89C75.83 24.88 75.45 24.09 74.7 23.5C73.95 22.91 72.69 22.63 70.94 22.63H70.01H70Z" fill="#67BEC1"/>
<path d="M85.96 9.48H98.73V13.84H90.38V18.07H98.73V22.35H90.38V28.5H98.73V32.87H85.96V9.48Z" fill="#67BEC1"/>
<path d="M115.13 28.86V9.48H119.61V28.86H125.97V9.48H130.49V32.87H104.36V9.48H108.88V28.86H115.13Z" fill="#67BEC1"/>
<path d="M137.28 9.48H141.8V18.31H149.61V9.48H154.11V32.87H149.61V22.61H141.8V32.87H137.28V9.48Z" fill="#67BEC1"/>
<path d="M174.72 9.48V32.87H170.27V23.46H169.16L164.46 32.87H159.59L164.88 22.73C161.81 21.85 160.28 19.8 160.28 16.59C160.28 15.44 160.44 14.45 160.76 13.6C161.08 12.75 161.54 12.03 162.14 11.44C162.74 10.85 163.43 10.42 164.22 10.14C165.01 9.86 165.64 9.7 166.1 9.65C166.57 9.61 167.86 9.55 169.99 9.48H174.71H174.72ZM170.27 19.12V13.84H169.05C167.94 13.84 167.14 13.91 166.66 14.04C166.17 14.17 165.78 14.46 165.47 14.9C165.16 15.34 165.01 15.88 165.01 16.53C165.01 17.49 165.32 18.17 165.93 18.55C166.54 18.93 167.53 19.12 168.88 19.12H170.28H170.27Z" fill="#67BEC1"/>
<path d="M181.59 9.48H186.09V17.54L192.44 9.48H197.79L189.62 19.92L198.58 32.87H193.3L186.09 22.48V32.87H181.59V9.48Z" fill="#67BEC1"/>
<path d="M220.28 9.48V32.87H215.83V18.22L207.11 32.87H203.24V9.48H207.69V24.6L216.53 9.48H220.28Z" fill="#67BEC1"/>
</svg>
