<svg width="24" height="17" viewBox="0 0 24 17" fill="none" xmlns="http://www.w3.org/2000/svg">
<path d="M7.57068 0.39946C7.51414 0.53768 6.15079 3.97433 4.53613 8.03297L1.60209 15.4152L0.797906 15.434L0 15.4529V16.0749V16.7031H4.30367H8.60733V16.0749V15.4529L7.77173 15.434L6.93613 15.4152L7.76545 13.0906C8.22408 11.8089 8.60733 10.7471 8.61989 10.722C8.63246 10.6968 9.4178 12.0225 10.3665 13.6623C11.3152 15.3021 12.1068 16.6403 12.1257 16.6403C12.1445 16.634 12.8921 15.3084 13.7906 13.6874C14.689 12.0602 15.4366 10.7345 15.4555 10.7345C15.4806 10.7345 16.6681 13.9953 17.1393 15.3649C17.1581 15.4277 16.9696 15.4466 16.3099 15.4466H15.4555V16.0749V16.7031H19.7277H24V16.0749V15.4466H23.2649H22.5236L19.5644 7.82564C17.6356 2.84972 16.5801 0.204695 16.5173 0.192129C16.4482 0.179565 15.8073 1.38585 14.2995 4.33873C13.1309 6.63192 12.1571 8.52302 12.1319 8.54815C12.1131 8.567 11.2775 7.02145 10.2723 5.09894C9.2733 3.18271 8.27435 1.28532 8.06073 0.883229L7.6712 0.148151L7.57068 0.39946Z" fill="#67BEC1" fill-opacity="0.2"/>
</svg>
