<svg width="272" height="73" viewBox="0 0 272 73" fill="none" xmlns="http://www.w3.org/2000/svg">
<path d="M69.643 58.4258H57.9553V70.2452H69.643V58.4258Z" fill="#CFD600"/>
<g style="mix-blend-mode:multiply">
<path d="M17.7389 17.133C14.8809 17.133 13.4392 18.6438 13.4392 20.7487C13.4392 21.814 13.7828 22.7774 14.4157 23.4479C15.1742 24.2161 16.201 24.5852 17.7389 24.5852C19.2769 24.5852 20.136 24.2161 21.0413 23.2993V24.4367H23.4844V16.0465C23.4844 13.2243 21.7997 11.7432 18.3802 11.7432C16.3015 11.7432 15.1071 12.1888 13.9547 13.5723L15.5681 15.1298C16.2763 14.2386 16.9595 13.8906 18.2796 13.8906C20.2324 13.8906 20.9909 14.6332 20.9909 16.2417V17.133H17.7389ZM20.9909 19.9042C20.9909 20.7954 20.8442 21.3896 20.4545 21.7589C19.7923 22.3784 19.0842 22.4761 18.2041 22.4761C16.5698 22.4761 15.8573 21.8564 15.8573 20.6936C15.8573 19.5307 16.6158 18.8857 18.1329 18.8857H20.9909V19.9V19.9042Z" fill="#0F172A"/>
<path d="M27.3157 6.81088V24.4317H29.7589V23.0948C30.6893 24.2321 31.7159 24.5802 33.0319 24.5802C34.2807 24.5802 35.3787 24.1601 36.0618 23.4639C37.2604 22.229 37.4532 20.2216 37.4532 18.1421C37.4532 16.0626 37.2604 14.085 36.0618 12.8457C35.3787 12.154 34.3016 11.7338 33.057 11.7338C31.737 11.7338 30.7102 12.0564 29.8091 13.1428V6.80664H27.3157V6.81088ZM32.399 13.9873C34.6453 13.9873 34.9638 15.9184 34.9638 18.1464C34.9638 20.3744 34.6453 22.3309 32.399 22.3309C30.1528 22.3309 29.8091 20.3744 29.8091 18.1464C29.8091 15.9184 30.1236 13.9873 32.399 13.9873Z" fill="#0F172A"/>
<path d="M10.7535 28.6418C9.63036 27.5045 8.1636 26.8594 6.2568 26.8594C4.35001 26.8594 2.88324 27.5045 1.76012 28.6418C0.0502894 30.3733 0 32.1304 0 35.8183C0 39.5063 0.0502894 41.2632 1.76012 42.9947C2.88324 44.1321 4.35001 44.7772 6.2568 44.7772C7.69842 44.7772 8.94308 44.3825 9.89857 43.6907L11.6335 45.4223L13.0961 43.9623L11.3863 42.252C12.4591 40.72 12.5094 39.0097 12.5094 35.8183C12.5094 32.1304 12.4591 30.3733 10.7493 28.6418M9.35796 40.198L7.67327 38.4665L6.20651 39.9519L8.06301 41.8107C7.5266 42.2308 6.91474 42.4048 6.2568 42.4048C5.20492 42.4048 4.32486 41.9847 3.66691 41.2887C2.78686 40.3507 2.64017 39.3111 2.64017 35.8183C2.64017 32.3256 2.78686 31.2646 3.66691 30.3267C4.32905 29.6349 5.20492 29.236 6.2568 29.236C7.30868 29.236 8.18873 29.6349 8.84668 30.3267C9.72675 31.2646 9.87342 32.3298 9.87342 35.8183C9.87342 38.093 9.82313 39.2814 9.36214 40.198" fill="#0F172A"/>
<path d="M26.0497 44.6332V32.084H23.5561V39.7315C23.5561 41.6624 22.3828 42.5282 20.9872 42.5282C19.5918 42.5282 18.4937 41.6879 18.4937 39.7315V32.084H16.0002V40.1049C16.0002 41.5139 16.2936 42.7022 17.2491 43.6443C17.9825 44.3616 19.0344 44.7817 20.3041 44.7817C21.574 44.7817 22.7474 44.3107 23.6023 43.3685V44.6332H26.0456H26.0497Z" fill="#0F172A"/>
<path d="M39.879 38.0252C39.879 34.3628 37.9471 31.9395 34.6238 31.9395C31.3005 31.9395 29.3687 34.2651 29.3687 38.3478C29.3687 43.1264 31.837 44.7815 34.9381 44.7815C37.1131 44.7815 38.3117 44.111 39.5815 42.8251L37.9931 41.3184C37.1131 42.2097 36.3797 42.6043 34.9884 42.6043C32.9349 42.6043 31.837 41.2676 31.837 39.0904H39.8748V38.0252H39.879ZM31.8412 37.3335C31.8663 36.5653 31.9167 36.1706 32.1596 35.6273C32.5746 34.6895 33.4295 34.0445 34.628 34.0445C35.8266 34.0445 36.6563 34.6895 37.0713 35.6273C37.3143 36.1706 37.3646 36.5653 37.4106 37.3335H31.8412Z" fill="#0F172A"/>
<path d="M47.1832 42.6263C45.9637 42.6263 44.6185 42.3547 43.6168 41.3149L41.9783 42.9742C43.4451 44.4342 45.155 44.7821 47.1832 44.7821C50.1419 44.7821 52.3378 43.4199 52.3378 40.7971C52.3378 38.5945 50.9926 37.4572 48.4279 37.2323L46.6929 37.0837C45.4692 36.9607 44.9831 36.5151 44.9831 35.6493C44.9831 34.6859 45.7165 34.0408 47.2293 34.0408C48.4028 34.0408 49.5007 34.2869 50.2843 34.9533L51.8475 33.3448C50.6993 32.3305 49.1361 31.9316 47.2545 31.9316C44.6645 31.9316 42.586 33.2938 42.586 35.7681C42.586 37.9707 43.9061 39.0104 46.2529 39.2354L48.2309 39.4093C49.4295 39.5325 49.8946 40.029 49.8946 40.8948C49.8946 42.083 48.7212 42.6263 47.1832 42.6263Z" fill="#0F172A"/>
<path d="M60.3054 34.015V32.084H57.9125V28.4978H57.9083V0H0.641641V6.80724H0.637451V24.428H11.6591V22.0259H3.27762V6.80724H3.27344V2.66093H55.4232V28.6974V32.0798H54.0067V34.0107H55.4232V41.1405C55.4232 42.9484 56.496 44.629 58.8218 44.629H60.3096V42.4773H59.2828C58.3525 42.4773 57.9125 41.9341 57.9125 41.0175V34.015H60.3054Z" fill="#0F172A"/>
<path d="M55.3939 55.7482H3.2651V46.3945H0.633301V58.4175H0.712926H3.2651H55.3939H57.9084V55.7482V46.3945H55.3939V55.7482Z" fill="#0F172A"/>
<path d="M95.3523 47.1459V20.613H87.6873V29.9538C87.6873 33.3235 87.4903 36.1117 87.0881 38.3228C86.69 40.5339 86.0782 42.2951 85.2526 43.6022C84.4269 44.9093 83.4002 45.8303 82.1724 46.3565C80.9445 46.8828 79.5154 47.1459 77.8809 47.1459H75.4294V41.5524H76.322C77.1225 41.5524 77.8516 41.4039 78.5054 41.1026C79.1592 40.8012 79.7291 40.2155 80.2194 39.3413C80.7097 38.4671 81.0869 37.2575 81.3551 35.7086C81.6234 34.1596 81.7574 32.1225 81.7574 29.5931V15.0195H101.496V47.1459H95.3481H95.3523Z" fill="#0F172A"/>
<path d="M120.393 47.1455V45.1169C119.886 45.6304 119.471 45.9954 119.144 46.2203C118.817 46.4453 118.431 46.649 117.987 46.8315C117.094 47.1922 115.997 47.3747 114.689 47.3747C112.196 47.3747 110.264 46.7381 108.897 45.4565C107.531 44.179 106.848 42.3796 106.848 40.0625C106.848 37.9277 107.552 36.2513 108.964 35.0292C110.377 33.8112 112.313 33.2 114.781 33.2H120.263V32.0287C120.263 30.7045 119.919 29.7582 119.24 29.1853C118.557 28.6123 117.43 28.328 115.854 28.328C115.347 28.328 114.903 28.3577 114.517 28.4172C114.132 28.4765 113.767 28.5826 113.428 28.7312C113.084 28.8839 112.765 29.0791 112.468 29.3169C112.17 29.5587 111.843 29.8728 111.487 30.2632L107.787 26.6092C108.114 26.2781 108.411 25.9938 108.679 25.752C108.948 25.51 109.191 25.3021 109.413 25.1196C109.635 24.9371 109.866 24.7801 110.104 24.6443C110.343 24.5085 110.607 24.3684 110.905 24.2157C112.212 23.6427 113.918 23.3584 116.03 23.3584C122.714 23.3584 126.054 26.1254 126.054 31.6595V47.137H120.397L120.393 47.1455ZM115.67 37.219C114.63 37.219 113.826 37.444 113.264 37.8938C112.698 38.3436 112.418 39.0057 112.418 39.88C112.418 41.6836 113.637 42.5876 116.072 42.5876C117.589 42.5876 118.662 42.2735 119.303 41.6412C119.94 41.0088 120.263 39.9563 120.263 38.4837V37.219H115.674H115.67Z" fill="#0F172A"/>
<path d="M141.602 47.417C139.879 47.417 138.295 47.1242 136.858 46.5385C135.416 45.9529 134.31 45.0277 133.539 43.763C132.856 42.6511 132.374 41.1997 132.089 39.4088C131.808 37.6178 131.666 35.6275 131.666 33.4291C131.666 30.6917 131.716 28.4213 131.82 26.6176C131.925 24.814 132.118 23.3244 132.399 22.1488C132.68 20.9775 133.061 20.0353 133.535 19.3266C134.008 18.6221 134.62 17.9643 135.362 17.3617C136.074 16.7887 136.883 16.3388 137.788 16.0079C138.693 15.6767 139.712 15.4222 140.839 15.2397C141.966 15.0572 143.232 14.9299 144.627 14.8578C146.023 14.7813 147.582 14.7432 149.304 14.7432V19.7977C148.562 19.857 147.775 19.8953 146.941 19.9123C146.107 19.9292 145.277 19.9716 144.447 20.0481C143.617 20.1244 142.8 20.2348 141.995 20.3876C141.196 20.5403 140.466 20.795 139.812 21.1557C138.744 21.7286 137.985 22.4119 137.541 23.2098C137.097 24.0076 136.875 25.128 136.875 26.571C137.319 25.79 138.077 25.1407 139.146 24.6315C140.215 24.1222 141.388 23.8633 142.666 23.8633C144.121 23.8633 145.273 24.0288 146.12 24.3599C146.966 24.6909 147.715 25.1576 148.37 25.7604C149.409 26.7237 150.159 28.0478 150.62 29.7327C151.081 31.4175 151.311 33.2678 151.311 35.2837C151.311 37.6306 151.09 39.5234 150.642 40.9706C150.197 42.4135 149.467 43.6612 148.458 44.7137C147.628 45.5879 146.622 46.2542 145.449 46.721C144.276 47.1878 142.988 47.4213 141.593 47.4213L141.602 47.417ZM141.514 42.1376C142.08 42.1376 142.599 42.0485 143.073 41.866C143.546 41.6835 143.966 41.3864 144.322 40.962C145.122 39.9689 145.524 38.1186 145.524 35.411C145.524 32.7034 145.139 31.0483 144.368 30.0849C144.041 29.635 143.634 29.3124 143.144 29.113C142.653 28.9178 142.114 28.8202 141.518 28.8202C140.922 28.8202 140.383 28.9093 139.892 29.0918C139.402 29.2743 138.978 29.5883 138.622 30.0382C138.266 30.5178 137.981 31.2054 137.776 32.0922C137.566 32.9793 137.466 34.07 137.466 35.3643C137.466 36.8072 137.579 37.9871 137.801 38.908C138.023 39.8247 138.341 40.525 138.76 41.0044C139.087 41.4247 139.49 41.7175 139.963 41.8831C140.437 42.0485 140.956 42.1292 141.522 42.1292L141.514 42.1376Z" fill="#0F172A"/>
<path d="M157.242 47.146V15.0195H163.39V30.2721L173.636 15.0195H181.032L170.384 30.0896L182.102 47.146H174.529L163.39 30.3612V47.146H157.242Z" fill="#0F172A"/>
<path d="M204.162 40.3642C204.162 42.4437 203.52 44.0946 202.247 45.3169C200.968 46.5391 199.23 47.146 197.033 47.146H185.182V23.6348H196.635C198.831 23.6348 200.578 24.2119 201.869 25.3705C203.16 26.5249 203.805 28.0951 203.805 30.0769C203.805 32.2372 202.824 33.888 200.863 35.0297C201.99 35.6322 202.824 36.358 203.357 37.2026C203.893 38.047 204.158 39.0996 204.158 40.3684L204.162 40.3642ZM190.927 27.9678V32.9332H195.247C197.121 32.9332 198.055 32.0971 198.055 30.4293C198.055 28.7614 197.121 27.9719 195.247 27.9719H190.927V27.9678ZM198.412 40.0587C198.412 39.1845 198.16 38.5181 197.653 38.0513C197.146 37.5845 196.434 37.3511 195.516 37.3511H190.927V42.813H195.516C196.438 42.813 197.15 42.5626 197.653 42.0703C198.156 41.5738 198.412 40.9033 198.412 40.0629V40.0587Z" fill="#0F172A"/>
<path d="M214.261 37.2187C214.438 40.7072 216.201 42.4514 219.55 42.4514C220.526 42.4514 221.419 42.286 222.22 41.9549C222.634 41.7766 223.004 41.5729 223.33 41.3437C223.657 41.1188 224.072 40.7497 224.574 40.2403L228.087 43.7161C227.642 44.1363 227.257 44.4928 226.93 44.7771C226.602 45.0615 226.293 45.3119 225.996 45.5197C225.697 45.732 225.396 45.9188 225.086 46.0842C224.775 46.2497 224.44 46.4068 224.085 46.5595C223.401 46.8311 222.668 47.0391 221.884 47.1918C221.101 47.3405 220.246 47.4168 219.328 47.4168C212.153 47.4168 208.57 43.3851 208.57 35.3259C208.57 33.4925 208.81 31.8375 209.282 30.3605C209.757 28.8879 210.422 27.6317 211.281 26.5919C212.14 25.5522 213.192 24.7585 214.438 24.1984C215.682 23.6425 217.089 23.3623 218.661 23.3623C220.233 23.3623 221.595 23.6254 222.839 24.1517C224.085 24.678 225.145 25.429 226.021 26.4094C226.897 27.3856 227.566 28.5695 228.045 29.9531C228.518 31.3367 228.758 32.8856 228.758 34.6002V37.2187H214.261ZM223.096 33.2039C223.008 31.5659 222.58 30.3224 221.817 29.4692C221.054 28.6205 220.002 28.1919 218.661 28.1919C217.321 28.1919 216.255 28.6248 215.481 29.4906C214.706 30.3563 214.286 31.5912 214.227 33.1997H223.096V33.2039Z" fill="#0F172A"/>
<path d="M251.034 44.2132C250.35 44.9051 249.785 45.4016 249.34 45.7028C248.897 46.0042 248.36 46.2885 247.736 46.5601C246.486 47.1331 245.046 47.4174 243.415 47.4174C240.088 47.4174 237.519 46.3649 235.708 44.2599C233.898 42.1549 232.988 39.1333 232.988 35.1907C232.988 31.4603 233.902 28.5575 235.729 26.4822C237.556 24.407 240.117 23.3672 243.415 23.3672C245.05 23.3672 246.491 23.6388 247.736 24.1778C248.36 24.4494 248.893 24.7337 249.34 25.035C249.785 25.3363 250.35 25.8329 251.034 26.5246L247.111 30.4969C246.428 29.8052 245.821 29.3256 245.284 29.054C244.748 28.7824 244.111 28.6466 243.369 28.6466C240.31 28.6466 238.78 30.8874 238.78 35.3689C238.78 39.8506 240.31 42.138 243.369 42.138C244.14 42.138 244.786 42.0022 245.305 41.7305C245.825 41.4589 246.424 40.9793 247.111 40.2876L251.034 44.2132Z" fill="#0F172A"/>
<path d="M264.935 28.8251V47.146H259.144V28.8251H252.325V23.6348H271.619V28.8251H264.935Z" fill="#0F172A"/>
</g>
<path d="M87.5142 68.8679H86.4541V59.9978H83.0785V63.3585C83.0785 67.4906 82.0742 68.8679 80.1772 68.8679H79.675V67.9313H79.9401C81.1676 67.9313 82.0463 67.1187 82.0463 63.0417V59.0612H87.5142V68.8679ZM98.2793 68.8679H97.1494L96.3544 66.6504H92.0163L91.2212 68.8679H90.0914L93.746 59.0612H94.6387L98.2793 68.8679ZM96.0475 65.7413L94.2063 60.5625L92.3371 65.7413H96.0475ZM107.603 65.9893C107.603 67.711 106.404 68.8679 104.548 68.8679H100.796V59.0612H106.989V59.9978H101.856V63.0968H104.548C106.404 63.0968 107.603 64.2538 107.603 65.9893ZM106.543 65.9893C106.543 64.7496 105.776 64.0334 104.451 64.0334H101.856V67.9313H104.451C105.776 67.9313 106.543 67.2151 106.543 65.9893ZM117.428 63.9646C117.428 66.2096 117.358 67.0636 116.424 67.9864C115.81 68.5925 114.987 68.9506 113.955 68.9506C112.923 68.9506 112.086 68.5925 111.472 67.9864C110.538 67.0636 110.482 66.2096 110.482 63.9646C110.482 61.7195 110.538 60.8655 111.472 59.9427C112.086 59.3366 112.923 58.9785 113.955 58.9785C114.987 58.9785 115.81 59.3366 116.424 59.9427C117.358 60.8655 117.428 61.7195 117.428 63.9646ZM116.368 63.9646C116.368 61.9536 116.298 61.2374 115.671 60.6038C115.21 60.1493 114.625 59.9151 113.955 59.9151C113.285 59.9151 112.7 60.1493 112.239 60.6038C111.612 61.2374 111.542 61.9536 111.542 63.9646C111.542 65.9755 111.612 66.6917 112.239 67.3253C112.7 67.7798 113.285 68.014 113.955 68.014C114.625 68.014 115.21 67.7798 115.671 67.3253C116.298 66.6917 116.368 65.9755 116.368 63.9646ZM127.672 61.9398C127.672 63.6891 126.403 64.8323 124.603 64.8323H121.967V68.8679H120.907V59.0612H124.603C126.403 59.0612 127.672 60.1906 127.672 61.9398ZM126.612 61.9398C126.612 60.6451 125.761 59.9978 124.52 59.9978H121.967V63.8957H124.52C125.761 63.8957 126.612 63.2346 126.612 61.9398ZM136.893 68.8679H135.763L134.968 66.6504H130.63L129.835 68.8679H128.705L132.36 59.0612H133.253L136.893 68.8679ZM134.661 65.7413L132.82 60.5625L130.951 65.7413H134.661ZM144.436 59.9978H141.563V68.8679H140.503V59.9978H137.629V59.0612H144.436V59.9978ZM153.563 63.9646C153.563 66.2096 153.493 67.0636 152.558 67.9864C151.945 68.5925 151.122 68.9506 150.09 68.9506C149.057 68.9506 148.22 68.5925 147.607 67.9864C146.672 67.0636 146.616 66.2096 146.616 63.9646C146.616 61.7195 146.672 60.8655 147.607 59.9427C148.22 59.3366 149.057 58.9785 150.09 58.9785C151.122 58.9785 151.945 59.3366 152.558 59.9427C153.493 60.8655 153.563 61.7195 153.563 63.9646ZM152.503 63.9646C152.503 61.9536 152.433 61.2374 151.805 60.6038C151.345 60.1493 150.759 59.9151 150.09 59.9151C149.42 59.9151 148.834 60.1493 148.374 60.6038C147.746 61.2374 147.676 61.9536 147.676 63.9646C147.676 65.9755 147.746 66.6917 148.374 67.3253C148.834 67.7798 149.42 68.014 150.09 68.014C150.759 68.014 151.345 67.7798 151.805 67.3253C152.433 66.6917 152.503 65.9755 152.503 63.9646ZM163.807 61.9398C163.807 63.6891 162.537 64.8323 160.738 64.8323H158.102V68.8679H157.042V59.0612H160.738C162.537 59.0612 163.807 60.1906 163.807 61.9398ZM162.747 61.9398C162.747 60.6451 161.896 59.9978 160.654 59.9978H158.102V63.8957H160.654C161.896 63.8957 162.747 63.2346 162.747 61.9398ZM173.918 68.8679H172.858V60.8655L167.809 68.8679H166.804V59.0612H167.864V67.0498L172.914 59.0612H173.918V68.8679ZM180.513 64.8323L178.351 68.8679H177.11L179.397 64.6808C178.086 64.364 177.263 63.3447 177.263 61.9398C177.263 60.1906 178.491 59.0612 180.332 59.0612H184.028V68.8679H182.968V64.8323H180.513ZM182.968 63.8957V59.984H180.429C179.104 59.984 178.323 60.714 178.323 61.9398C178.323 63.1657 179.104 63.8957 180.429 63.8957H182.968ZM199.139 65.9893C199.139 67.711 197.939 68.8679 196.084 68.8679H192.332V59.0612H198.525V59.9978H193.392V63.0968H196.084C197.939 63.0968 199.139 64.2538 199.139 65.9893ZM198.079 65.9893C198.079 64.7496 197.312 64.0334 195.986 64.0334H193.392V67.9313H195.986C197.312 67.9313 198.079 67.2151 198.079 65.9893ZM208.162 59.0612L204.564 67.3391C204.173 68.2344 203.601 68.8679 202.611 68.8679H201.746V67.9313H202.374C203.057 67.9313 203.392 67.6283 203.685 66.9534L204.089 66.0306L200.811 59.0612H201.941L204.619 64.8598L207.032 59.0612H208.162ZM208.794 67.9313H209.673C210.58 66.5264 210.928 64.7634 210.928 62.3668V59.0612H216.354V67.9313H217.54V71.237H216.494V68.8679H209.84V71.237H208.794V67.9313ZM210.859 67.9313H215.294V59.9978H211.933V63.0142C211.933 64.8323 211.654 66.554 210.859 67.9313ZM226.448 59.0612L222.849 67.3391C222.458 68.2344 221.886 68.8679 220.896 68.8679H220.031V67.9313H220.659C221.342 67.9313 221.677 67.6283 221.97 66.9534L222.375 66.0306L219.097 59.0612H220.227L222.905 64.8598L225.318 59.0612H226.448ZM241.19 71.237H240.144V68.8679H228.985V59.0612H230.045V67.9313H233.965V59.0612H235.039V67.9313H238.958V59.0612H240.018V67.9313H241.19V71.237ZM250.333 68.8679H244.168V59.0612H250.333V59.9978H245.228V63.4549H249.58V64.3915H245.228V67.9313H250.333V68.8679ZM259.576 59.9978H254.666V68.8679H253.606V59.0612H259.576V59.9978ZM268.997 63.9646C268.997 66.2096 268.927 67.0636 267.992 67.9864C267.379 68.5925 266.556 68.9506 265.524 68.9506C264.491 68.9506 263.654 68.5925 263.041 67.9864C262.106 67.0636 262.05 66.2096 262.05 63.9646C262.05 61.7195 262.106 60.8655 263.041 59.9427C263.654 59.3366 264.491 58.9785 265.524 58.9785C266.556 58.9785 267.379 59.3366 267.992 59.9427C268.927 60.8655 268.997 61.7195 268.997 63.9646ZM267.937 63.9646C267.937 61.9536 267.867 61.2374 267.239 60.6038C266.779 60.1493 266.193 59.9151 265.524 59.9151C264.854 59.9151 264.268 60.1493 263.808 60.6038C263.18 61.2374 263.11 61.9536 263.11 63.9646C263.11 65.9755 263.18 66.6917 263.808 67.3253C264.268 67.7798 264.854 68.014 265.524 68.014C266.193 68.014 266.779 67.7798 267.239 67.3253C267.867 66.6917 267.937 65.9755 267.937 63.9646Z" fill="#0F172A"/>
</svg>
