<svg width="282" height="64" viewBox="0 0 282 64" fill="none" xmlns="http://www.w3.org/2000/svg">
<path d="M20.6614 45.5108C20.6614 46.933 19.5446 48.213 18.0089 48.213C16.6129 48.213 15.3564 47.0753 15.3564 45.5108C15.3564 44.0886 16.4733 42.8086 18.0089 42.8086C19.405 42.8086 20.6614 44.0886 20.6614 45.5108Z" fill="#EE7326"/>
<path d="M12.4248 38.8269C12.4248 41.9558 9.91188 44.3736 6.9802 44.3736C3.90891 44.3736 1.53564 41.8136 1.53564 38.8269C1.53564 35.6981 4.04852 33.2803 6.9802 33.2803C9.91188 33.2803 12.4248 35.6981 12.4248 38.8269Z" fill="#E40521"/>
<path d="M16.4732 26.8801C16.4732 28.729 14.9376 30.2935 13.1227 30.2935C11.3079 30.2935 9.77222 28.729 9.77222 26.8801C9.77222 25.0312 11.3079 23.4668 13.1227 23.4668C14.9376 23.4668 16.4732 25.0312 16.4732 26.8801Z" fill="#00A4BF"/>
<path d="M14.2396 50.4885C14.2396 51.4841 13.4019 52.3374 12.4247 52.3374C11.4475 52.3374 10.6099 51.4841 10.6099 50.4885C10.6099 49.493 11.4475 48.6396 12.4247 48.6396C13.4019 48.6396 14.2396 49.493 14.2396 50.4885Z" fill="#E84E0F"/>
<path d="M24.5702 16.0715C22.8949 16.0715 21.4989 17.4938 21.4989 19.2004V47.2182C21.4989 48.9249 22.8949 50.3471 24.5702 50.3471H44.3939C46.0692 50.3471 47.4652 48.9249 47.4652 47.2182V19.3427C47.4652 17.636 46.0692 16.2138 44.3939 16.2138H24.5702V16.0715ZM44.5335 52.3382H24.5702C21.7781 52.3382 19.5444 50.0627 19.5444 47.2182V19.3427C19.5444 16.4982 21.7781 14.2227 24.5702 14.2227H44.3939C47.186 14.2227 49.4197 16.4982 49.4197 19.3427V47.3604C49.4197 50.0627 47.186 52.3382 44.5335 52.3382Z" fill="#00A4BF"/>
<path d="M51.9328 21.4759H17.1714C16.7526 21.4759 16.3337 21.0492 16.3337 20.6226V13.0848C16.3337 12.6581 16.7526 12.2314 17.1714 12.2314H51.7931C52.212 12.2314 52.6308 12.6581 52.6308 13.0848V20.7648C52.7704 21.1914 52.3516 21.4759 51.9328 21.4759Z" fill="#E40521"/>
<path d="M40.9039 26.0264H38.9494C38.5306 26.0264 37.9722 26.3108 37.693 26.7375L27.2227 44.6575C27.0831 44.9419 27.2227 45.3686 27.7811 45.3686H29.7356C30.1544 45.3686 30.7128 45.0841 30.992 44.6575L41.4623 26.7375C41.6019 26.3108 41.4623 26.0264 40.9039 26.0264Z" fill="#E40521"/>
<path d="M24.4307 56.7471C24.4307 58.3116 23.1742 59.4494 21.7782 59.4494C20.2426 59.4494 19.1257 58.1694 19.1257 56.7471C19.1257 55.1827 20.3822 54.0449 21.7782 54.0449C23.3139 54.0449 24.4307 55.1827 24.4307 56.7471Z" fill="#00A4BF"/>
<path d="M57.0981 37.2626C57.0981 38.4004 56.2605 39.2537 55.1437 39.2537C54.0268 39.2537 53.1892 38.4004 53.1892 37.2626C53.1892 36.1248 54.0268 35.2715 55.1437 35.2715C56.1209 35.2715 57.0981 36.1248 57.0981 37.2626Z" fill="#E40521"/>
<path d="M58.913 30.2935C58.913 32.2846 57.2377 33.9913 55.2833 33.9913C53.3288 33.9913 51.6536 32.2846 51.6536 30.2935C51.6536 28.3024 53.3288 26.5957 55.2833 26.5957C57.2377 26.5957 58.913 28.3024 58.913 30.2935Z" fill="#00A4BF"/>
<path d="M58.6337 19.6266C58.6337 20.6221 57.7961 21.3333 56.9585 21.3333C56.1208 21.3333 55.2832 20.4799 55.2832 19.6266C55.2832 18.631 56.1208 17.9199 56.9585 17.9199C57.7961 17.9199 58.6337 18.631 58.6337 19.6266Z" fill="#00A4BF"/>
<path d="M60.4485 9.95533C60.4485 10.9509 59.6109 11.8042 58.6337 11.8042C57.6565 11.8042 56.8188 10.9509 56.8188 9.95533C56.8188 8.95978 57.6565 8.10645 58.6337 8.10645C59.6109 8.10645 60.4485 8.95978 60.4485 9.95533Z" fill="#E84E0F"/>
<path d="M54.4455 5.11965C54.4455 7.11076 52.9099 8.67521 50.9554 8.67521C49.001 8.67521 47.4653 7.11076 47.4653 5.11965C47.4653 3.12854 49.001 1.42188 50.9554 1.42188C52.9099 1.42188 54.4455 3.12854 54.4455 5.11965Z" fill="#E40521"/>
<path d="M41.7415 6.82643C41.7415 7.82198 40.9039 8.67532 39.9267 8.67532C38.9494 8.67532 38.1118 7.82198 38.1118 6.82643C38.1118 5.83087 38.9494 4.97754 39.9267 4.97754C41.0435 4.97754 41.7415 5.83087 41.7415 6.82643Z" fill="#00A4BF"/>
<path d="M32.6674 29.2974C32.6674 31.2885 30.9921 32.9952 29.0377 32.9952C27.0832 32.9952 25.408 31.2885 25.408 29.2974C25.408 27.3063 27.0832 25.5996 29.0377 25.5996C31.1317 25.5996 32.6674 27.3063 32.6674 29.2974Z" fill="#E40521"/>
<path d="M43.4169 41.6714C43.4169 43.6625 41.7416 45.3692 39.7872 45.3692C37.8327 45.3692 36.1575 43.6625 36.1575 41.6714C36.1575 39.6803 37.8327 37.9736 39.7872 37.9736C41.8812 38.1159 43.4169 39.6803 43.4169 41.6714Z" fill="#E40521"/>
<path d="M90.8822 59.8752H89.6257C89.3465 59.8752 89.0673 59.8752 89.0673 59.733C88.9277 59.5908 88.9277 59.4485 88.9277 59.1641V50.9152C88.9277 50.6308 88.9277 50.4885 89.0673 50.3463C89.2069 50.2041 89.3465 50.2041 89.6257 50.2041H96.4663C96.7456 50.2041 97.0248 50.2041 97.0248 50.3463C97.1644 50.4885 97.1644 50.6308 97.1644 50.9152V59.1641C97.1644 59.4485 97.1644 59.5908 97.0248 59.733C96.8852 59.8752 96.7456 59.8752 96.4663 59.8752H95.2099C94.9307 59.8752 94.6515 59.8752 94.6515 59.733C94.5119 59.5908 94.5119 59.4485 94.5119 59.1641V52.4797H91.7198V59.1641C91.7198 59.4485 91.7198 59.5908 91.5802 59.733C91.4406 59.733 91.1614 59.8752 90.8822 59.8752Z" fill="#EE7326"/>
<path d="M103.167 57.884C103.726 57.884 104.005 57.7418 104.284 57.4573C104.563 57.1729 104.703 56.604 104.703 56.0351V54.1862C104.703 52.9062 104.145 52.3373 103.167 52.3373C102.609 52.3373 102.33 52.4796 102.051 52.764C101.771 53.0485 101.632 53.6173 101.632 54.1862V56.0351C101.771 57.1729 102.19 57.884 103.167 57.884ZM103.307 60.0173C101.911 60.0173 100.934 59.5907 100.096 58.8796C99.3981 58.1685 98.9792 57.1729 98.9792 55.8929V54.044C98.9792 52.764 99.3981 51.7685 100.096 50.9151C100.794 50.204 101.911 49.7773 103.307 49.7773C104.703 49.7773 105.68 50.204 106.518 50.9151C107.216 51.6262 107.635 52.6218 107.635 53.9018V55.7507C107.635 57.0307 107.216 58.0262 106.518 58.8796C105.68 59.7329 104.563 60.0173 103.307 60.0173Z" fill="#EE7326"/>
<path d="M120.339 59.8752H119.082C118.803 59.8752 118.524 59.8752 118.524 59.733C118.384 59.5908 118.384 59.4485 118.384 59.1641V56.0352H115.592V59.1641C115.592 59.4485 115.592 59.5908 115.453 59.733C115.313 59.8752 115.173 59.8752 114.894 59.8752H113.638C113.359 59.8752 113.079 59.8752 113.079 59.733C112.94 59.5908 112.94 59.4485 112.94 59.1641V50.9152C112.94 50.6308 112.94 50.4885 113.079 50.3463C113.219 50.2041 113.359 50.2041 113.638 50.2041H114.894C115.173 50.2041 115.453 50.2041 115.453 50.3463C115.592 50.4885 115.592 50.6308 115.592 50.9152V53.7597H118.384V50.9152C118.384 50.6308 118.384 50.4885 118.524 50.3463C118.663 50.2041 118.803 50.2041 119.082 50.2041H120.339C120.618 50.2041 120.897 50.2041 120.897 50.3463C121.037 50.4885 121.037 50.6308 121.037 50.9152V59.1641C121.037 59.4485 121.037 59.5908 120.897 59.733C120.758 59.733 120.618 59.8752 120.339 59.8752Z" fill="#EE7326"/>
<path d="M125.085 59.8758H123.968C123.689 59.8758 123.41 59.8758 123.41 59.7336C123.27 59.5914 123.27 59.4492 123.27 59.1647V50.9158C123.27 50.6314 123.27 50.4892 123.41 50.3469C123.549 50.2047 123.689 50.2047 123.968 50.2047H125.085C125.364 50.2047 125.644 50.2047 125.644 50.3469C125.783 50.4892 125.783 50.6314 125.783 50.9158V55.8936L128.575 50.7736C128.715 50.4892 128.854 50.3469 128.994 50.2047C129.134 50.0625 129.413 50.0625 129.692 50.0625H130.809C131.088 50.0625 131.367 50.0625 131.367 50.2047C131.507 50.3469 131.507 50.4892 131.507 50.7736V59.0225C131.507 59.3069 131.507 59.4492 131.367 59.5914C131.228 59.7336 131.088 59.7336 130.809 59.7336H129.692C129.413 59.7336 129.134 59.7336 129.134 59.5914C128.994 59.4492 128.994 59.3069 128.994 59.0225V54.0447L126.342 59.0225C126.202 59.3069 126.062 59.4492 125.923 59.5914C125.644 59.7336 125.364 59.8758 125.085 59.8758Z" fill="#EE7326"/>
<path d="M136.951 60.0181C135.137 60.0181 133.88 59.4492 133.322 58.4536C133.182 58.1692 133.042 57.8847 133.042 57.6003C133.042 57.3158 133.322 57.0314 133.741 57.0314H135.137C135.276 57.0314 135.416 57.0314 135.555 57.0314C135.695 57.0314 135.695 57.1736 135.835 57.3158C136.114 57.7425 136.533 57.8847 137.231 57.8847C138.068 57.8847 138.487 57.6003 138.487 56.8892C138.487 56.1781 138.068 55.7514 137.231 55.7514H136.114C135.835 55.7514 135.695 55.7514 135.695 55.6092C135.416 55.7514 135.416 55.4669 135.416 55.3247V54.7558C135.416 54.4714 135.416 54.3292 135.555 54.1869C135.695 54.0447 135.835 54.0447 135.974 54.0447H136.951C137.789 54.0447 138.068 53.7603 138.068 53.0492C138.068 52.7647 137.929 52.4803 137.789 52.3381C137.649 52.1958 137.37 52.0536 136.951 52.0536C136.393 52.0536 135.974 52.3381 135.695 52.7647C135.695 52.9069 135.416 53.0492 134.997 53.0492H133.741C133.322 53.0492 133.182 52.9069 133.182 52.4803C133.182 52.1958 133.322 51.9114 133.461 51.6269C133.74 51.2003 134.159 50.7736 134.857 50.4892C135.555 50.2047 136.253 50.0625 137.091 50.0625C138.347 50.0625 139.325 50.3469 139.883 50.7736C140.441 51.2003 140.721 51.9114 140.721 52.9069C140.721 53.3336 140.581 53.7603 140.302 54.1869C140.023 54.6136 139.743 54.8981 139.325 55.0403C139.743 55.1825 140.162 55.4669 140.441 55.8936C140.721 56.3203 140.86 56.7469 140.86 57.3158C140.86 58.3114 140.581 59.0225 139.883 59.4492C139.185 59.8758 138.208 60.0181 136.951 60.0181Z" fill="#EE7326"/>
<path d="M144.49 59.8752H143.234C142.954 59.8752 142.675 59.8752 142.675 59.733C142.536 59.5908 142.536 59.4485 142.536 59.1641V50.9152C142.536 50.6308 142.536 50.4885 142.675 50.3463C142.815 50.2041 142.954 50.2041 143.234 50.2041H144.49C144.769 50.2041 145.049 50.2041 145.049 50.3463C145.188 50.4885 145.188 50.6308 145.188 50.9152V53.7597H146.165L147.841 50.773C147.98 50.3463 148.259 50.2041 148.678 50.2041H150.353C150.772 50.2041 150.912 50.3463 150.912 50.6308C150.912 50.773 150.912 50.9152 150.772 51.0574L148.399 54.7552L151.051 59.0219C151.191 59.1641 151.191 59.3063 151.191 59.4485C151.191 59.733 151.051 59.8752 150.633 59.8752H148.957C148.539 59.8752 148.259 59.733 148.12 59.3063L146.305 55.893H145.188V59.1641C145.188 59.4485 145.188 59.5908 145.049 59.733C144.909 59.733 144.769 59.8752 144.49 59.8752Z" fill="#EE7326"/>
<path d="M154.262 59.8758H153.146C152.866 59.8758 152.587 59.8758 152.587 59.7336C152.448 59.5914 152.448 59.4492 152.448 59.1647V50.9158C152.448 50.6314 152.448 50.4892 152.587 50.3469C152.727 50.2047 152.866 50.2047 153.146 50.2047H154.262C154.542 50.2047 154.821 50.2047 154.821 50.3469C154.96 50.4892 154.96 50.6314 154.96 50.9158V55.8936L157.752 50.7736C157.892 50.4892 158.032 50.3469 158.171 50.2047C158.311 50.0625 158.59 50.0625 158.869 50.0625H159.986C160.265 50.0625 160.545 50.0625 160.545 50.2047C160.684 50.3469 160.684 50.4892 160.684 50.7736V59.0225C160.684 59.3069 160.684 59.4492 160.545 59.5914C160.405 59.7336 160.265 59.7336 159.986 59.7336H158.869C158.59 59.7336 158.311 59.7336 158.311 59.5914C158.171 59.4492 158.171 59.3069 158.171 59.0225V54.0447L155.519 59.0225C155.379 59.3069 155.24 59.4492 155.1 59.5914C154.821 59.7336 154.681 59.8758 154.262 59.8758Z" fill="#EE7326"/>
<path d="M164.593 59.8756H163.476C163.197 59.8756 162.918 59.8756 162.918 59.7333C162.778 59.5911 162.778 59.4489 162.778 59.1645V51.0578C162.778 50.7733 162.778 50.6311 162.918 50.4889C163.058 50.3467 163.197 50.3467 163.476 50.3467H164.733C165.152 50.3467 165.431 50.3467 165.57 50.4889C165.71 50.6311 165.85 50.7733 165.989 51.2L167.944 55.6089L169.898 51.2C170.038 50.7733 170.177 50.6311 170.317 50.4889C170.457 50.3467 170.736 50.3467 171.155 50.3467H172.271C172.551 50.3467 172.83 50.3467 172.83 50.4889C172.969 50.6311 172.969 50.7733 172.969 51.0578V59.1645C172.969 59.4489 172.969 59.5911 172.83 59.7333C172.69 59.8756 172.551 59.8756 172.271 59.8756H171.155C170.875 59.8756 170.596 59.8756 170.596 59.7333C170.457 59.5911 170.457 59.4489 170.457 59.1645V54.3289L169.2 57.1733C169.06 57.4578 168.921 57.7422 168.921 57.7422C168.781 57.7422 168.642 57.8845 168.362 57.8845H167.525C167.246 57.8845 167.106 57.8845 166.966 57.7422C166.827 57.6 166.687 57.4578 166.548 57.1733L165.291 54.3289V59.1645C165.291 59.4489 165.291 59.5911 165.152 59.7333C165.152 59.7333 164.872 59.8756 164.593 59.8756Z" fill="#EE7326"/>
<path d="M187.349 62.2936H186.232C185.953 62.2936 185.813 62.2936 185.673 62.1514C185.534 62.0092 185.534 61.8669 185.534 61.5825V59.7336H179.391C179.112 59.7336 178.833 59.7336 178.833 59.5914C178.693 59.4492 178.693 59.3069 178.693 59.0225V50.7736C178.693 50.4892 178.693 50.3469 178.833 50.2047C178.972 50.0625 179.112 50.0625 179.391 50.0625H180.648C180.927 50.0625 181.206 50.0625 181.206 50.2047C181.346 50.3469 181.346 50.4892 181.346 50.7736V57.4581H183.998V50.7736C183.998 50.4892 183.998 50.3469 184.138 50.2047C184.277 50.0625 184.417 50.0625 184.696 50.0625H185.953C186.232 50.0625 186.511 50.0625 186.511 50.2047C186.651 50.3469 186.651 50.4892 186.651 50.7736V57.4581H187.209C187.488 57.4581 187.628 57.4581 187.767 57.6003C187.907 57.7425 187.907 57.8847 187.907 58.1692V61.5825C187.907 61.8669 187.907 62.0092 187.767 62.1514C187.767 62.1514 187.628 62.2936 187.349 62.2936Z" fill="#EE7326"/>
<path d="M193.212 52.1955C192.374 52.1955 191.816 52.7644 191.816 53.9021H194.608C194.608 53.3333 194.468 52.9066 194.189 52.6221C194.05 52.3377 193.631 52.1955 193.212 52.1955ZM196.562 55.751H191.676C191.676 56.4621 191.816 57.031 191.956 57.3155C192.235 57.5999 192.654 57.7421 193.212 57.7421C193.77 57.7421 194.189 57.5999 194.468 57.1733C194.468 57.031 194.608 56.8888 194.748 56.8888C194.887 56.8888 195.027 56.7466 195.166 56.7466H196.562C196.842 56.7466 196.981 56.7466 196.981 56.8888C197.121 57.031 197.121 57.1733 197.121 57.3155C197.121 57.7421 196.981 58.1688 196.562 58.7377C195.864 59.591 194.748 60.0177 193.072 60.0177C191.676 60.0177 190.699 59.7333 190.001 59.0221C189.303 58.311 188.884 57.3155 188.884 55.8933V54.1866C188.884 52.9066 189.303 51.7688 190.001 51.0577C190.699 50.3466 191.816 49.9199 193.072 49.9199C194.329 49.9199 195.306 50.3466 196.144 51.0577C196.842 51.7688 197.261 52.9066 197.261 54.1866V55.0399C197.261 55.3244 197.261 55.4666 197.121 55.6088C197.121 55.751 196.981 55.751 196.562 55.751Z" fill="#EE7326"/>
<path d="M206.754 59.8752H205.497C205.218 59.8752 204.939 59.8752 204.939 59.733C204.799 59.5908 204.799 59.4485 204.799 59.1641V56.0352H202.007V59.1641C202.007 59.4485 202.007 59.5908 201.867 59.733C201.728 59.8752 201.588 59.8752 201.309 59.8752H200.053C199.773 59.8752 199.494 59.8752 199.494 59.733C199.354 59.5908 199.354 59.4485 199.354 59.1641V50.9152C199.354 50.6308 199.354 50.4885 199.494 50.3463C199.634 50.2041 199.773 50.2041 200.053 50.2041H201.309C201.588 50.2041 201.867 50.2041 201.867 50.3463C202.007 50.4885 202.007 50.6308 202.007 50.9152V53.7597H204.799V50.9152C204.799 50.6308 204.799 50.4885 204.939 50.3463C205.078 50.2041 205.218 50.2041 205.497 50.2041H206.754C207.033 50.2041 207.312 50.2041 207.312 50.3463C207.452 50.4885 207.452 50.6308 207.452 50.9152V59.1641C207.452 59.4485 207.452 59.5908 207.312 59.733C207.172 59.733 207.033 59.8752 206.754 59.8752Z" fill="#EE7326"/>
<path d="M213.315 55.8936C212.756 55.8936 212.338 56.0358 212.058 56.1781C211.779 56.3203 211.64 56.6047 211.64 57.0314C211.64 57.7425 212.058 58.1692 212.896 58.1692H213.175C213.734 58.1692 214.013 58.0269 214.152 57.7425C214.292 57.4581 214.432 57.0314 214.432 56.4625V56.0358C214.153 55.8936 213.734 55.8936 213.315 55.8936ZM212.896 53.9025C213.175 53.9025 213.734 53.9025 214.571 54.0447V53.6181C214.571 53.0492 214.432 52.6225 214.292 52.4803C214.153 52.1958 213.734 52.1958 213.315 52.1958C212.896 52.1958 212.477 52.3381 212.338 52.6225C212.198 52.7647 212.198 52.9069 212.058 52.9069C211.919 52.9069 211.779 53.0492 211.64 53.0492H210.383C209.964 53.0492 209.685 52.9069 209.685 52.4803C209.685 52.1958 209.825 51.9114 209.964 51.6269C210.523 50.6314 211.779 50.0625 213.594 50.0625C214.851 50.0625 215.828 50.3469 216.386 50.9158C216.945 51.4847 217.224 52.3381 217.224 53.6181V56.7469C217.224 57.8847 216.945 58.7381 216.247 59.3069C215.688 59.8758 214.711 60.1603 213.454 60.1603H212.896C211.64 60.1603 210.662 59.8758 210.104 59.4492C209.546 59.0225 209.266 58.1692 209.266 57.1736C209.266 56.1781 209.546 55.3247 210.244 54.8981C210.662 54.1869 211.64 53.9025 212.896 53.9025Z" fill="#EE7326"/>
<path d="M220.993 59.8756H219.876C219.597 59.8756 219.318 59.8756 219.318 59.7333C219.178 59.5911 219.178 59.4489 219.178 59.1645V51.0578C219.178 50.7733 219.178 50.6311 219.318 50.4889C219.457 50.3467 219.597 50.3467 219.876 50.3467H221.133C221.551 50.3467 221.831 50.3467 221.97 50.4889C222.11 50.6311 222.25 50.7733 222.389 51.2L224.344 55.6089L226.298 51.2C226.438 50.7733 226.577 50.6311 226.717 50.4889C226.856 50.3467 227.136 50.3467 227.554 50.3467H228.671C228.951 50.3467 229.23 50.3467 229.23 50.4889C229.369 50.6311 229.369 50.7733 229.369 51.0578V59.1645C229.369 59.4489 229.369 59.5911 229.23 59.7333C229.09 59.8756 228.951 59.8756 228.671 59.8756H227.554C227.275 59.8756 226.996 59.8756 226.996 59.7333C226.856 59.5911 226.856 59.4489 226.856 59.1645V54.3289L225.6 57.1733C225.46 57.4578 225.321 57.7422 225.321 57.7422C225.181 57.7422 225.042 57.8845 224.762 57.8845H223.785C223.506 57.8845 223.366 57.8845 223.227 57.7422C223.087 57.6 222.948 57.4578 222.808 57.1733L221.551 54.3289V59.1645C221.551 59.4489 221.551 59.5911 221.412 59.7333C221.412 59.7333 221.272 59.8756 220.993 59.8756Z" fill="#EE7326"/>
<path d="M248.914 37.5466L244.447 27.3066L240.677 29.0133L246.541 42.24L248.914 37.5466Z" fill="#EE7326"/>
<path d="M244.446 27.307L242.352 22.7559L238.723 24.3203L240.677 29.0136L244.446 27.307Z" fill="white"/>
<path d="M74.4088 23.6087L71.6167 33.2798H77.3405L74.4088 23.6087ZM78.1781 18.9154L85.5771 41.8132C85.7167 42.0976 85.7167 42.2398 85.7167 42.5243C85.7167 43.0932 85.4375 43.3776 84.7395 43.3776H81.389C80.8306 43.3776 80.5514 43.2354 80.2722 43.0932C80.1326 42.9509 79.8533 42.5243 79.7137 41.8132L78.4573 37.8309H69.9415L68.8246 41.8132C68.685 42.3821 68.4058 42.8087 68.2662 42.9509C68.1266 43.0932 67.7078 43.2354 67.1494 43.2354H64.2177C63.5197 43.2354 63.2405 42.9509 63.2405 42.3821C63.2405 41.9554 63.2405 41.8132 63.3801 41.6709L70.9187 18.7732C71.0583 18.3465 71.1979 17.9198 71.4771 17.7776C71.7563 17.6354 72.0355 17.4932 72.4543 17.4932H76.5029C76.9217 17.4932 77.3405 17.6354 77.4801 17.7776C77.8989 18.0621 78.0385 18.3465 78.1781 18.9154Z" fill="#00A4BF"/>
<path d="M104.424 43.378H101.771C101.213 43.378 100.794 43.2358 100.515 43.0936C100.375 42.9513 100.236 42.5247 100.236 41.9558V35.698H94.5118V41.9558C94.5118 42.5247 94.3722 42.8091 94.2326 43.0936C94.093 43.2358 93.6742 43.378 92.9762 43.378H90.3237C89.7653 43.378 89.3465 43.2358 89.0673 43.0936C88.9277 42.9513 88.7881 42.5247 88.7881 41.9558V25.3158C88.7881 24.7469 88.9277 24.4624 89.0673 24.178C89.2069 24.0358 89.6257 23.8936 90.3237 23.8936H92.9762C93.5346 23.8936 93.9534 24.0358 94.2326 24.178C94.3722 24.3202 94.5118 24.7469 94.5118 25.3158V31.1469H100.236V25.3158C100.236 24.7469 100.375 24.4624 100.515 24.178C100.654 24.0358 101.073 23.8936 101.771 23.8936H104.424C104.982 23.8936 105.401 24.0358 105.68 24.178C105.82 24.3202 105.959 24.7469 105.959 25.3158V42.098C105.959 42.6669 105.82 42.9513 105.68 43.2358C105.401 43.2358 104.982 43.378 104.424 43.378Z" fill="#00A4BF"/>
<path d="M117.826 35.2709C116.709 35.2709 115.871 35.4131 115.452 35.6976C114.894 35.982 114.754 36.5509 114.754 37.262C114.754 38.8264 115.592 39.5376 117.267 39.5376H117.686C118.663 39.5376 119.361 39.2531 119.78 38.8264C120.199 38.2576 120.339 37.4042 120.339 36.2664V35.4131C119.501 35.2709 118.663 35.2709 117.826 35.2709ZM116.988 31.4309C117.686 31.4309 118.803 31.4309 120.339 31.5731V30.5776C120.339 29.4398 120.199 28.5864 119.78 28.1598C119.361 27.7331 118.663 27.4487 117.686 27.4487C116.709 27.4487 116.15 27.7331 115.732 28.4442C115.452 28.7287 115.313 29.0131 115.173 29.1553C115.034 29.2976 114.615 29.2976 114.196 29.2976H111.543C110.706 29.2976 110.287 29.0131 110.287 28.302C110.287 27.5909 110.427 27.022 110.845 26.4531C112.102 24.3198 114.475 23.3242 118.244 23.3242C120.897 23.3242 122.851 23.8931 123.968 25.0309C125.225 26.1687 125.783 28.0176 125.783 30.5776V36.9776C125.783 39.2531 125.225 40.9598 123.968 42.0976C122.712 43.2353 120.757 43.8042 118.105 43.8042H116.848C114.196 43.8042 112.381 43.3776 111.125 42.382C110.008 41.3864 109.31 39.822 109.31 37.8309C109.31 35.6976 109.868 34.1331 111.125 33.1376C112.381 31.8576 114.336 31.4309 116.988 31.4309Z" fill="#00A4BF"/>
<path d="M128.994 43.5199C128.575 43.5199 128.296 43.3776 128.156 43.2354C128.017 43.0932 127.877 42.8088 127.877 42.2399V39.3954C127.877 38.6843 128.156 38.3999 128.715 38.3999C129.552 38.3999 130.111 38.1154 130.39 37.6888C130.669 37.2621 130.809 36.1243 130.809 34.5599L130.948 25.1732C130.948 24.6043 131.088 24.3199 131.228 24.0354C131.367 23.8932 131.786 23.751 132.484 23.751H144.63C145.188 23.751 145.607 23.8932 145.886 24.0354C146.026 24.1776 146.165 24.6043 146.165 25.1732V41.9554C146.165 42.5243 146.026 42.8088 145.886 43.0932C145.747 43.2354 145.328 43.3776 144.63 43.3776H141.977C141.419 43.3776 141 43.2354 140.721 43.0932C140.581 42.951 140.442 42.5243 140.442 41.9554V28.4443H136.253L136.114 34.7021C136.114 36.6932 135.974 38.1154 135.695 39.3954C135.416 40.5332 134.997 41.5288 134.299 42.0976C133.741 42.6665 132.903 43.0932 132.065 43.3776C131.507 43.3776 130.39 43.5199 128.994 43.5199Z" fill="#00A4BF"/>
<path d="M154.402 43.378H152.029C151.47 43.378 151.052 43.2358 150.772 43.0936C150.633 42.9513 150.493 42.5247 150.493 41.9558V25.3158C150.493 24.7469 150.633 24.4624 150.772 24.178C150.912 24.0358 151.331 23.8936 152.029 23.8936H154.123C154.681 23.8936 155.1 24.0358 155.379 24.178C155.519 24.3202 155.659 24.7469 155.659 25.3158V35.5558L161.243 25.3158C161.522 24.7469 161.801 24.4624 162.08 24.3202C162.359 24.178 162.778 24.0358 163.476 24.0358H165.71C166.268 24.0358 166.687 24.178 166.966 24.3202C167.106 24.4624 167.246 24.8891 167.246 25.458V42.2402C167.246 42.8091 167.106 43.0936 166.966 43.378C166.827 43.5202 166.408 43.6624 165.71 43.6624H163.616C163.058 43.6624 162.639 43.5202 162.359 43.378C162.22 43.2358 162.08 42.8091 162.08 42.2402V32.1424L156.636 42.2402C156.357 42.8091 156.077 43.0936 155.798 43.2358C155.519 43.2358 155.1 43.378 154.402 43.378Z" fill="#00A4BF"/>
<path d="M178.414 43.8048C174.645 43.8048 172.132 42.8093 171.015 40.676C170.596 40.1071 170.457 39.5382 170.457 38.8271C170.457 38.116 170.875 37.8315 171.713 37.8315H174.505C174.924 37.8315 175.203 37.8315 175.343 37.9737C175.482 37.9737 175.622 38.2582 175.761 38.4004C176.32 39.2537 177.158 39.6804 178.554 39.6804C180.368 39.6804 181.206 38.9693 181.206 37.5471C181.206 36.1248 180.368 35.2715 178.693 35.2715H176.599C176.18 35.2715 175.761 35.1293 175.622 34.9871C175.482 34.8448 175.343 34.4182 175.343 33.9915V32.7115C175.343 32.1426 175.482 31.8582 175.622 31.716C175.761 31.5737 176.041 31.4315 176.599 31.4315H178.554C180.089 31.4315 180.927 30.7204 180.927 29.4404C180.927 28.7293 180.787 28.3026 180.368 27.876C180.089 27.5915 179.391 27.4493 178.693 27.4493C177.576 27.4493 176.739 27.876 176.18 28.7293C176.041 29.0137 175.622 29.156 174.924 29.156H172.271C171.434 29.156 171.015 28.7293 171.015 28.0182C171.015 27.5915 171.155 27.0226 171.573 26.3115C172.132 25.316 173.109 24.6048 174.365 24.036C175.622 23.4671 177.158 23.1826 178.833 23.1826C181.485 23.1826 183.3 23.6093 184.557 24.6048C185.813 25.6004 186.371 27.0226 186.371 28.8715C186.371 29.7248 186.092 30.5782 185.673 31.4315C185.255 32.2848 184.557 32.8537 183.719 33.1382C184.696 33.4226 185.394 33.9915 185.953 34.8448C186.511 35.6982 186.79 36.5515 186.79 37.6893C186.79 39.6804 186.092 41.1026 184.696 42.0982C183.021 43.3782 181.066 43.8048 178.414 43.8048Z" fill="#00A4BF"/>
<path d="M211.919 43.378H209.266C208.708 43.378 208.289 43.2358 208.01 43.0936C207.87 42.9513 207.731 42.5247 207.731 41.9558V25.3158C207.731 24.7469 207.87 24.4624 208.01 24.178C208.15 24.0358 208.568 23.8936 209.266 23.8936H211.919C212.477 23.8936 212.896 24.0358 213.175 24.178C213.315 24.3202 213.455 24.7469 213.455 25.3158V42.098C213.455 42.6669 213.315 42.9513 213.175 43.2358C212.896 43.2358 212.477 43.378 211.919 43.378ZM197.4 33.9913H194.887V39.2536H197.4C198.377 39.2536 199.075 39.1113 199.494 38.6847C199.913 38.258 200.192 37.6891 200.192 36.6936C200.192 34.8447 199.215 33.9913 197.4 33.9913ZM197.4 43.378H191.118C190.559 43.378 190.141 43.2358 189.861 43.0936C189.722 42.9513 189.582 42.5247 189.582 41.9558V25.3158C189.582 24.7469 189.722 24.4624 189.861 24.178C190.001 24.0358 190.42 23.8936 191.118 23.8936H193.491C194.05 23.8936 194.468 24.0358 194.748 24.178C194.887 24.3202 195.027 24.7469 195.027 25.3158V30.0091H197.54C200.471 30.0091 202.565 30.578 203.822 31.7158C205.078 32.8536 205.637 34.5602 205.637 36.8358C205.637 39.1113 205.078 40.818 203.822 41.9558C202.565 42.8091 200.471 43.378 197.4 43.378Z" fill="#00A4BF"/>
<path d="M223.227 41.9557V22.898H217.643C217.084 22.898 216.805 22.7557 216.526 22.6135C216.386 22.4713 216.247 22.0446 216.247 21.3335V19.2002C216.247 18.4891 216.386 18.0624 216.526 17.9202C216.665 17.778 217.084 17.6357 217.643 17.6357H234.535C235.093 17.6357 235.372 17.778 235.652 17.9202C235.791 18.0624 235.931 18.4891 235.931 19.2002V21.3335C235.931 22.0446 235.791 22.4713 235.652 22.6135C235.512 22.7557 235.093 22.898 234.535 22.898H228.951V41.9557C228.951 42.5246 228.811 42.8091 228.671 43.0935C228.532 43.2357 228.113 43.378 227.415 43.378H224.623C224.064 43.378 223.646 43.2357 223.366 43.0935C223.227 42.9513 223.227 42.5246 223.227 41.9557Z" fill="#00A4BF"/>
<path d="M267.9 41.9557V22.898H262.316C261.758 22.898 261.478 22.7557 261.199 22.6135C261.06 22.4713 260.92 22.0446 260.92 21.3335V19.2002C260.92 18.4891 261.06 18.0624 261.199 17.9202C261.339 17.778 261.758 17.6357 262.316 17.6357H279.348C279.906 17.6357 280.185 17.778 280.464 17.9202C280.604 18.0624 280.744 18.4891 280.744 19.2002V21.3335C280.744 22.0446 280.604 22.4713 280.464 22.6135C280.325 22.7557 279.906 22.898 279.348 22.898H273.764V41.9557C273.764 42.5246 273.624 42.8091 273.484 43.0935C273.345 43.2357 272.926 43.378 272.228 43.378H269.436C268.877 43.378 268.459 43.2357 268.179 43.0935C268.04 42.9513 267.9 42.5246 267.9 41.9557Z" fill="#00A4BF"/>
<path d="M249.333 19.9112C248.635 18.9156 247.378 18.7734 246.401 19.4845C245.424 20.1956 245.284 21.4756 245.982 22.4712C246.68 23.4667 247.937 23.6089 248.914 22.8978C249.891 22.1867 250.031 20.9067 249.333 19.9112Z" fill="#EE7326"/>
<path d="M242.352 17.4931C243.469 17.6353 244.586 16.9242 244.726 15.7864C244.865 14.6486 244.167 13.5108 243.05 13.3686C241.934 13.2264 240.817 13.9375 240.677 15.0753C240.538 16.3553 241.236 17.3508 242.352 17.4931Z" fill="#E84E0F"/>
<path d="M248.774 16.7825C247.797 15.3602 248.076 13.3691 249.472 12.3736C250.868 11.378 252.823 11.6625 253.8 13.0847C254.777 14.5069 254.498 16.498 253.102 17.4936C251.706 18.4891 249.752 18.2047 248.774 16.7825Z" fill="#E40521"/>
<path d="M254.219 20.338C254.638 20.6225 255.336 20.4803 255.615 20.0536C255.894 19.6269 255.754 18.9158 255.336 18.6314C254.917 18.3469 254.219 18.4892 253.94 18.9158C253.521 19.3425 253.66 20.0536 254.219 20.338Z" fill="#E84E0F"/>
<path d="M250.589 26.5955C250.31 26.1688 249.612 26.0266 249.193 26.3111C248.774 26.5955 248.635 27.3066 248.914 27.7333C249.193 28.16 249.891 28.3022 250.31 28.0177C250.868 27.7333 251.008 27.0222 250.589 26.5955Z" fill="#E40521"/>
<path d="M257.988 30.8622L254.358 28.8711L244.307 49.4933C244.167 49.7778 244.167 49.92 244.167 50.2044C244.167 51.3422 245.005 52.1955 246.122 52.1955C246.959 52.1955 247.797 51.7689 248.076 50.9155L257.988 30.8622Z" fill="#E40521"/>
<path d="M257.988 30.8625L260.361 26.3114L256.732 24.3203L254.498 28.8714L257.988 30.8625Z" fill="white"/>
<path d="M247.937 51.0581C247.657 51.7692 246.82 52.3381 245.982 52.3381C244.865 52.3381 244.028 51.3425 244.028 50.347C244.028 50.0625 244.167 49.7781 244.167 49.6359L256.592 24.4625L260.222 26.3114L247.937 51.0581ZM238.723 24.3203L242.492 22.6136L249.053 37.547L246.68 42.2403L238.723 24.3203ZM256.313 22.7559L249.612 36.4092L242.911 21.1914L237.187 23.7514L245.982 43.6625L243.19 49.3514C243.05 49.7781 242.911 50.0625 242.911 50.4892C242.771 52.1959 244.167 53.6181 245.842 53.7603C247.239 53.9025 248.495 53.0492 248.914 51.7692L261.757 25.6003L256.313 22.7559Z" fill="#00A4BF"/>
</svg>
