<svg width="49" height="57" viewBox="0 0 49 57" fill="none" xmlns="http://www.w3.org/2000/svg">
<path d="M19.1673 0.229729C17.5788 0.740463 15.9509 2.15481 15.1894 3.68702L14.8875 4.27633L8.88785 4.31562L2.88822 4.3549L2.20555 4.70849C1.82483 4.91802 1.2997 5.28471 1.03714 5.55972C0.774569 5.82163 0.433234 6.30618 0.275694 6.63357L0 7.23598V30.6775V54.1189L0.275694 54.7213C0.630158 55.4809 1.32596 56.175 2.20555 56.6464L2.88822 57H21.0709H39.2536L39.8575 56.725C40.7108 56.3321 41.4723 55.5987 41.8661 54.7999C42.1943 54.1582 42.2075 54.0534 42.2075 51.6307C42.2075 48.9068 42.1812 48.8151 41.4854 48.8151C40.8027 48.8151 40.7633 48.9461 40.7633 51.1462C40.7633 53.4772 40.6321 54.132 40.0675 54.7213C39.2536 55.5464 40.4483 55.494 21.1103 55.494C4.10916 55.494 3.3871 55.4809 2.8751 55.2452C2.57314 55.1142 2.16617 54.7737 1.95612 54.4987L1.57539 54.0142V30.6775V7.34074L1.95612 6.8562C2.62566 5.96569 3.04576 5.86092 6.06527 5.86092H8.70406L8.57277 6.33237C8.50713 6.59428 8.46775 7.94315 8.494 9.39679L8.53339 11.9898L8.92724 12.566C9.15042 12.8803 9.59678 13.2731 9.91186 13.4565L10.5026 13.7839H21.1365H31.7705L32.3219 13.4696C32.6369 13.2862 33.0439 12.9196 33.2408 12.6314L33.6084 12.1076V8.97772V5.86092H36.2078C38.0983 5.86092 38.9123 5.9133 39.2273 6.04426C39.7262 6.25379 40.3432 6.84311 40.5402 7.30146C40.6321 7.51099 40.724 9.08249 40.7633 11.4921L40.829 15.3423L41.1703 15.5387C41.4854 15.709 41.551 15.709 41.8661 15.5125L42.2075 15.2899V11.2564V7.22288L41.8661 6.555C41.4723 5.75615 40.7108 5.02279 39.8575 4.62991C39.2667 4.368 39.0567 4.3549 33.3196 4.31562L27.3856 4.27633L26.9655 3.55606C26.2435 2.28577 25.1144 1.21191 23.8672 0.596409C22.817 0.0725784 22.7119 0.0463867 21.3597 0.00709915C20.2307 -0.0190926 19.7975 0.020195 19.1673 0.229729ZM22.5413 1.68336C23.9197 1.99766 25.4426 3.35962 26.0597 4.85254C26.2566 5.3109 26.4798 5.62519 26.6767 5.71687C26.8605 5.80854 27.8845 5.86092 29.2236 5.86092C30.4839 5.86092 31.5735 5.9133 31.7048 5.99188C32.0987 6.20141 32.23 6.96097 32.23 9.10868C32.23 11.3481 32.0855 11.9243 31.5079 12.1469C31.2847 12.2255 27.4119 12.2779 20.9921 12.2779H10.8046L10.4239 11.8981L10.0431 11.5183V9.0301C10.0431 6.72524 10.0563 6.5288 10.3188 6.20141L10.5814 5.86092H12.8657C14.126 5.86092 15.2945 5.80854 15.4783 5.72996C15.7146 5.65139 15.9246 5.35019 16.2003 4.74778C16.7123 3.63464 17.7232 2.56078 18.7735 2.05005C20.0469 1.42144 20.9528 1.34287 22.5413 1.68336Z" fill="#67BEC1"/>
<path d="M19.8239 4.13224C18.196 4.91799 17.5658 6.86926 18.4192 8.49314C19.325 10.2349 21.57 10.6932 23.0272 9.43604C23.8412 8.74196 24.1431 8.07408 24.1562 6.96094C24.1562 6.16209 24.1037 5.95256 23.7624 5.40254C23.5392 5.04895 23.106 4.5775 22.804 4.35487C22.3183 4.02748 22.0951 3.962 21.2943 3.92271C20.5722 3.89652 20.2178 3.9489 19.8239 4.13224ZM21.6356 5.5204C22.2395 5.76922 22.5283 6.149 22.6071 6.79069C22.7909 8.12646 21.4649 9.04317 20.3228 8.34909C19.8108 8.03479 19.5876 7.65501 19.5876 7.03951C19.5876 6.39782 19.9289 5.80851 20.4409 5.55969C20.9792 5.29777 21.0973 5.28467 21.6356 5.5204Z" fill="#67BEC1"/>
<path d="M27.1622 17.3066C24.1689 18.4066 22.2522 21.7198 22.2522 25.7533C22.2522 27.9142 22.5541 29.0666 23.8276 31.6465C25.0879 34.2001 25.3111 34.8942 25.5999 37.0943C26.0988 40.9707 26.4795 42.4243 27.5166 44.572C28.6325 46.8507 30.4836 47.9638 32.0722 47.2959C32.3347 47.1912 32.7286 46.9423 32.9255 46.7459C33.6738 46.0387 33.7263 45.8292 33.8182 42.8565C33.9232 39.242 34.0808 38.8622 35.433 38.8622C36.0369 38.8622 36.2863 39.0194 36.5883 39.5563C36.6933 39.7527 36.7721 40.7873 36.8246 42.5945C36.8902 45.2268 36.9034 45.3839 37.2316 45.9994C37.6779 46.89 38.4263 47.4007 39.3846 47.4793C40.8812 47.5971 42.286 46.4709 43.3231 44.297C44.2683 42.3326 44.5703 41.1278 45.1611 36.7669C45.4368 34.7894 45.6731 34.0823 46.9071 31.581C48.2068 28.9356 48.4431 28.0058 48.4431 25.701C48.43 23.7759 48.22 22.7544 47.5242 21.2484C46.6839 19.415 45.4893 18.184 43.8351 17.4244C43.2181 17.1363 42.8111 17.0577 41.8396 17.0184C40.3167 16.953 39.4503 17.1101 37.4285 17.8697C36.562 18.1971 35.538 18.4852 35.1442 18.5245C34.514 18.5899 34.3302 18.5507 33.1749 18.0006C31.5339 17.2149 30.6149 16.9923 29.1445 17.0054C28.2518 17.0054 27.7661 17.0839 27.1622 17.3066ZM31.0482 18.7733C31.442 18.8911 32.3872 19.3102 33.1487 19.7293C35.026 20.7377 35.9581 21.1436 37.2316 21.4579C38.4525 21.7722 38.8595 21.6936 39.0039 21.1043C39.1614 20.4757 38.8726 20.2269 37.7042 20.0043C37.2972 19.9257 36.9821 19.8079 37.0215 19.7555C37.0872 19.6245 39.0039 18.9042 39.8441 18.6816C40.1723 18.603 40.9206 18.5245 41.4983 18.5245C42.4435 18.5114 42.6667 18.5638 43.4281 18.9304C44.8197 19.6245 45.8175 20.8817 46.5002 22.833C46.8284 23.7628 46.8546 24.0509 46.8677 25.701C46.8677 27.9665 46.7102 28.5297 45.2398 31.5155C44.1239 33.7811 43.9007 34.4751 43.5988 36.7669C43.1656 39.9099 43.0999 40.2635 42.8505 41.2195C42.5617 42.2933 41.7346 44.1529 41.1963 44.9256C40.5005 45.934 39.3977 46.2352 38.7807 45.5935C38.4656 45.2661 38.4656 45.2006 38.4 42.4243C38.3344 39.792 38.3081 39.5301 38.0324 38.967C37.2578 37.3955 35.4986 36.8324 33.9364 37.6443C33.385 37.9324 33.1618 38.1682 32.8336 38.7313L32.4266 39.4515L32.361 42.2671C32.3085 44.1791 32.2428 45.1744 32.1247 45.3708C31.6258 46.2614 30.3786 46.0649 29.5515 44.9911C29.0001 44.2577 28.1599 42.3457 27.8317 41.0492C27.6742 40.3813 27.3985 38.8491 27.2409 37.6181C26.8471 34.5537 26.6108 33.7549 25.403 31.3322C24.1164 28.7261 23.7882 27.626 23.7882 25.7664C23.7882 23.4616 24.5103 21.4317 25.8231 20.0567C27.2409 18.5638 28.8163 18.1709 31.0482 18.7733Z" fill="black"/>
<path d="M7.24686 21.6807C6.94491 22.0081 6.97117 22.401 7.29938 22.7022C7.56194 22.9379 7.89015 22.951 13.3909 22.9903C17.0668 23.0165 19.3249 22.9772 19.5481 22.8856C20.0601 22.7022 20.2439 22.2046 19.9682 21.7724L19.7581 21.445H13.601C7.81138 21.445 7.44379 21.4581 7.24686 21.6807Z" fill="#67BEC1"/>
<path d="M7.23381 27.8095C7.11565 27.9143 7.02375 28.15 7.02375 28.3202C7.02375 29.0536 6.93186 29.0405 13.3122 29.0405C17.6971 29.0405 19.2199 29.0012 19.3381 28.8834C19.5481 28.6738 19.5481 27.9667 19.3381 27.7571C19.2199 27.6393 17.6971 27.6 13.3122 27.6C8.13966 27.6 7.4176 27.6262 7.23381 27.8095Z" fill="#67BEC1"/>
<path d="M7.54872 33.7157C7.02359 33.9122 6.85292 34.6193 7.2599 34.9729C7.48308 35.1694 8.16575 35.1956 14.4673 35.1956C21.0446 35.1956 21.4385 35.1825 21.6354 34.9598C21.9111 34.6586 21.9242 34.2789 21.6748 33.9384C21.491 33.7026 21.2547 33.6895 14.6117 33.6633C10.8308 33.6503 7.65375 33.6764 7.54872 33.7157Z" fill="#67BEC1"/>
<path d="M7.28608 40.041C6.95787 40.3684 6.94475 40.8529 7.25982 41.128C7.48301 41.3244 8.20506 41.3506 15.0055 41.3506H22.5149L22.725 41.0232C23.0006 40.591 22.8694 40.0672 22.4361 39.91C22.2392 39.8315 19.1803 39.7791 14.8217 39.7791C7.71931 39.7791 7.54865 39.7791 7.28608 40.041Z" fill="#67BEC1"/>
<path d="M7.28608 46.196C6.95787 46.5234 6.94475 47.008 7.25982 47.283C7.48301 47.4794 8.28383 47.5056 16.0033 47.5056C21.609 47.5056 24.5892 47.4532 24.7598 47.3747C24.9305 47.283 25.0093 47.0996 25.0093 46.7853C25.0093 45.8948 25.39 45.9341 15.9901 45.9341C7.71931 45.9341 7.54865 45.9341 7.28608 46.196Z" fill="#67BEC1"/>
</svg>
