<svg width="58" height="58" viewBox="0 0 58 58" fill="none" xmlns="http://www.w3.org/2000/svg">
<path d="M22.448 0.967815C20.1558 1.37759 17.6843 2.56852 15.6354 4.22044C15.1872 4.5918 14.8799 4.70705 14.1627 4.83511C13.6121 4.92474 12.8566 5.19366 12.1779 5.52661C9.74481 6.73034 8.19534 9.22742 8.16973 11.9678C8.15692 13.0435 8.15692 13.0563 7.78556 13.21C6.94039 13.5557 6.14644 14.8619 6.14644 15.8863C6.14644 17.4742 7.59347 18.9213 9.23259 18.9725L9.66798 18.9853L9.21978 19.1261C8.59231 19.331 7.51664 20.4323 7.32456 21.0854C6.966 22.2891 7.22211 23.2495 8.13131 24.1459C8.77159 24.799 9.43748 25.1064 10.1674 25.1064C10.5516 25.1064 10.526 25.0423 10.8077 26.6174C11.2815 29.2298 12.6773 32.4568 14.0859 34.1855C14.9439 35.2356 15.0847 35.7734 14.5597 35.9143C14.3932 35.9527 13.8554 36.2728 13.3432 36.6314C12.3828 37.3101 11.5376 38.2449 11.1022 39.1413C10.8589 39.6535 10.8077 39.6791 9.82165 39.948C7.73434 40.5115 5.8263 41.5872 4.18719 43.1494C2.44562 44.8142 1.30593 46.6198 0.601619 48.8607C0.127812 50.3718 -0.000244141 51.5755 -0.000244141 54.572C-0.000244141 57.2612 -0.000244141 57.2612 0.319896 57.5685C0.729675 57.9911 1.31873 57.9911 1.72851 57.5685C2.04865 57.2612 2.04865 57.2484 2.04865 54.5976C2.04865 53.1378 2.11268 51.5627 2.17671 51.1017C2.75296 47.4521 5.04516 44.3404 8.36181 42.7269C9.00209 42.4067 9.69359 42.1122 9.89848 42.061L10.2442 41.9841V44.9294V47.8747L9.86006 48.0284C8.98928 48.3869 8.19534 49.6803 8.19534 50.7175C8.19534 52.3054 9.68079 53.7909 11.2687 53.7909C12.8566 53.7909 14.342 52.3054 14.342 50.7175C14.342 49.6803 13.5481 48.3869 12.6773 48.0284L12.2931 47.8747V44.891C12.2931 43.2391 12.3315 41.8177 12.37 41.7024C12.434 41.5359 12.6645 41.4975 13.5097 41.4975C14.5469 41.4975 14.5725 41.5103 14.7006 41.8433C14.7774 42.0482 16.1348 45.6593 17.7227 49.8852C19.6435 54.9946 20.7064 57.6454 20.8857 57.7862C21.3595 58.196 22.1406 57.9911 22.4095 57.3893C22.4992 57.21 23.7413 53.6884 25.1884 49.565C26.6354 45.4416 27.8647 42.0225 27.916 41.9713C27.9672 41.9201 28.1593 41.9329 28.3385 42.0225C28.6715 42.1762 28.6843 42.2018 28.6843 43.3415C28.6843 47.3113 30.1569 50.9096 32.9101 53.6628C37.3153 58.0552 43.7949 59.118 49.3653 56.352C52.2978 54.8922 54.3723 52.8177 55.8322 49.8852C58.5982 44.3148 57.5353 37.8351 53.143 33.43C48.6994 28.9865 42.0405 27.9492 36.4829 30.8177C33.115 32.5592 30.4259 35.7478 29.3758 39.2565C29.2477 39.6791 29.1325 40.0377 29.1197 40.0633C29.0557 40.1785 27.5318 39.6151 27.5318 39.4742C27.5318 39.3718 27.6855 38.3986 27.8647 37.2973L28.1977 35.2868L28.8252 34.6337C30.5283 32.8153 32.0266 29.5243 32.59 26.3485C32.7565 25.4265 32.8589 25.1064 33.0126 25.1064C33.973 25.1064 35.4072 23.9667 35.7018 22.9806C36.2012 21.2775 35.2792 19.6128 33.5504 19.0749C33.2687 18.9981 33.2943 18.9853 33.7297 18.9725C34.6389 18.9469 35.2536 18.678 35.9195 17.9993C37.1232 16.8083 37.2128 15.2076 36.15 13.9783C35.7402 13.4917 35.7274 13.4405 35.7274 12.4032C35.7274 9.30426 33.6913 5.5138 30.8228 3.2216C28.2617 1.19832 25.4189 0.429981 22.448 0.967815ZM26.7122 3.27282C28.0568 3.72102 29.0557 4.34849 30.2594 5.501C32.0009 7.16573 33.2687 9.38109 33.6273 11.3916C33.909 12.9667 34.0883 12.813 31.8345 12.813H29.8624L29.5807 12.3648C29.4398 12.1215 29.0172 11.6605 28.6459 11.3403C26.7378 9.61159 24.0871 9.26584 21.7821 10.4311C21.0778 10.7897 19.8612 11.8526 19.6051 12.352C19.5027 12.5313 19.3362 12.6849 19.2338 12.6849C18.9136 12.6849 17.2489 10.8665 16.7751 9.99576C16.3909 9.29145 16.2501 9.15059 15.8787 9.04815C14.8671 8.80484 12.3572 10.6104 11.5248 12.2111C11.2303 12.7618 11.1662 12.813 10.7437 12.813C10.3083 12.813 10.2698 12.7874 10.2058 12.3648C10.0265 11.2635 10.6028 9.56037 11.4736 8.58714C12.4468 7.51147 13.5097 6.97364 14.9951 6.79436C15.7762 6.70472 15.9043 6.64069 16.7879 5.92358C20.0917 3.2216 23.6901 2.26118 26.7122 3.27282ZM15.725 12.1087L16.2501 12.813H14.9055H13.5737L13.7786 12.4928C13.9835 12.1855 14.9439 11.4044 15.1232 11.4044C15.1616 11.4044 15.4433 11.7245 15.725 12.1087ZM26.5201 12.3136C27.3781 12.7746 27.7751 13.1843 28.2745 14.1448C28.5562 14.6954 28.6075 14.9643 28.6075 15.8863C28.6203 16.8852 28.5818 17.0388 28.1849 17.7816C27.6983 18.678 27.2885 19.0621 26.3281 19.5743C25.7774 19.8561 25.5085 19.9073 24.5865 19.9073C23.6645 19.9073 23.3956 19.8561 22.8449 19.5743C21.8845 19.0621 21.4747 18.678 20.9881 17.7816C20.5912 17.0388 20.5527 16.8852 20.5655 15.8863C20.5655 14.6058 20.8729 13.8374 21.7052 13.0051C22.9858 11.7245 24.8938 11.4556 26.5201 12.3136ZM18.5038 15.8863V16.9108H13.6633H8.82281L8.51548 16.5906C8.31059 16.3986 8.19534 16.1296 8.19534 15.8863C8.19534 15.643 8.31059 15.3741 8.51548 15.182L8.82281 14.8619H13.6633H18.5038V15.8863ZM34.5108 15.182C34.7157 15.3741 34.831 15.643 34.831 15.8863C34.831 16.1296 34.7157 16.3986 34.5108 16.5906C34.2163 16.898 34.1395 16.9108 32.4363 16.9108H30.6692V15.8863V14.8619H32.4363C34.1395 14.8619 34.2163 14.8747 34.5108 15.182ZM19.5923 19.4079C19.7332 19.6512 20.143 20.0866 20.4759 20.3939C22.4352 22.1483 25.0603 22.5196 27.3781 21.3415C28.1208 20.9701 29.2093 20.0097 29.5807 19.4079C29.824 19.0237 29.9264 18.9597 30.3618 18.9597H30.8612V21.7513C30.8612 23.7105 30.7972 24.9143 30.6564 25.7594C30.2594 28.1413 29.0941 30.9841 27.8263 32.6745C26.3153 34.6721 23.6901 35.8631 21.1802 35.6838C18.1965 35.4661 15.9427 33.8782 14.4445 30.9201C12.9462 27.962 12.562 26.2461 12.4596 21.9946L12.3956 18.9597H15.8531H19.3106L19.5923 19.4079ZM10.3723 22.033C10.3723 22.9806 10.3467 23.0575 10.1162 23.0575C9.7064 23.0575 9.21978 22.494 9.21978 22.033C9.21978 21.572 9.7064 21.0086 10.1162 21.0086C10.3467 21.0086 10.3723 21.0854 10.3723 22.033ZM33.5504 21.3927C34.0242 21.8665 33.7169 22.9294 33.1022 22.9294C32.9486 22.9294 32.9101 22.7501 32.9101 22.033C32.9101 21.047 33.0638 20.9061 33.5504 21.3927ZM45.9846 31.6244C48.2769 32.2135 50.0696 33.2507 51.7344 34.9539C53.3863 36.6186 54.4492 38.5138 55.0254 40.806C55.3327 42.0225 55.3327 45.0703 55.0254 46.2868C54.4363 48.6174 53.4247 50.423 51.7344 52.1262C49.98 53.9061 48.1488 54.9562 45.767 55.5453C44.512 55.8526 41.6179 55.8526 40.3374 55.5453C35.6761 54.4056 32.193 50.948 31.0277 46.2868C30.7204 45.0703 30.7204 42.0225 31.0277 40.806C31.604 38.5138 32.6668 36.6186 34.3188 34.9539C36.2012 33.033 38.2757 31.9317 40.888 31.4323C42.1686 31.189 44.7169 31.2787 45.9846 31.6244ZM18.2861 37.1436C20.4375 37.9248 22.7809 37.9504 24.8554 37.1948C25.3548 37.0156 25.7774 36.8875 25.803 36.9131C25.8414 36.9515 25.4957 39.1029 25.4317 39.1541C25.4189 39.1797 24.9451 39.3078 24.3944 39.4486C22.3967 39.9608 20.3222 39.9096 18.363 39.3078C17.9148 39.1669 17.5434 39.0388 17.5434 39.026C17.5434 39.0132 17.4538 38.5138 17.3513 37.912C17.1336 36.6954 17.1464 36.7595 17.1977 36.7595C17.2233 36.7595 17.7099 36.9259 18.2861 37.1436ZM15.2896 38.1297C15.3152 38.2577 15.3921 38.6035 15.4305 38.898L15.5201 39.4486H14.3932H13.2664L13.6505 39.0517C14.0603 38.6035 14.9567 37.912 15.1232 37.912C15.1744 37.912 15.2512 38.0144 15.2896 38.1297ZM19.8356 41.7152C21.2314 41.9073 21.59 41.9073 22.909 41.7664C23.7285 41.664 24.7274 41.5615 25.1243 41.5359L25.8671 41.4719L25.6622 42.0354C25.5597 42.3299 24.5993 45.0575 23.5364 48.0924C22.4736 51.1145 21.5772 53.6756 21.526 53.7525C21.4619 53.8805 20.2198 50.7175 16.8007 41.6128C16.7239 41.4335 18.1197 41.4719 19.8356 41.7152ZM11.973 50.0132C12.1779 50.2053 12.2931 50.4742 12.2931 50.7175C12.2931 50.9609 12.1779 51.2298 11.973 51.4219C11.7809 51.6267 11.512 51.742 11.2687 51.742C11.0254 51.742 10.7565 51.6267 10.5644 51.4219C10.3595 51.2298 10.2442 50.9609 10.2442 50.7175C10.2442 50.4742 10.3595 50.2053 10.5644 50.0132C10.7565 49.8084 11.0254 49.6931 11.2687 49.6931C11.512 49.6931 11.7809 49.8084 11.973 50.0132Z" fill="black"/>
<path d="M23.5619 12.9797C22.9344 13.1846 21.8588 14.2859 21.6667 14.939C21.3081 16.1427 21.5642 17.1031 22.4734 17.9995C23.1265 18.6654 23.7796 18.96 24.5863 18.96C25.3931 18.96 26.0462 18.6654 26.6993 17.9995C27.9542 16.7574 27.9926 15.1567 26.8017 13.8377C25.9694 12.9157 24.7784 12.5956 23.5619 12.9797ZM25.2907 15.1823C25.9309 15.8098 25.4827 16.9111 24.5863 16.9111C24.0613 16.9111 23.5619 16.4116 23.5619 15.8866C23.5619 15.3616 24.0613 14.8622 24.5863 14.8622C24.8297 14.8622 25.0986 14.9774 25.2907 15.1823Z" fill="black"/>
<path d="M39.6467 52.574C39.3001 52.4889 39.0641 52.2757 38.9202 52.1111C38.7708 51.9401 38.646 51.7358 38.5374 51.531C38.1208 50.7461 37.5494 49.1797 36.5784 46.4558L36.5774 46.4548C35.7985 44.2587 35.3428 42.9458 35.0823 42.0964C34.8204 41.2429 34.7278 40.7708 34.7278 40.281C34.7278 38.4819 35.9087 36.772 37.6145 36.1531C38.1348 35.9598 38.7905 35.9144 39.3508 35.9412C39.9156 35.9681 40.5708 36.0771 41.0725 36.323L41.0793 36.3259C41.244 36.4083 41.4064 36.5041 41.5403 36.5984C41.6039 36.6432 41.686 36.7046 41.7629 36.7791C41.7998 36.8147 41.8607 36.8769 41.9192 36.9617C41.9557 37.0147 42.1057 37.2336 42.1057 37.5535C42.1057 37.8455 41.9853 38.0562 41.9182 38.155C41.8449 38.263 41.7649 38.3408 41.7112 38.3884C41.6479 38.4446 41.5807 38.493 41.5178 38.5349C41.9805 38.2684 42.5062 37.9376 43.1135 37.5242V37.5232C44.5301 36.5512 45.3093 36.0923 46.176 35.9441C45.9391 35.9667 45.7373 36.0022 45.5481 36.0535C45.1755 36.1544 44.7929 36.3295 44.2434 36.658L43.5051 37.1033L42.9612 37.4314L41.8625 36.699C40.7366 35.9592 39.0745 35.683 37.9436 35.9949C36.9352 36.2788 36.1269 36.8466 35.5159 37.7L35.5139 37.7039L35.3704 37.9148C34.6875 38.9849 34.5096 40.2891 34.9104 41.7283H34.9114L34.9133 41.739C35.1532 42.6386 37.5714 49.4807 38.1389 50.9158C38.4354 51.6425 38.7277 52.0564 38.9954 52.2859C39.1818 52.4457 39.3851 52.5417 39.6467 52.574ZM46.3323 52.571C46.6263 52.5355 46.8542 52.4371 47.0481 52.2869C47.3041 52.0885 47.5702 51.7467 47.8147 51.1667V51.1658C48.0572 50.5838 48.8403 48.4172 49.6018 46.2517C50.3694 44.0689 51.0674 42.023 51.1624 41.6492V41.6472C51.5701 40.0491 51.3209 38.7556 50.4875 37.6433C50.0106 37.0111 49.523 36.5967 48.9895 36.3318C48.5774 36.1271 48.1023 35.9959 47.5286 35.9431C49.6611 36.2696 51.3254 38.0402 51.3254 40.2683C51.3254 40.7581 51.2332 41.2335 50.968 42.0955C50.704 42.9535 50.2413 44.2799 49.4495 46.4958C48.4842 49.196 47.9376 50.7078 47.55 51.4705C47.4488 51.6697 47.3362 51.8638 47.2043 52.0291C47.0755 52.1905 46.8729 52.3942 46.5725 52.5066C46.4903 52.5373 46.4101 52.5584 46.3323 52.571ZM38.7786 39.5623C38.9125 39.5402 39.0924 39.5027 39.3772 39.4431V39.4441C39.857 39.3422 40.3887 39.1407 41.0588 38.7878C40.9512 38.8387 40.8388 38.8881 40.7268 38.9343C40.256 39.1286 39.6573 39.3263 39.1672 39.4197H39.1653C38.9778 39.4549 38.8408 39.5059 38.7473 39.5535C38.7521 39.5575 38.7566 39.5614 38.761 39.5652C38.7665 39.5643 38.7726 39.5632 38.7786 39.5623ZM46.095 52.5867H46.1018C46.1108 52.5866 46.1202 52.5859 46.1292 52.5857C45.8177 52.5837 45.5604 52.465 45.4036 52.3718L45.2522 52.2712C44.926 52.0562 44.735 51.7556 44.6096 51.4558C44.4894 51.1683 44.4005 50.8128 44.3167 50.408C43.905 48.5428 43.6562 47.4796 43.469 46.8396C43.3758 46.521 43.3092 46.3456 43.261 46.2449C43.2386 46.1981 43.223 46.1748 43.2161 46.1648C43.2104 46.1566 43.2071 46.153 43.2034 46.1492C43.1491 46.0949 43.0875 46.0719 43.0276 46.0701C42.9675 46.0683 42.8924 46.0873 42.8176 46.1511L42.8088 46.1589L42.8 46.1658L42.7893 46.1746C42.7789 46.1934 42.7491 46.2533 42.7014 46.3992C42.5833 46.7604 42.4311 47.3975 42.1448 48.6599L42.1438 48.6638L41.8518 49.8708C41.7608 50.2283 41.6765 50.5397 41.5999 50.8015C41.5238 51.0614 41.4505 51.2877 41.3821 51.4675C41.3482 51.5567 41.3103 51.6504 41.2668 51.7371C41.2355 51.7996 41.1562 51.9532 41.0188 52.0906C40.9411 52.1683 40.8186 52.2839 40.6643 52.3845C40.8296 52.2939 40.9806 52.1749 41.1155 52.0251C41.4551 51.648 41.7402 51.0383 41.8557 50.1638L41.8577 50.1541L41.8586 50.1433C41.8885 49.9491 41.9318 49.7421 41.9915 49.5691C42.0135 49.5053 42.0721 49.3381 42.1936 49.1814C42.2454 49.1146 42.4161 48.9065 42.7288 48.8162C43.1525 48.6938 43.5229 48.8652 43.7336 49.0759C43.8782 49.2204 43.9487 49.3839 43.9553 49.3982C43.9814 49.4539 44.0029 49.5091 44.0188 49.5525C44.0516 49.6418 44.0851 49.7461 44.1165 49.8513C44.1802 50.0657 44.252 50.3361 44.3186 50.6091L44.3206 50.6199L44.3235 50.6306C44.5057 51.4561 44.7726 51.942 45.0452 52.2126C45.2895 52.4552 45.6069 52.5953 46.095 52.5867Z" stroke="#67BEC1" stroke-width="2"/>
</svg>
