<svg width="70" height="54" viewBox="0 0 70 54" fill="none" xmlns="http://www.w3.org/2000/svg">
<path d="M40.6135 30.481C40.3402 31.2205 39.9517 31.9313 39.4426 32.5845C38.5002 33.7933 36.6786 35.5902 34.9504 37.2163C33.908 38.1971 32.8651 39.1441 32.011 39.9126L32.012 39.9106L29.1184 38.7134C30.0475 37.8885 31.5337 36.5571 33.0168 35.1616C34.7681 33.5139 36.4302 31.8605 37.218 30.8501C37.5799 30.3858 37.8464 29.8788 38.0217 29.353L40.6135 30.481ZM19.8899 21.9429C22.8219 19.4463 26.5377 19.9388 29.1018 22.0249C31.1529 20.3515 33.9172 19.7255 36.4592 20.8081L35.6038 23.5259C33.7751 22.6172 31.6477 23.1879 30.1741 24.9048C29.9062 25.2169 29.515 25.3968 29.1038 25.397C28.6923 25.397 28.3014 25.217 28.0334 24.9048C26.3046 22.8899 23.6463 22.4495 21.719 24.0903C19.637 25.8636 19.3636 28.7833 20.9749 30.8501C21.5262 31.5573 22.5054 32.5792 23.6438 33.6938L20.3088 34.3384C19.6841 33.6883 19.1405 33.0863 18.7493 32.5845C16.1984 29.3122 16.6718 24.6838 19.8899 21.9429ZM38.2375 28.4155L38.2327 28.4243C38.2331 28.421 38.2342 28.4178 38.2346 28.4146L38.2375 28.4155Z" fill="#67BEC1"/>
<path d="M58.4375 0.285088C58.1221 0.434502 57.707 0.799736 57.5244 1.09856L57.1924 1.62981L46.1025 1.64642C36.125 1.64642 34.9297 1.67962 34.415 1.92864C33.8008 2.21087 26.7285 10.1962 26.0146 11.3915C25.666 11.9892 25.6494 12.2382 25.5996 15.6083L25.5498 19.1943L26.5459 19.3603L27.5586 19.5263V15.9902V12.454L31.3105 8.12102C33.3691 5.7304 35.2451 3.70501 35.4775 3.622C35.7266 3.53899 40.1592 3.48919 46.5342 3.50579L57.1924 3.55559L57.2422 8.65227L57.2754 13.7656H55.3496H53.4072L52.0625 15.1601C50.3691 16.9032 49.1738 17.7831 47.2314 18.746L45.7041 19.4931L43.0977 22.5976C41.4541 24.5898 40.3584 25.7519 40.1094 25.8183C39.2129 26.0341 38.1836 25.2372 38.1836 24.3407C38.1836 23.079 38.582 22.332 40.4912 20.124C41.9688 18.3808 42.334 17.8495 42.334 17.4345C42.334 16.4716 41.3379 12.205 41.0391 11.9062C40.7402 11.6074 36.3076 10.6113 35.2617 10.6113C34.7803 10.6113 34.5312 10.8437 32.7217 12.8857L30.7129 15.1601V17.4511C30.7129 18.7128 30.7627 19.7421 30.8457 19.7421C30.9121 19.7255 31.3438 19.6259 31.792 19.5097L32.6221 19.2939L32.6719 17.5839L32.7217 15.8906L34.1494 14.2304C35.2783 12.9355 35.6768 12.6034 35.9424 12.6699C36.125 12.7031 36.9551 12.8691 37.7686 13.0185C38.5986 13.1679 39.3623 13.3339 39.4453 13.4003C39.5449 13.4667 39.7939 14.3466 39.9932 15.3593L40.3916 17.2021L38.6982 19.1777C36.8721 21.3193 36.3906 22.249 36.2412 23.9091C36.1084 25.1874 36.3906 25.9013 37.3535 26.7646C38.3994 27.7109 39.4121 28.0097 40.4912 27.7275C41.5869 27.4286 41.9854 27.0634 44.5752 23.9257C46.8994 21.12 46.8994 21.12 48.4102 20.3398C50.2363 19.4101 51.8633 18.2148 53.2246 16.8036L54.2373 15.7577H55.7314C57.1924 15.7577 57.2256 15.7577 57.5908 16.2724C58.2383 17.1523 58.7363 17.2519 62.2559 17.2519C65.8086 17.2519 66.3398 17.1357 66.9043 16.2226C67.2197 15.6913 67.2363 15.4091 67.2363 8.60247V1.5302L66.8545 0.965752C66.29 0.119072 65.7422 0.00286102 62.1729 0.00286102C59.4834 -0.0137405 58.9355 0.0360641 58.4375 0.285088ZM65.2441 8.61907V15.2597H62.2559H59.2676V8.61907V1.97845H62.2559H65.2441V8.61907Z" fill="black"/>
<path d="M41.5869 34.252C40.5576 34.584 39.7275 35.0488 37.9346 36.3437C37.0215 36.9912 36.0586 37.6387 35.8096 37.7881L35.3281 38.0205L35.9756 38.3691C36.3242 38.5518 36.7227 38.8174 36.8887 38.9502C37.1211 39.166 37.2373 39.1494 37.8018 38.8672C38.1504 38.6846 38.9141 38.1367 39.5117 37.6719C41.0225 36.4434 42.1514 35.9453 43.1807 36.0449C43.9443 36.1279 44.8242 36.6426 44.8242 37.041C44.8242 37.1074 43.4297 38.1035 41.7197 39.249L38.5986 41.3242V42.4863C38.5986 43.1172 38.6152 43.6484 38.6484 43.6484C38.665 43.6484 40.2754 42.5693 42.2178 41.2578C46.6006 38.3027 47.1318 38.0869 48.1279 38.9336C48.543 39.2822 48.6426 39.4814 48.6426 40.0127C48.6426 40.5439 48.5264 40.7764 48.0117 41.2744C47.4639 41.8223 34.1162 50.2227 32.3066 51.1689C31.875 51.4014 31.2275 51.5508 30.5303 51.584C29.4844 51.6504 29.252 51.584 24.7197 49.874C22.1299 48.8945 19.6396 47.9814 19.1748 47.8652C17.8135 47.4834 16.6514 47.583 14.5928 48.2139C13.5469 48.5293 12.6504 48.7949 12.584 48.7949C12.501 48.7949 12.4512 46.5537 12.4512 43.8145V38.834L12.833 38.6016C13.0322 38.4687 13.6797 38.1865 14.2773 37.9873C15.207 37.6553 15.6719 37.6055 17.5977 37.6221C20.3203 37.6387 21.4824 37.9043 26.1807 39.6475C29.5342 40.876 31.1279 41.374 32.7881 41.6729C34.083 41.9053 34.5312 42.1875 34.5312 42.8184C34.5312 43.167 34.3818 43.3994 34 43.6982C33.0371 44.3955 32.3896 44.5615 30.6299 44.5449C28.7373 44.5283 27.5254 44.2461 25.5498 43.3828C24.0723 42.7354 23.5244 42.7354 23.2256 43.3828C22.9434 43.9805 23.2754 44.4121 24.5371 45.043C26.4629 46.0059 27.7412 46.3379 30.0488 46.4209C31.5928 46.4873 32.373 46.4375 33.0869 46.2549C35.1787 45.707 36.3574 44.5449 36.4902 42.918C36.6396 41.0752 35.8262 40.3779 32.5723 39.5811C31.2939 39.2656 28.5381 38.4023 26.4629 37.6553C21.9473 36.0615 20.5527 35.6963 18.3447 35.5635C16.4688 35.4473 14.4434 35.7793 13.1982 36.377L12.4678 36.7422L12.1191 36.2939C11.9199 36.0615 11.4883 35.7793 11.1562 35.6797C10.376 35.4639 4.15039 35.4639 3.58594 35.6797C3.35352 35.7627 3.03809 36.0781 2.87207 36.377C2.60645 36.875 2.57324 37.5557 2.52344 43.6816C2.49023 47.7158 2.54004 50.6875 2.63965 51.0361L2.78906 51.6172H1.75977C0.53125 51.6172 0 51.916 0 52.5967C0 52.8457 0.132812 53.1777 0.298828 53.3271C0.581055 53.5928 3.2207 53.6094 34.8965 53.6094C67.9004 53.6094 69.1953 53.5928 69.4443 53.3105C69.793 52.9287 69.8096 52.4473 69.4941 52.0156C69.2617 51.7002 68.8467 51.7002 52.4277 51.6172L35.6104 51.5342L42.168 47.4668C49.0244 43.2002 50.0703 42.4199 50.4355 41.208C51.1162 38.9336 49.8711 36.9912 47.5137 36.5928C47.0654 36.5264 46.75 36.377 46.7002 36.2109C46.1025 34.5176 43.6787 33.5879 41.5869 34.252ZM10.625 44.5615V51.6172H7.55371H4.48242V44.5615V37.5059H7.55371H10.625V44.5615ZM20.8848 50.5547C22.2295 51.0693 23.3584 51.5176 23.3916 51.5508C23.4248 51.584 20.9512 51.6172 17.8965 51.6172H12.335L12.418 51.2021C12.4512 50.9697 12.6006 50.7871 12.7666 50.7705C12.916 50.7705 13.8125 50.5215 14.7754 50.2061C17.3154 49.376 17.8799 49.4092 20.8848 50.5547Z" fill="black"/>
</svg>
