<svg width="285" height="68" viewBox="0 0 285 68" fill="none" xmlns="http://www.w3.org/2000/svg">
<path fill-rule="evenodd" clip-rule="evenodd" d="M38.0244 34.0775C38.0244 36.3476 36.1799 38.192 33.9098 38.192C31.6397 38.192 29.7953 36.3476 29.7953 34.0775C29.7953 31.8074 31.6397 29.9629 33.9098 29.9629C36.1799 29.9629 38.0244 31.8074 38.0244 34.0775ZM28.0927 63.8855C28.0927 66.1556 26.2482 68.0001 23.9781 68.0001C21.708 68.0001 19.8636 66.1556 19.8636 63.8855C19.8636 61.6154 21.708 59.7709 23.9781 59.7709C27.925 59.7709 29.8082 59.0873 29.8082 54.2891C29.8082 49.491 28.2475 48.1237 23.9781 48.1237C19.1799 48.1237 18.1481 50.3165 18.1481 54.2891C18.1481 56.5592 16.3036 58.4037 14.0335 58.4037C11.7634 58.4037 9.91895 56.5592 9.91895 54.2891C9.91895 52.019 11.7634 50.1746 14.0335 50.1746C18.3029 50.1746 19.8636 48.5752 19.8636 44.0092C19.8636 41.7391 21.708 39.8946 23.9781 39.8946C26.2482 39.8946 28.0927 41.7391 28.0927 44.0092C28.0927 47.9819 29.1117 50.1746 33.9227 50.1746C38.1921 50.1746 39.7399 48.5752 39.7399 44.0092C39.7399 41.7391 41.5843 39.8946 43.8545 39.8946C46.1246 39.8946 47.969 41.7391 47.969 44.0092C47.969 48.5752 49.5297 50.1746 53.7862 50.1746C56.0563 50.1746 57.9007 52.019 57.9007 54.2891C57.9007 56.5592 56.0563 58.4037 53.7862 58.4037C51.5161 58.4037 49.6716 56.5592 49.6716 54.2891C49.6716 50.3165 48.6526 48.1237 43.8545 48.1237C39.0563 48.1237 38.0244 50.3165 38.0244 54.2891C38.0244 59.0873 39.9076 59.7709 43.8545 59.7709C46.1246 59.7709 47.969 61.6154 47.969 63.8855C47.969 66.1556 46.1246 68.0001 43.8545 68.0001C41.5843 68.0001 39.7399 66.1556 39.7399 63.8855C39.7399 59.5775 38.4243 58.4037 33.9227 58.4037C29.4212 58.4037 28.0927 59.5775 28.0927 63.8855Z" fill="white"/>
<path fill-rule="evenodd" clip-rule="evenodd" d="M29.808 33.9097C29.808 31.6396 31.6524 29.7951 33.9225 29.7951C36.1926 29.7951 38.0371 31.6396 38.0371 33.9097C38.0371 36.1798 36.1926 38.0243 33.9225 38.0243C31.6524 38.0243 29.808 36.1798 29.808 33.9097ZM39.7397 4.11457C39.7397 1.84446 41.5841 0 43.8542 0C46.1244 0 47.9688 1.84446 47.9688 4.11457C47.9688 6.38467 46.1244 8.22914 43.8542 8.22914C39.9074 8.22914 38.0242 8.91275 38.0242 13.7109C38.0242 18.5091 39.5849 19.8763 43.8542 19.8763C48.6524 19.8763 49.6843 17.6836 49.6843 13.7109C49.6843 11.4408 51.5288 9.59636 53.7989 9.59636C56.069 9.59636 57.9134 11.4408 57.9134 13.7109C57.9134 15.981 56.069 17.8255 53.7989 17.8255C49.5295 17.8255 47.9688 19.4249 47.9688 23.9909C47.9688 26.261 46.1244 28.1055 43.8542 28.1055C41.5841 28.1055 39.7397 26.261 39.7397 23.9909C39.7397 20.0182 38.7207 17.8255 33.9096 17.8255C29.6403 17.8255 28.0925 19.4249 28.0925 23.9909C28.0925 26.261 26.248 28.1055 23.9779 28.1055C21.7078 28.1055 19.8634 26.261 19.8634 23.9909C19.8634 19.4249 18.3027 17.8255 14.0462 17.8255C11.7761 17.8255 9.93164 15.981 9.93164 13.7109C9.93164 11.4408 11.7761 9.59636 14.0462 9.59636C16.3163 9.59636 18.1608 11.4408 18.1608 13.7109C18.1608 17.6836 19.1797 19.8763 23.9779 19.8763C28.7761 19.8763 29.808 17.6836 29.808 13.7109C29.808 8.91275 27.9248 8.22914 23.9779 8.22914C21.7078 8.22914 19.8634 6.38467 19.8634 4.11457C19.8634 1.84446 21.7078 0 23.9779 0C26.248 0 28.0925 1.84446 28.0925 4.11457C28.0925 8.42261 29.4081 9.59636 33.9096 9.59636C38.4112 9.59636 39.7397 8.42261 39.7397 4.11457Z" fill="white"/>
<path fill-rule="evenodd" clip-rule="evenodd" d="M33.9871 30.1175C36.2572 30.1175 38.1017 31.962 38.1017 34.2321C38.1017 36.5022 36.2572 38.3467 33.9871 38.3467C31.717 38.3467 29.8726 36.5022 29.8726 34.2321C29.8726 31.962 31.717 30.1175 33.9871 30.1175ZM63.7952 40.0492C66.0653 40.0492 67.9097 41.8937 67.9097 44.1638C67.9097 46.4339 66.0653 48.2784 63.7952 48.2784C61.5251 48.2784 59.6806 46.4339 59.6806 44.1638C59.6806 40.2169 58.997 38.3338 54.1988 38.3338C49.4006 38.3338 48.0334 39.8945 48.0334 44.1638C48.0334 48.962 50.2261 49.9939 54.1988 49.9939C56.4689 49.9939 58.3134 51.8383 58.3134 54.1084C58.3134 56.3785 56.4689 58.223 54.1988 58.223C51.9287 58.223 50.0842 56.3785 50.0842 54.1084C50.0842 49.8391 48.4848 48.2784 43.9188 48.2784C41.6487 48.2784 39.8043 46.4339 39.8043 44.1638C39.8043 41.8937 41.6487 40.0492 43.9188 40.0492C47.8915 40.0492 50.0842 39.0303 50.0842 34.2192C50.0842 29.9499 48.4848 28.4021 43.9188 28.4021C41.6487 28.4021 39.8043 26.5576 39.8043 24.2875C39.8043 22.0174 41.6487 20.1729 43.9188 20.1729C48.4848 20.1729 50.0842 18.6122 50.0842 14.3558C50.0842 12.0857 51.9287 10.2412 54.1988 10.2412C56.4689 10.2412 58.3134 12.0857 58.3134 14.3558C58.3134 16.6259 56.4689 18.4703 54.1988 18.4703C50.2261 18.4703 48.0334 19.4893 48.0334 24.2875C48.0334 29.0857 50.2261 30.1175 54.1988 30.1175C58.997 30.1175 59.6806 28.2344 59.6806 24.2875C59.6806 22.0174 61.5251 20.1729 63.7952 20.1729C66.0653 20.1729 67.9097 22.0174 67.9097 24.2875C67.9097 26.5576 66.0653 28.4021 63.7952 28.4021C59.4871 28.4021 58.3134 29.7177 58.3134 34.2192C58.3134 38.7207 59.4871 40.0492 63.7952 40.0492Z" fill="white"/>
<path fill-rule="evenodd" clip-rule="evenodd" d="M33.9097 38.3337C31.6396 38.3337 29.7951 36.4893 29.7951 34.2192C29.7951 31.9491 31.6396 30.1046 33.9097 30.1046C36.1798 30.1046 38.0243 31.9491 38.0243 34.2192C38.0243 36.4893 36.1798 38.3337 33.9097 38.3337ZM4.11457 28.402C1.84446 28.402 0 26.5576 0 24.2874C0 22.0173 1.84446 20.1729 4.11457 20.1729C6.38467 20.1729 8.22914 22.0173 8.22914 24.2874C8.22914 28.2343 8.91275 30.1175 13.7109 30.1175C18.5091 30.1175 19.8763 28.5568 19.8763 24.2874C19.8763 19.4893 17.6836 18.4574 13.7109 18.4574C11.4408 18.4574 9.59636 16.6129 9.59636 14.3428C9.59636 12.0727 11.4408 10.2283 13.7109 10.2283C15.981 10.2283 17.8255 12.0727 17.8255 14.3428C17.8255 18.6122 19.4249 20.1729 23.9909 20.1729C26.261 20.1729 28.1055 22.0173 28.1055 24.2874C28.1055 26.5576 26.261 28.402 23.9909 28.402C20.0182 28.402 17.8255 29.421 17.8255 34.2321C17.8255 38.5014 19.4249 40.0492 23.9909 40.0492C26.261 40.0492 28.1055 41.8937 28.1055 44.1638C28.1055 46.4339 26.261 48.2783 23.9909 48.2783C19.4249 48.2783 17.8255 49.839 17.8255 54.0955C17.8255 56.3656 15.981 58.2101 13.7109 58.2101C11.4408 58.2101 9.59636 56.3656 9.59636 54.0955C9.59636 51.8254 11.4408 49.9809 13.7109 49.9809C17.6836 49.9809 19.8763 48.962 19.8763 44.1638C19.8763 39.3656 17.6836 38.3337 13.7109 38.3337C8.91275 38.3337 8.22914 40.2169 8.22914 44.1638C8.22914 46.4339 6.38467 48.2783 4.11457 48.2783C1.84446 48.2783 0 46.4339 0 44.1638C0 41.8937 1.84446 40.0492 4.11457 40.0492C8.42261 40.0492 9.59636 38.7336 9.59636 34.2321C9.59636 29.7305 8.42261 28.402 4.11457 28.402Z" fill="white"/>
<path fill-rule="evenodd" clip-rule="evenodd" d="M33.9097 38.3339C31.6396 38.3339 29.7952 36.4894 29.7952 34.2193C29.7952 31.9492 31.6396 30.1047 33.9097 30.1047C36.1798 30.1047 38.0243 31.9492 38.0243 34.2193C38.0243 36.4894 36.1798 38.3339 33.9097 38.3339Z" fill="white"/>
<path d="M84.9612 50.7422H86.7412L88.9597 57.4235L91.204 50.7422H92.984L94.5963 60.3256H92.8292L91.7974 54.2763L89.7594 60.3256H88.1471L86.135 54.2763L85.0773 60.3256H83.2974L84.9612 50.7422Z" fill="white"/>
<path d="M99.5234 50.7421H104.76V52.5221H101.342V54.2505H104.76V56.0047H101.342V58.5198H104.76V60.3127H99.5234V50.7292V50.7421Z" fill="white"/>
<path d="M113.041 50.7422H114.885L117.968 58.6102H119.039V61.7574H117.271V60.3256H110.68V61.7574H108.913V58.6102H109.971L113.041 50.7422ZM113.982 53.2832L111.88 58.6102H116.072L113.982 53.2832Z" fill="white"/>
<path d="M130.66 50.7422V60.3256H128.841V54.3279L125.269 60.3256H123.682V50.7422H125.501V56.9334L129.125 50.7422H130.66Z" fill="white"/>
<path d="M136.31 60.3256V50.7422H138.154V58.6876H141.366V50.7422H143.21V58.6876H145.158V61.7574H143.455V60.3256H136.31Z" fill="white"/>
<path d="M156.779 50.7422V60.3256H154.96V54.3279L151.388 60.3256H149.801V50.7422H151.62V56.9334L155.244 50.7422H156.779Z" fill="white"/>
<path d="M162.428 50.7422H164.273V54.3537H167.472V50.7422H169.316V60.3256H167.472V56.1208H164.273V60.3256H162.428V50.7422Z" fill="white"/>
<path d="M183.788 52.419L182.511 53.6315C181.647 52.7157 180.667 52.2514 179.583 52.2514C178.668 52.2514 177.894 52.5609 177.275 53.1929C176.643 53.825 176.333 54.586 176.333 55.5017C176.333 56.1467 176.475 56.7142 176.746 57.2043C177.017 57.6945 177.416 58.0943 177.92 58.3781C178.423 58.6618 178.99 58.8037 179.609 58.8037C180.138 58.8037 180.628 58.7005 181.067 58.5071C181.505 58.3136 181.983 57.9524 182.511 57.4236L183.75 58.7134C183.04 59.4099 182.369 59.8872 181.737 60.1451C181.105 60.4031 180.383 60.545 179.583 60.545C178.087 60.545 176.875 60.0678 175.92 59.1262C174.966 58.1846 174.501 56.9722 174.501 55.4888C174.501 54.5344 174.721 53.6831 175.146 52.935C175.585 52.1869 176.204 51.5936 177.004 51.1421C177.803 50.6907 178.681 50.4585 179.609 50.4585C180.396 50.4585 181.157 50.6262 181.892 50.9615C182.627 51.2969 183.259 51.7741 183.788 52.3803V52.419Z" fill="white"/>
<path d="M188.87 50.7422H190.715V54.0442L193.32 50.7422H195.513L192.172 55.0244L195.848 60.3256H193.681L190.727 56.0692V60.3256H188.883V50.7422H188.87Z" fill="white"/>
<path d="M207.573 50.7422V60.3256H205.754V54.3279L202.181 60.3256H200.595V50.7422H202.413V56.9334L206.038 50.7422H207.573Z" fill="white"/>
<path d="M220.213 50.7423V60.3257H218.394V54.328L214.822 60.3257H213.235V50.7423H215.054V56.9335L218.678 50.7423H220.213ZM214.112 48.1626H215.557C215.673 48.3432 215.828 48.4722 216.034 48.5624C216.24 48.6527 216.485 48.6914 216.769 48.6914C217.053 48.6914 217.337 48.6398 217.569 48.5367C217.724 48.4722 217.866 48.3432 217.982 48.1626H219.426C219.349 48.7172 219.078 49.1558 218.639 49.4911C218.188 49.8265 217.569 49.9942 216.769 49.9942C216.228 49.9942 215.776 49.9168 215.415 49.7749C215.054 49.6201 214.757 49.4137 214.538 49.13C214.319 48.8462 214.177 48.5366 214.125 48.1626H214.112Z" fill="white"/>
<path d="M233.073 60.3256V50.7422H234.917V58.6876H238.129V50.7422H239.973V58.6876H241.921V61.7574H240.218V60.3256H233.073Z" fill="white"/>
<path d="M246.564 50.7421H251.801V52.5221H248.383V54.2505H251.801V56.0047H248.383V58.5198H251.801V60.3127H246.564V50.7292V50.7421Z" fill="white"/>
<path d="M256.96 50.7422H258.805V54.3537H262.004V50.7422H263.848V60.3256H262.004V56.1208H258.805V60.3256H256.96V50.7422Z" fill="white"/>
<path d="M268.569 50.7422H273.87V52.5351H272.129V60.3256H270.285V52.5351H268.582V50.7422H268.569Z" fill="white"/>
<path d="M278.578 50.7422H280.513C281.558 50.7422 282.319 50.8325 282.783 51.026C283.247 51.2194 283.608 51.529 283.879 51.9675C284.15 52.4061 284.279 52.922 284.279 53.5153C284.279 54.186 284.099 54.7407 283.75 55.1792C283.402 55.6178 282.925 55.9273 282.332 56.1079C281.983 56.2111 281.338 56.2627 280.41 56.2627V60.3256H278.591V50.7422H278.578ZM280.397 54.4827H280.977C281.429 54.4827 281.751 54.444 281.932 54.3795C282.112 54.315 282.254 54.2118 282.357 54.0571C282.461 53.9023 282.512 53.7217 282.512 53.5153C282.512 53.1413 282.37 52.8704 282.086 52.7027C281.88 52.5738 281.493 52.5093 280.926 52.5093H280.41V54.4827H280.397Z" fill="white"/>
<path d="M84.5486 42.3967V12.2275H89.2952C92.0425 12.2275 94.0547 12.4081 95.3316 12.7564C97.1374 13.2336 98.582 14.1236 99.6396 15.4263C100.71 16.7291 101.239 18.2511 101.239 20.0181C101.239 21.1661 100.994 22.2108 100.517 23.1395C100.027 24.0811 99.2398 24.9582 98.1434 25.7708C99.975 26.635 101.316 27.7055 102.168 28.9954C103.019 30.2852 103.445 31.8201 103.445 33.5743C103.445 35.3285 103.006 36.8118 102.129 38.2048C101.252 39.5978 100.13 40.6426 98.7367 41.3391C97.3437 42.0356 95.4477 42.3709 93.0099 42.3709H84.5486V42.3967ZM90.2883 17.6964V24.0553H91.5395C92.9454 24.0553 93.9773 23.7586 94.6609 23.1782C95.3445 22.5849 95.6798 21.7852 95.6798 20.7791C95.6798 19.8376 95.3574 19.0895 94.7125 18.5348C94.0675 17.9802 93.0873 17.7093 91.7716 17.7093H90.2883V17.6964ZM90.2883 29.1888V36.9278H91.733C94.1191 36.9278 95.7314 36.6312 96.5569 36.025C97.3824 35.4187 97.8081 34.5417 97.8081 33.3937C97.8081 32.091 97.3179 31.072 96.3505 30.311C95.3832 29.55 93.758 29.1888 91.5008 29.1888H90.3012H90.2883Z" fill="white"/>
<path d="M110.874 12.2275H127.345V17.8512H116.575V23.3072H127.345V28.8277H116.575V36.7602H127.345V42.3967H110.874V12.2275Z" fill="white"/>
<path d="M148.498 37.2245V12.2275H154.277V37.2245H162.48V12.2275H168.31V42.3967H134.607V12.2275H140.437V37.2245H148.498Z" fill="white"/>
<path d="M177.068 12.2275H182.898V23.6168H192.972V12.2275H198.776V42.3967H192.972V29.163H182.898V42.3967H177.068V12.2275Z" fill="white"/>
<path d="M225.36 12.2275V42.3967H219.62V30.2594H218.188L212.126 42.3967H205.844L212.668 29.3178C208.708 28.1828 206.734 25.5386 206.734 21.3983C206.734 19.9149 206.941 18.638 207.354 17.5417C207.766 16.4453 208.36 15.5166 209.134 14.7556C209.907 13.9946 210.797 13.44 211.816 13.0788C212.835 12.7177 213.648 12.5113 214.241 12.4468C214.848 12.3952 216.511 12.3178 219.259 12.2275H225.347H225.36ZM219.62 24.6615V17.8512H218.046C216.615 17.8512 215.583 17.9415 214.964 18.1092C214.332 18.2769 213.829 18.6509 213.429 19.2184C213.029 19.786 212.835 20.4825 212.835 21.3209C212.835 22.5591 213.235 23.4362 214.022 23.9263C214.809 24.4165 216.086 24.6615 217.827 24.6615H219.633H219.62Z" fill="white"/>
<path d="M234.221 12.2275H240.025V22.6236L248.215 12.2275H255.116L244.578 25.6934L256.135 42.3967H249.325L240.025 28.9954V42.3967H234.221V12.2275Z" fill="white"/>
<path d="M284.124 12.2275V42.3967H278.385V23.5007L267.137 42.3967H262.146V12.2275H267.886V31.7298L279.288 12.2275H284.124Z" fill="white"/>
</svg>
