<svg width="86" height="20" viewBox="0 0 86 20" fill="none" xmlns="http://www.w3.org/2000/svg">
<g clip-path="url(#clip0_1_1126)">
<path fill-rule="evenodd" clip-rule="evenodd" d="M7.54732 4.51466H6.34362C4.15821 4.51466 3.00767 5.59311 3.00767 7.1925C3.00767 9.00514 3.80492 9.84292 5.4432 10.9244L6.79071 11.8079L2.89824 17.4743H0L3.48915 12.405C1.4757 11.0036 0.347039 9.64795 0.347039 7.33568C0.347039 4.4446 2.40426 2.48877 6.31548 2.48877H10.2079V17.4743H7.53794V4.51466H7.54732ZM21.2131 6.62891V17.4713H18.5838V12.9473H15.0665V17.4713H12.4371V6.62891H15.0665V10.9214H18.5838V6.62891H21.2131ZM33.0938 19.945H30.6582V17.4621H24.7492V19.945H22.3137V15.4423H23.1391C24.0645 13.6297 24.249 10.2024 24.249 7.55198V6.62281H31.9245V15.4393H33.0969V19.9419L33.0938 19.945ZM29.292 8.6548H26.5063V8.97468C26.5063 10.8483 26.3062 13.8033 25.5715 15.4454H29.2888V8.6548H29.292ZM38.9997 17.6784C35.6387 17.6784 33.7347 15.8475 33.7347 12.0729C33.7347 8.79799 35.2635 6.40652 38.4713 6.40652C41.1007 6.40652 42.8046 7.83226 42.8046 11.6007V12.9564H36.4578C36.5673 14.769 37.2989 15.6525 39.2248 15.6525C40.5066 15.6525 41.8792 15.1803 42.6952 14.635V16.731C41.9261 17.2489 40.688 17.6754 39.0028 17.6754L38.9997 17.6784ZM36.4547 11.0645H40.1283V10.8513C40.1283 9.49562 39.7281 8.44155 38.4244 8.44155C37.1707 8.42936 36.5298 9.34025 36.4578 11.0645H36.4547ZM47.2067 12.146V17.4743H44.5679V6.62891H47.2067V11.6251L50.9303 6.62891H53.5878L49.8704 11.6251L54.0912 17.4621H51.0991L47.2067 12.143V12.146ZM53.938 12.0577C53.938 15.6799 55.6419 17.6784 59.1623 17.6876C60.3785 17.6876 61.2414 17.4743 61.8824 17.0173V14.9275C61.2227 15.3844 60.4254 15.6586 59.3186 15.6586C57.4396 15.6586 56.6611 14.2329 56.6611 11.9907C56.6611 9.63576 57.6147 8.42936 59.3343 8.42936C60.3504 8.42936 61.3509 8.77666 61.8824 9.09958V6.92137C61.3321 6.61977 60.3566 6.40347 59.0529 6.40347C55.6888 6.40347 53.9411 8.74924 53.9411 12.0516L53.938 12.0577Z" fill="black"/>
<path fill-rule="evenodd" clip-rule="evenodd" d="M77.7898 0C73.2564 0 69.5828 3.58568 69.5828 8.00305C69.5828 10.1203 70.4457 12.1554 71.9839 13.6573C73.4721 15.1074 76.9706 17.2034 77.177 19.4029C77.2082 19.7319 77.4521 20 77.7898 20C78.1274 20 78.3744 19.7319 78.4026 19.4029C78.6089 17.2003 82.1074 15.1074 83.5925 13.6603C85.1307 12.1615 85.9968 10.1234 85.9968 8.00305C85.9999 3.58568 82.3232 0 77.7898 0Z" fill="#FF4433"/>
<path opacity="0.25" fill-rule="evenodd" clip-rule="evenodd" d="M77.7899 10.8091C79.3813 10.8091 80.6725 9.55089 80.6725 8.00024C80.6725 6.44959 79.3813 5.19141 77.7899 5.19141C76.1985 5.19141 74.9104 6.44959 74.9104 8.00024C74.9104 9.55089 76.2016 10.806 77.7899 10.806V10.8091Z" fill="black"/>
</g>
<defs>
<clipPath id="clip0_1_1126">
<rect width="86" height="20" fill="white"/>
</clipPath>
</defs>
</svg>
