<svg width="16" height="17" viewBox="0 0 16 17" fill="none" xmlns="http://www.w3.org/2000/svg">
<g clip-path="url(#clip0_1_746)">
<g clip-path="url(#clip1_1_746)">
<mask id="mask0_1_746" style="mask-type:luminance" maskUnits="userSpaceOnUse" x="0" y="0" width="16" height="17">
<path d="M16 0.5H0V16.5H16V0.5Z" fill="white"/>
</mask>
<g mask="url(#mask0_1_746)">
<path d="M8 0.5C3.58867 0.5 0 4.08867 0 8.5C0 12.9113 3.58867 16.5 8 16.5H16V8.5C16 4.08867 12.4113 0.5 8 0.5ZM14.6667 15.1667H8C4.324 15.1667 1.33333 12.176 1.33333 8.5C1.33333 4.824 4.324 1.83333 8 1.83333C11.676 1.83333 14.6667 4.824 14.6667 8.5V15.1667ZM9 8.5C9 9.052 8.552 9.5 8 9.5C7.448 9.5 7 9.052 7 8.5C7 7.948 7.448 7.5 8 7.5C8.552 7.5 9 7.948 9 8.5ZM12.3333 8.5C12.3333 9.052 11.8853 9.5 11.3333 9.5C10.7813 9.5 10.3333 9.052 10.3333 8.5C10.3333 7.948 10.7813 7.5 11.3333 7.5C11.8853 7.5 12.3333 7.948 12.3333 8.5ZM5.66667 8.5C5.66667 9.052 5.21867 9.5 4.66667 9.5C4.11467 9.5 3.66667 9.052 3.66667 8.5C3.66667 7.948 4.11467 7.5 4.66667 7.5C5.21867 7.5 5.66667 7.948 5.66667 8.5Z" fill="#67BEC1"/>
</g>
</g>
</g>
<defs>
<clipPath id="clip0_1_746">
<rect width="16" height="16" fill="white" transform="translate(0 0.5)"/>
</clipPath>
<clipPath id="clip1_1_746">
<rect width="16" height="16" fill="white" transform="translate(0 0.5)"/>
</clipPath>
</defs>
</svg>
