<svg width="12" height="20" viewBox="0 0 12 20" fill="none" xmlns="http://www.w3.org/2000/svg">
<path d="M0.995117 20C1.08626 20 1.19368 19.9772 1.31738 19.9316C1.44108 19.8861 1.5485 19.8177 1.63965 19.7266L11.6396 10.5469C11.7308 10.4557 11.7992 10.3483 11.8447 10.2246C11.8903 10.1009 11.9131 9.99349 11.9131 9.90234C11.9131 9.8112 11.8903 9.70703 11.8447 9.58984C11.7992 9.47266 11.7308 9.36849 11.6396 9.27734L1.81543 0.273438C1.63314 0.0911465 1.42155 0.0162754 1.18066 0.0488281C0.939778 0.0813808 0.72819 0.188803 0.545898 0.371094C0.363606 0.553385 0.288737 0.764975 0.321289 1.00586C0.353841 1.24674 0.461263 1.45833 0.643555 1.64062L9.72559 10L0.467773 18.5547C0.285481 18.724 0.187825 18.9323 0.174805 19.1797C0.161784 19.4271 0.226888 19.6419 0.370117 19.8242C0.461263 19.8633 0.555664 19.9023 0.65332 19.9414C0.750977 19.9805 0.864909 20 0.995117 20Z" fill="#46B3B7"/>
</svg>
