<svg width="60" height="60" viewBox="0 0 60 60" fill="none" xmlns="http://www.w3.org/2000/svg">
<rect width="60" height="60" rx="16" transform="matrix(-1 0 0 1 60 0)" fill="#67BEC1" fill-opacity="0.2"/>
<path d="M24.9951 40C25.0863 40 25.1937 39.9772 25.3174 39.9316C25.4411 39.8861 25.5485 39.8177 25.6396 39.7266L35.6396 30.5469C35.7308 30.4557 35.7992 30.3483 35.8447 30.2246C35.8903 30.1009 35.9131 29.9935 35.9131 29.9023C35.9131 29.8112 35.8903 29.707 35.8447 29.5898C35.7992 29.4727 35.7308 29.3685 35.6396 29.2773L25.8154 20.2734C25.6331 20.0911 25.4215 20.0163 25.1807 20.0488C24.9398 20.0814 24.7282 20.1888 24.5459 20.3711C24.3636 20.5534 24.2887 20.765 24.3213 21.0059C24.3538 21.2467 24.4613 21.4583 24.6436 21.6406L33.7256 30L24.4678 38.5547C24.2855 38.724 24.1878 38.9323 24.1748 39.1797C24.1618 39.4271 24.2269 39.6419 24.3701 39.8242C24.4613 39.8633 24.5557 39.9023 24.6533 39.9414C24.751 39.9805 24.8649 40 24.9951 40Z" fill="#67BEC1"/>
</svg>
