<svg width="129" height="24" viewBox="0 0 129 24" fill="none" xmlns="http://www.w3.org/2000/svg">
<path d="M11.5247 2.8573C11.8279 1.94424 13.1195 1.94424 13.4227 2.8573L15.0003 7.607C15.1361 8.01587 15.5185 8.2918 15.9493 8.2918H21.0069C21.9809 8.2918 22.3801 9.5426 21.5862 10.1069L17.5326 12.988C17.1744 13.2426 17.0244 13.7012 17.1629 14.1183L18.7201 18.8067C19.0249 19.7241 17.9798 20.497 17.1918 19.937L13.053 16.9953C12.7062 16.7488 12.2412 16.7488 11.8944 16.9953L7.7556 19.937C6.96761 20.497 5.92252 19.7241 6.22725 18.8067L7.78445 14.1183C7.92298 13.7012 7.77297 13.2426 7.41476 12.988L3.36119 10.1069C2.56725 9.5426 2.96647 8.2918 3.94051 8.2918H8.99808C9.42891 8.2918 9.81131 8.01587 9.94711 7.607L11.5247 2.8573Z" fill="#FFD300"/>
<path d="M37.6575 2.8573C37.9607 1.94424 39.2523 1.94424 39.5555 2.8573L41.1331 7.607C41.2689 8.01587 41.6513 8.2918 42.0821 8.2918H47.1397C48.1137 8.2918 48.513 9.5426 47.719 10.1069L43.6654 12.988C43.3072 13.2426 43.1572 13.7012 43.2958 14.1183L44.853 18.8067C45.1577 19.7241 44.1126 20.497 43.3246 19.937L39.1858 16.9953C38.839 16.7488 38.3741 16.7488 38.0272 16.9953L33.8884 19.937C33.1004 20.497 32.0553 19.7241 32.3601 18.8067L33.9173 14.1183C34.0558 13.7012 33.9058 13.2426 33.5476 12.988L29.494 10.1069C28.7001 9.5426 29.0993 8.2918 30.0733 8.2918H35.1309C35.5617 8.2918 35.9441 8.01587 36.0799 7.607L37.6575 2.8573Z" fill="#FFD300"/>
<path d="M63.5236 2.92705C63.8229 2.00574 65.1263 2.00574 65.4257 2.92705L66.9443 7.60081C67.0781 8.01284 67.4621 8.2918 67.8953 8.2918H72.8096C73.7783 8.2918 74.1811 9.53141 73.3974 10.1008L69.4216 12.9894C69.0712 13.244 68.9245 13.6954 69.0584 14.1074L70.577 18.7812C70.8763 19.7025 69.8218 20.4686 69.0381 19.8992L65.0624 17.0106C64.7119 16.756 64.2373 16.756 63.8868 17.0106L59.9111 19.8992C59.1274 20.4686 58.0729 19.7025 58.3722 18.7812L59.8908 14.1074C60.0247 13.6954 59.8781 13.244 59.5276 12.9894L55.5518 10.1008C54.7681 9.53141 55.1709 8.2918 56.1396 8.2918H61.0539C61.4871 8.2918 61.8711 8.01284 62.005 7.60081L63.5236 2.92705Z" fill="#FFD300"/>
<path d="M89.3919 2.8573C89.6951 1.94424 90.9866 1.94424 91.2899 2.8573L92.8675 7.607C93.0033 8.01587 93.3857 8.2918 93.8165 8.2918H98.8741C99.8481 8.2918 100.247 9.5426 99.4534 10.1069L95.3998 12.988C95.0416 13.2426 94.8916 13.7012 95.0301 14.1183L96.5873 18.8067C96.8921 19.7241 95.847 20.497 95.059 19.937L90.9202 16.9953C90.5733 16.7488 90.1084 16.7488 89.7616 16.9953L85.6228 19.937C84.8348 20.497 83.7897 19.7241 84.0944 18.8067L85.6516 14.1183C85.7902 13.7012 85.6402 13.2426 85.2819 12.988L81.2284 10.1069C80.4344 9.5426 80.8337 8.2918 81.8077 8.2918H86.8653C87.2961 8.2918 87.6785 8.01587 87.8143 7.607L89.3919 2.8573Z" fill="#FFD300"/>
<path d="M115.525 2.8573C115.828 1.94424 117.119 1.94424 117.423 2.8573L119 7.607C119.136 8.01587 119.518 8.2918 119.949 8.2918H125.007C125.981 8.2918 126.38 9.5426 125.586 10.1069L121.533 12.988C121.174 13.2426 121.024 13.7012 121.163 14.1183L122.72 18.8067C123.025 19.7241 121.98 20.497 121.192 19.937L117.053 16.9953C116.706 16.7488 116.241 16.7488 115.894 16.9953L111.756 19.937C110.968 20.497 109.923 19.7241 110.227 18.8067L111.784 14.1183C111.923 13.7012 111.773 13.2426 111.415 12.988L107.361 10.1069C106.567 9.5426 106.966 8.2918 107.941 8.2918H112.998C113.429 8.2918 113.811 8.01587 113.947 7.607L115.525 2.8573Z" fill="#FFD300"/>
</svg>
