<svg width="16" height="16" viewBox="0 0 16 16" fill="none" xmlns="http://www.w3.org/2000/svg">
<path d="M15.8095 14.5239L12.1319 11.0444C12.5031 10.4945 12.7961 9.88706 13.011 9.22216C13.2259 8.55726 13.3333 7.86486 13.3333 7.14496C13.3333 6.2051 13.1575 5.32023 12.8059 4.49035C12.4542 3.67047 11.978 2.95058 11.3773 2.33067C10.7766 1.71076 10.0708 1.22083 9.26007 0.860884C8.44933 0.500937 7.58486 0.320963 6.66667 0.320963C5.74847 0.320963 4.884 0.500937 4.07326 0.860884C3.27228 1.22083 2.56899 1.71076 1.96337 2.33067C1.35775 2.95058 0.879121 3.67047 0.527473 4.49035C0.175824 5.32023 0 6.2051 0 7.14496C0 8.08482 0.175824 8.96969 0.527473 9.79957C0.879121 10.6295 1.35775 11.3518 1.96337 11.9668C2.56899 12.5817 3.27228 13.0691 4.07326 13.429C4.884 13.789 5.74847 13.969 6.66667 13.969C7.116 13.969 7.55067 13.924 7.9707 13.834C8.40049 13.744 8.8083 13.6165 9.19414 13.4515C9.57998 13.2866 9.94872 13.0841 10.3004 12.8441C10.6422 12.6142 10.9646 12.3542 11.2674 12.0642L14.8718 15.4687C14.9402 15.5387 15.011 15.5912 15.0842 15.6262C15.1575 15.6612 15.243 15.6787 15.3407 15.6787C15.4383 15.6787 15.5238 15.6612 15.5971 15.6262C15.6703 15.5912 15.7411 15.5387 15.8095 15.4687C15.9365 15.3388 16 15.1813 16 14.9963C16 14.8113 15.9365 14.6539 15.8095 14.5239ZM6.66667 12.6042C5.93407 12.6042 5.24542 12.4592 4.60073 12.1692C3.94628 11.8893 3.37729 11.5018 2.89377 11.0069C2.41026 10.512 2.03175 9.92955 1.75824 9.25965C1.47497 8.59975 1.33333 7.89485 1.33333 7.14496C1.33333 6.39507 1.47497 5.69018 1.75824 5.03027C2.03175 4.36037 2.41026 3.77796 2.89377 3.28303C3.37729 2.7881 3.94628 2.40066 4.60073 2.1207C5.24542 1.83074 5.93407 1.68576 6.66667 1.68576C7.39927 1.68576 8.08791 1.83074 8.7326 2.1207C9.38706 2.40066 9.95604 2.7881 10.4396 3.28303C10.9231 3.77796 11.3016 4.36037 11.5751 5.03027C11.8584 5.69018 12 6.39507 12 7.14496C12 7.89485 11.8584 8.59975 11.5751 9.25965C11.3016 9.92955 10.9231 10.512 10.4396 11.0069C9.95604 11.5018 9.38706 11.8893 8.7326 12.1692C8.08791 12.4592 7.39927 12.6042 6.66667 12.6042Z" fill="#C0C0C0"/>
</svg>
