<svg width="26" height="25" viewBox="0 0 26 25" fill="none" xmlns="http://www.w3.org/2000/svg">
<path d="M25.2854 22.6938L19.4034 17.2571C19.9971 16.3979 20.4657 15.4488 20.8095 14.4099C21.1531 13.371 21.325 12.2891 21.325 11.1643C21.325 9.69573 21.0438 8.31312 20.4814 7.01643C19.919 5.73537 19.1573 4.61053 18.1966 3.64193C17.2358 2.67332 16.107 1.90781 14.8103 1.34539C13.5136 0.78297 12.131 0.501762 10.6625 0.501762C9.19396 0.501762 7.81136 0.78297 6.51467 1.34539C5.23361 1.90781 4.10877 2.67332 3.14016 3.64193C2.17156 4.61053 1.40604 5.73537 0.843626 7.01643C0.281209 8.31312 0 9.69573 0 11.1643C0 12.6328 0.281209 14.0154 0.843626 15.3121C1.40604 16.6088 2.17156 17.7375 3.14016 18.6983C4.10877 19.6591 5.23361 20.4207 6.51467 20.9831C7.81136 21.5456 9.19396 21.8268 10.6625 21.8268C11.3811 21.8268 12.0764 21.7565 12.7481 21.6159C13.4355 21.4753 14.0878 21.2761 14.7049 21.0183C15.322 20.7605 15.9117 20.4442 16.4741 20.0692C17.0209 19.7099 17.5365 19.3037 18.0208 18.8506L23.7856 24.1702C23.8949 24.2795 24.0082 24.3615 24.1254 24.4162C24.2425 24.4709 24.3792 24.4982 24.5355 24.4982C24.6917 24.4982 24.8284 24.4709 24.9456 24.4162C25.0627 24.3615 25.176 24.2795 25.2854 24.1702C25.4885 23.9671 25.59 23.721 25.59 23.432C25.59 23.143 25.4885 22.8969 25.2854 22.6938ZM10.6625 19.6943C9.4908 19.6943 8.3894 19.4677 7.3583 19.0147C6.31157 18.5772 5.40155 17.9719 4.62823 17.1985C3.8549 16.4252 3.24952 15.5152 2.81209 14.4685C2.35903 13.4374 2.1325 12.336 2.1325 11.1643C2.1325 9.99256 2.35903 8.89116 2.81209 7.86006C3.24952 6.81334 3.8549 5.90331 4.62823 5.12999C5.40155 4.35667 6.31157 3.75129 7.3583 3.31385C8.3894 2.86079 9.4908 2.63426 10.6625 2.63426C11.8342 2.63426 12.9356 2.86079 13.9667 3.31385C15.0134 3.75129 15.9234 4.35667 16.6968 5.12999C17.4701 5.90331 18.0755 6.81334 18.5129 7.86006C18.966 8.89116 19.1925 9.99256 19.1925 11.1643C19.1925 12.336 18.966 13.4374 18.5129 14.4685C18.0755 15.5152 17.4701 16.4252 16.6968 17.1985C15.9234 17.9719 15.0134 18.5772 13.9667 19.0147C12.9356 19.4677 11.8342 19.6943 10.6625 19.6943Z" fill="#C0C0C0"/>
</svg>
