<svg width="211" height="41" viewBox="0 0 211 41" fill="none" xmlns="http://www.w3.org/2000/svg">
<path d="M20.013 1L24.5062 14.528H39.0465L27.2831 22.8888L31.7763 36.4168L20.013 28.056L8.24965 36.4168L12.7428 22.8888L0.979506 14.528H15.5198L20.013 1Z" fill="#FFD300"/>
<path d="M62.6495 1L67.1427 14.528H81.6829L69.9196 22.8888L74.4128 36.4168L62.6495 28.056L50.8861 36.4168L55.3793 22.8888L43.616 14.528H58.1563L62.6495 1Z" fill="#FFD300"/>
<path d="M104.851 1L109.246 14.528H123.47L111.963 22.8888L116.358 36.4168L104.851 28.056L93.343 36.4168L97.7385 22.8888L86.2309 14.528H100.455L104.851 1Z" fill="#FFD300"/>
<path d="M147.052 1L151.545 14.528H166.086L154.322 22.8888L158.815 36.4168L147.052 28.056L135.289 36.4168L139.782 22.8888L128.019 14.528H142.559L147.052 1Z" fill="#FFD300"/>
<path d="M182.391 14.9629L181.16 21.1416L172.535 14.9629H182.391Z" fill="#FFD300" stroke="#FFD300"/>
<path d="M194.031 14.6206L194.146 14.9634H207.479L196.993 22.4165L196.692 22.6304L196.809 22.981L200.819 35.0571L190.303 27.5835L190.013 27.3774L189.724 27.5835L179.206 35.0571L183.218 22.9819L183.334 22.6304L183.032 22.4165L172.547 14.9634H185.881L185.994 14.6206L190.013 2.521L194.031 14.6206Z" stroke="#FFD300"/>
</svg>
