<svg width="31" height="31" viewBox="0 0 31 31" fill="none" xmlns="http://www.w3.org/2000/svg">
<rect width="31" height="31" rx="15.5" fill="#F8F8FA"/>
<path d="M16.2524 12.0439C16.2483 12.0435 16.2439 12.0435 16.2395 12.0435C16.0867 12.0435 15.9627 12.1675 15.9627 12.3203C15.9627 12.4675 16.0778 12.5882 16.2233 12.5967H16.224C17.5278 12.682 18.553 13.7603 18.553 15.0778C18.553 15.1465 18.5501 15.2144 18.5449 15.2815L18.5457 15.2727C18.5457 15.4255 18.6697 15.5495 18.8225 15.5495C18.9752 15.5495 19.0992 15.4255 19.0992 15.2727C19.1026 15.2199 19.1044 15.1583 19.1044 15.0959C19.1044 13.4795 17.8508 12.1557 16.2627 12.0442L16.2531 12.0439H16.2524ZM16.2251 10.6097C16.3908 10.6179 20.2839 10.8637 20.2839 15.2727C20.2839 15.4255 20.4079 15.5495 20.5607 15.5495C20.7135 15.5495 20.8375 15.4255 20.8375 15.2727C20.843 15.1848 20.8463 15.0826 20.8463 14.9793C20.8463 12.3742 18.8273 10.2403 16.2683 10.058L16.2524 10.0573C16.2491 10.0573 16.2454 10.0569 16.2417 10.0569C16.093 10.0569 15.9716 10.1728 15.9623 10.3189V10.3197C15.962 10.3237 15.962 10.3285 15.962 10.3333C15.962 10.4813 16.0782 10.6024 16.2244 10.6097H16.2251ZM20.9024 18.1387C20.8622 17.8896 20.7791 17.6659 20.661 17.4659L20.6658 17.4748C20.6238 17.4061 20.5548 17.3578 20.4736 17.3445L20.4721 17.3441L17.1621 16.8186C17.1492 16.8164 17.1341 16.8153 17.1189 16.8153C17.0425 16.8153 16.9732 16.8459 16.923 16.8957C16.6735 17.1467 16.4823 17.4552 16.3709 17.8003L16.3664 17.8165C14.8843 17.2113 13.7311 16.058 13.1402 14.615L13.1262 14.5763C13.4871 14.4604 13.7957 14.2689 14.0462 14.0194C14.0964 13.9692 14.1274 13.8998 14.1274 13.8234C14.1274 13.8083 14.1263 13.7935 14.1237 13.7791L14.1241 13.7806L13.5982 10.4706C13.5849 10.388 13.5366 10.3186 13.469 10.2772L13.4679 10.2765C13.2816 10.1654 13.0642 10.0839 12.8317 10.0455L12.821 10.044C12.7048 10.0182 12.5712 10.003 12.4342 10.003C12.425 10.003 12.4158 10.003 12.4066 10.0034H12.408H12.4058C11.1153 10.0123 10.0712 11.057 10.0635 12.3472V12.348C10.069 17.0574 13.885 20.8737 18.594 20.8792H18.5948C19.8864 20.8707 20.9312 19.826 20.9397 18.5354V18.5347C20.9397 18.5273 20.9397 18.5184 20.9397 18.5096C20.9397 18.3782 20.9264 18.2501 20.9006 18.1265L20.9028 18.1387H20.9024ZM18.5944 20.3257C14.1905 20.3205 10.6222 16.7518 10.617 12.3483C10.6241 11.3619 11.4223 10.5636 12.4084 10.557H12.4091C12.415 10.557 12.4224 10.557 12.4294 10.557C12.5298 10.557 12.6276 10.568 12.7221 10.5887L12.7132 10.5869C12.8483 10.609 12.9697 10.6463 13.0834 10.6976L13.0742 10.6939L13.5547 13.7208C13.3229 13.9157 13.0365 14.0533 12.7217 14.1083L12.711 14.1098C12.58 14.1334 12.4822 14.2463 12.4822 14.3825C12.4822 14.415 12.4878 14.446 12.4981 14.4748L12.4973 14.4729C13.1513 16.3447 14.5991 17.7922 16.4262 18.4325L16.4709 18.4461C16.4978 18.4557 16.5288 18.4612 16.5613 18.4612C16.6971 18.4612 16.81 18.3634 16.8333 18.2343L16.8337 18.2324C16.8901 17.9069 17.0278 17.6205 17.2252 17.3855L17.223 17.388L20.2496 17.8689C20.2986 17.9774 20.337 18.1036 20.3588 18.2357L20.3599 18.2446C20.3769 18.3254 20.3868 18.4184 20.3868 18.5136C20.3868 18.5203 20.3868 18.5266 20.3868 18.5332V18.5321C20.3809 19.5193 19.5827 20.3183 18.5962 20.3253H18.5955L18.5944 20.3257Z" fill="black"/>
</svg>
