<svg width="24" height="23" viewBox="0 0 24 23" fill="none" xmlns="http://www.w3.org/2000/svg">
<path d="M13.5277 4.97625C13.5194 4.9755 13.5104 4.9755 13.5014 4.9755C13.1909 4.9755 12.9389 5.2275 12.9389 5.538C12.9389 5.83725 13.1729 6.0825 13.4684 6.09975H13.4699C16.1197 6.273 18.2032 8.4645 18.2032 11.142C18.2032 11.2815 18.1972 11.4195 18.1867 11.556L18.1882 11.538C18.1882 11.8485 18.4402 12.1005 18.7507 12.1005C19.0612 12.1005 19.3132 11.8485 19.3132 11.538C19.3199 11.4308 19.3237 11.3055 19.3237 11.1788C19.3237 7.89375 16.7759 5.2035 13.5487 4.977L13.5292 4.97625H13.5277ZM13.4722 2.06175C13.8089 2.07825 21.7207 2.57775 21.7207 11.538C21.7207 11.8485 21.9727 12.1005 22.2832 12.1005C22.5937 12.1005 22.8457 11.8485 22.8457 11.538C22.8569 11.3595 22.8637 11.1518 22.8637 10.9418C22.8637 5.6475 18.7604 1.311 13.5599 0.940501L13.5277 0.939001C13.5209 0.939001 13.5134 0.938251 13.5059 0.938251C13.2037 0.938251 12.9569 1.17375 12.9382 1.47075V1.47225C12.9374 1.4805 12.9374 1.49025 12.9374 1.5C12.9374 1.80075 13.1737 2.04675 13.4707 2.06175H13.4722ZM22.9777 17.3625C22.8959 16.8563 22.7272 16.4018 22.4872 15.9953L22.4969 16.0133C22.4114 15.8738 22.2712 15.7755 22.1062 15.7485L22.1032 15.7478L15.3764 14.6798C15.3502 14.6753 15.3194 14.673 15.2887 14.673C15.1334 14.673 14.9924 14.7353 14.8904 14.8365C14.3834 15.3465 13.9949 15.9735 13.7684 16.6748L13.7594 16.7078C10.7474 15.4778 8.4037 13.134 7.20295 10.2015L7.17445 10.1228C7.90795 9.88725 8.53495 9.498 9.0442 8.991C9.1462 8.889 9.2092 8.748 9.2092 8.59275C9.2092 8.562 9.20695 8.532 9.2017 8.50275L9.20245 8.50575L8.1337 1.779C8.1067 1.611 8.00845 1.47 7.8712 1.386L7.86895 1.3845C7.4902 1.15875 7.04845 0.993001 6.57595 0.915001L6.5542 0.912001C6.31795 0.859501 6.04645 0.828751 5.7682 0.828751C5.74945 0.828751 5.7307 0.828751 5.71195 0.829501H5.71495H5.71045C3.0877 0.847501 0.965945 2.97075 0.950195 5.59275V5.59425C0.961445 15.165 8.71645 22.9208 18.2864 22.932H18.2879C20.9129 22.9148 23.0362 20.7915 23.0534 18.1688V18.1673C23.0534 18.1523 23.0534 18.1343 23.0534 18.1163C23.0534 17.8493 23.0264 17.589 22.9739 17.3378L22.9784 17.3625H22.9777ZM18.2872 21.807C9.33745 21.7965 2.0857 14.544 2.0752 5.595C2.08945 3.59025 3.7117 1.968 5.7157 1.9545H5.7172C5.7292 1.9545 5.7442 1.9545 5.75845 1.9545C5.96245 1.9545 6.1612 1.977 6.3532 2.019L6.3352 2.01525C6.6097 2.06025 6.85645 2.136 7.08745 2.24025L7.0687 2.23275L8.0452 8.38425C7.5742 8.78025 6.9922 9.06 6.35245 9.17175L6.3307 9.17475C6.06445 9.22275 5.8657 9.45225 5.8657 9.729C5.8657 9.795 5.87695 9.858 5.89795 9.9165L5.89645 9.91275C7.22545 13.7168 10.1677 16.6583 13.8809 17.9595L13.9717 17.9873C14.0264 18.0068 14.0894 18.018 14.1554 18.018C14.4314 18.018 14.6609 17.8193 14.7082 17.5568L14.7089 17.553C14.8237 16.8915 15.1034 16.3095 15.5047 15.8318L15.5002 15.837L21.6509 16.8143C21.7507 17.0348 21.8287 17.2913 21.8729 17.5598L21.8752 17.5778C21.9097 17.742 21.9299 17.931 21.9299 18.1245C21.9299 18.138 21.9299 18.1508 21.9299 18.1643V18.162C21.9179 20.1683 20.2957 21.792 18.2909 21.8063H18.2894L18.2872 21.807Z" fill="#C0C0C0"/>
</svg>
