<svg width="44" height="44" viewBox="0 0 44 44" fill="none" xmlns="http://www.w3.org/2000/svg">
<circle cx="22" cy="22" r="22" fill="#F8F8FA"/>
<g clip-path="url(#clip0_1_893)">
<path fill-rule="evenodd" clip-rule="evenodd" d="M31.0734 13.1681C32.3426 12.6337 33.7033 13.707 33.4792 15.0658L30.8322 31.1153C30.5769 32.6627 28.8773 33.5507 27.4576 32.7795C26.2696 32.1342 24.507 31.1411 22.9184 30.1031C22.1252 29.5847 19.6963 27.9227 19.9949 26.7396C20.2501 25.728 24.3334 21.9271 26.6667 19.6667C27.5832 18.7787 27.1658 18.2658 26.0834 19.0833C23.3982 21.1113 19.0871 24.1947 17.6615 25.0625C16.4037 25.8281 15.7469 25.9587 14.9636 25.8281C13.5331 25.5897 12.2069 25.2206 11.1241 24.7718C9.66068 24.1651 9.73196 22.154 11.1231 21.5683L31.0734 13.1681Z" fill="#67BEC1"/>
</g>
<defs>
<clipPath id="clip0_1_893">
<rect width="28" height="28" fill="white" transform="translate(8 8)"/>
</clipPath>
</defs>
</svg>
