<svg width="44" height="44" viewBox="0 0 44 44" fill="none" xmlns="http://www.w3.org/2000/svg">
<circle cx="22" cy="22" r="22" fill="#F8F8FA"/>
<path d="M24.6801 21.7813C24.2426 21.6168 24.2426 20.9885 24.2155 20.551C24.1061 18.9926 24.653 16.6135 23.9967 15.602C23.5321 15 21.2895 15.0551 19.9227 15.1374C19.5395 15.1925 19.0749 15.2739 18.7467 15.4384C18.4186 15.6029 18.0905 15.8759 18.0905 16.1217C18.0905 16.477 18.9112 16.4227 19.2114 16.8874C19.5395 17.38 19.5395 18.4457 19.5395 19.3207C19.5395 20.3323 19.375 21.6727 18.9655 21.727C18.3364 21.7541 17.9811 21.125 17.653 20.6604C16.9967 19.7583 16.3405 18.6365 15.8479 17.5428C15.602 16.9688 15.4646 16.3396 15.1094 16.0938C14.5625 15.7105 13.5781 15.6834 12.6209 15.7105C11.7459 15.7376 10.4876 15.6283 10.2417 16.148C10.0501 16.722 10.4605 17.2689 10.6792 17.7344C11.8001 20.1678 13.0032 22.301 14.4802 24.324C15.8479 26.2105 17.1324 27.7146 19.648 28.5074C20.3594 28.7261 23.4761 29.3553 24.1052 28.5074C24.324 28.1793 24.2697 27.4408 24.3791 26.8939C24.4885 26.347 24.625 25.8001 25.1447 25.773C25.5822 25.7459 25.8281 26.1283 26.102 26.4021C26.403 26.7031 26.6489 26.949 26.8676 27.2229C27.3874 27.7426 27.9342 28.4531 28.5905 28.727C29.4926 29.1103 30.8874 29.0009 32.1999 28.9458C33.2665 28.9186 34.0321 28.6999 34.1144 28.0708C34.1695 27.5781 33.6217 26.8676 33.2936 26.4573C32.4729 25.4458 32.0905 25.1448 31.1604 24.2146C30.75 23.8043 30.2302 23.3668 30.2302 22.875C30.2031 22.574 30.449 22.301 30.6677 22C31.625 20.5781 32.5822 19.5666 33.4572 18.0896C33.7031 17.6521 34.278 16.6406 34.0592 16.148C33.8134 15.6011 32.4457 15.7647 31.5979 15.7647C30.5041 15.7647 29.0822 15.6825 28.8084 15.9012C28.2886 16.2565 28.0699 16.8314 27.824 17.3783C27.2771 18.6365 26.5386 19.921 25.773 20.8783C25.4991 21.2064 24.9802 21.8898 24.6792 21.7804L24.6801 21.7813Z" fill="#67BEC1"/>
</svg>
